<?xml version="1.0" encoding="utf-8" standalone="no"?>
<!DOCTYPE svg PUBLIC "-//W3C//DTD SVG 1.1//EN"
  "http://www.w3.org/Graphics/SVG/1.1/DTD/svg11.dtd">
<!-- Created with matplotlib (https://matplotlib.org/) -->
<svg height="212.742544pt" version="1.1" viewBox="0 0 424.990666 212.742544" width="424.990666pt" xmlns="http://www.w3.org/2000/svg" xmlns:xlink="http://www.w3.org/1999/xlink">
 <metadata>
  <rdf:RDF xmlns:cc="http://creativecommons.org/ns#" xmlns:dc="http://purl.org/dc/elements/1.1/" xmlns:rdf="http://www.w3.org/1999/02/22-rdf-syntax-ns#">
   <cc:Work>
    <dc:type rdf:resource="http://purl.org/dc/dcmitype/StillImage"/>
    <dc:date>2021-04-30T10:14:06.466853</dc:date>
    <dc:format>image/svg+xml</dc:format>
    <dc:creator>
     <cc:Agent>
      <dc:title>Matplotlib v3.3.4, https://matplotlib.org/</dc:title>
     </cc:Agent>
    </dc:creator>
   </cc:Work>
  </rdf:RDF>
 </metadata>
 <defs>
  <style type="text/css">*{stroke-linecap:butt;stroke-linejoin:round;}</style>
 </defs>
 <g id="figure_1">
  <g id="patch_1">
   <path d="M 0 212.742544 
L 424.990666 212.742544 
L 424.990666 0 
L 0 0 
z
" style="fill:#ffffff;"/>
  </g>
  <g id="axes_1">
   <g id="patch_2">
    <path d="M 34.471778 133.751434 
L 206.830666 133.751434 
L 206.830666 22.291906 
L 34.471778 22.291906 
z
" style="fill:#ffffff;"/>
   </g>
   <g id="matplotlib.axis_1">
    <g id="xtick_1">
     <g id="line2d_1">
      <path clip-path="url(#pfab5671d4e)" d="M 45.090103 133.751434 
L 45.090103 22.291906 
" style="fill:none;stroke:#cccccc;stroke-dasharray:1,1.65;stroke-dashoffset:0;"/>
     </g>
     <g id="text_1">
      <!-- -G -->
      <g style="fill:#262626;" transform="translate(47.214822 149.774872)rotate(-90)scale(0.077 -0.077)">
       <defs>
        <path d="M 4.890625 31.390625 
L 31.203125 31.390625 
L 31.203125 23.390625 
L 4.890625 23.390625 
z
" id="DejaVuSans-45"/>
        <path d="M 59.515625 10.40625 
L 59.515625 29.984375 
L 43.40625 29.984375 
L 43.40625 38.09375 
L 69.28125 38.09375 
L 69.28125 6.78125 
Q 63.578125 2.734375 56.6875 0.65625 
Q 49.8125 -1.421875 42 -1.421875 
Q 24.90625 -1.421875 15.25 8.5625 
Q 5.609375 18.5625 5.609375 36.375 
Q 5.609375 54.25 15.25 64.234375 
Q 24.90625 74.21875 42 74.21875 
Q 49.125 74.21875 55.546875 72.453125 
Q 61.96875 70.703125 67.390625 67.28125 
L 67.390625 56.78125 
Q 61.921875 61.421875 55.765625 63.765625 
Q 49.609375 66.109375 42.828125 66.109375 
Q 29.4375 66.109375 22.71875 58.640625 
Q 16.015625 51.171875 16.015625 36.375 
Q 16.015625 21.625 22.71875 14.15625 
Q 29.4375 6.6875 42.828125 6.6875 
Q 48.046875 6.6875 52.140625 7.59375 
Q 56.25 8.5 59.515625 10.40625 
z
" id="DejaVuSans-71"/>
       </defs>
       <use xlink:href="#DejaVuSans-45"/>
       <use x="39.708984" xlink:href="#DejaVuSans-71"/>
      </g>
     </g>
    </g>
    <g id="xtick_2">
     <g id="line2d_2">
      <path clip-path="url(#pfab5671d4e)" d="M 53.043905 133.751434 
L 53.043905 22.291906 
" style="fill:none;stroke:#cccccc;stroke-dasharray:1,1.65;stroke-dashoffset:0;"/>
     </g>
     <g id="text_2">
      <!-- Unmodified -->
      <g style="fill:#262626;" transform="translate(55.168624 184.981919)rotate(-90)scale(0.077 -0.077)">
       <defs>
        <path d="M 8.6875 72.90625 
L 18.609375 72.90625 
L 18.609375 28.609375 
Q 18.609375 16.890625 22.84375 11.734375 
Q 27.09375 6.59375 36.625 6.59375 
Q 46.09375 6.59375 50.34375 11.734375 
Q 54.59375 16.890625 54.59375 28.609375 
L 54.59375 72.90625 
L 64.5 72.90625 
L 64.5 27.390625 
Q 64.5 13.140625 57.4375 5.859375 
Q 50.390625 -1.421875 36.625 -1.421875 
Q 22.796875 -1.421875 15.734375 5.859375 
Q 8.6875 13.140625 8.6875 27.390625 
z
" id="DejaVuSans-85"/>
        <path d="M 54.890625 33.015625 
L 54.890625 0 
L 45.90625 0 
L 45.90625 32.71875 
Q 45.90625 40.484375 42.875 44.328125 
Q 39.84375 48.1875 33.796875 48.1875 
Q 26.515625 48.1875 22.3125 43.546875 
Q 18.109375 38.921875 18.109375 30.90625 
L 18.109375 0 
L 9.078125 0 
L 9.078125 54.6875 
L 18.109375 54.6875 
L 18.109375 46.1875 
Q 21.34375 51.125 25.703125 53.5625 
Q 30.078125 56 35.796875 56 
Q 45.21875 56 50.046875 50.171875 
Q 54.890625 44.34375 54.890625 33.015625 
z
" id="DejaVuSans-110"/>
        <path d="M 52 44.1875 
Q 55.375 50.25 60.0625 53.125 
Q 64.75 56 71.09375 56 
Q 79.640625 56 84.28125 50.015625 
Q 88.921875 44.046875 88.921875 33.015625 
L 88.921875 0 
L 79.890625 0 
L 79.890625 32.71875 
Q 79.890625 40.578125 77.09375 44.375 
Q 74.3125 48.1875 68.609375 48.1875 
Q 61.625 48.1875 57.5625 43.546875 
Q 53.515625 38.921875 53.515625 30.90625 
L 53.515625 0 
L 44.484375 0 
L 44.484375 32.71875 
Q 44.484375 40.625 41.703125 44.40625 
Q 38.921875 48.1875 33.109375 48.1875 
Q 26.21875 48.1875 22.15625 43.53125 
Q 18.109375 38.875 18.109375 30.90625 
L 18.109375 0 
L 9.078125 0 
L 9.078125 54.6875 
L 18.109375 54.6875 
L 18.109375 46.1875 
Q 21.1875 51.21875 25.484375 53.609375 
Q 29.78125 56 35.6875 56 
Q 41.65625 56 45.828125 52.96875 
Q 50 49.953125 52 44.1875 
z
" id="DejaVuSans-109"/>
        <path d="M 30.609375 48.390625 
Q 23.390625 48.390625 19.1875 42.75 
Q 14.984375 37.109375 14.984375 27.296875 
Q 14.984375 17.484375 19.15625 11.84375 
Q 23.34375 6.203125 30.609375 6.203125 
Q 37.796875 6.203125 41.984375 11.859375 
Q 46.1875 17.53125 46.1875 27.296875 
Q 46.1875 37.015625 41.984375 42.703125 
Q 37.796875 48.390625 30.609375 48.390625 
z
M 30.609375 56 
Q 42.328125 56 49.015625 48.375 
Q 55.71875 40.765625 55.71875 27.296875 
Q 55.71875 13.875 49.015625 6.21875 
Q 42.328125 -1.421875 30.609375 -1.421875 
Q 18.84375 -1.421875 12.171875 6.21875 
Q 5.515625 13.875 5.515625 27.296875 
Q 5.515625 40.765625 12.171875 48.375 
Q 18.84375 56 30.609375 56 
z
" id="DejaVuSans-111"/>
        <path d="M 45.40625 46.390625 
L 45.40625 75.984375 
L 54.390625 75.984375 
L 54.390625 0 
L 45.40625 0 
L 45.40625 8.203125 
Q 42.578125 3.328125 38.25 0.953125 
Q 33.9375 -1.421875 27.875 -1.421875 
Q 17.96875 -1.421875 11.734375 6.484375 
Q 5.515625 14.40625 5.515625 27.296875 
Q 5.515625 40.1875 11.734375 48.09375 
Q 17.96875 56 27.875 56 
Q 33.9375 56 38.25 53.625 
Q 42.578125 51.265625 45.40625 46.390625 
z
M 14.796875 27.296875 
Q 14.796875 17.390625 18.875 11.75 
Q 22.953125 6.109375 30.078125 6.109375 
Q 37.203125 6.109375 41.296875 11.75 
Q 45.40625 17.390625 45.40625 27.296875 
Q 45.40625 37.203125 41.296875 42.84375 
Q 37.203125 48.484375 30.078125 48.484375 
Q 22.953125 48.484375 18.875 42.84375 
Q 14.796875 37.203125 14.796875 27.296875 
z
" id="DejaVuSans-100"/>
        <path d="M 9.421875 54.6875 
L 18.40625 54.6875 
L 18.40625 0 
L 9.421875 0 
z
M 9.421875 75.984375 
L 18.40625 75.984375 
L 18.40625 64.59375 
L 9.421875 64.59375 
z
" id="DejaVuSans-105"/>
        <path d="M 37.109375 75.984375 
L 37.109375 68.5 
L 28.515625 68.5 
Q 23.6875 68.5 21.796875 66.546875 
Q 19.921875 64.59375 19.921875 59.515625 
L 19.921875 54.6875 
L 34.71875 54.6875 
L 34.71875 47.703125 
L 19.921875 47.703125 
L 19.921875 0 
L 10.890625 0 
L 10.890625 47.703125 
L 2.296875 47.703125 
L 2.296875 54.6875 
L 10.890625 54.6875 
L 10.890625 58.5 
Q 10.890625 67.625 15.140625 71.796875 
Q 19.390625 75.984375 28.609375 75.984375 
z
" id="DejaVuSans-102"/>
        <path d="M 56.203125 29.59375 
L 56.203125 25.203125 
L 14.890625 25.203125 
Q 15.484375 15.921875 20.484375 11.0625 
Q 25.484375 6.203125 34.421875 6.203125 
Q 39.59375 6.203125 44.453125 7.46875 
Q 49.3125 8.734375 54.109375 11.28125 
L 54.109375 2.78125 
Q 49.265625 0.734375 44.1875 -0.34375 
Q 39.109375 -1.421875 33.890625 -1.421875 
Q 20.796875 -1.421875 13.15625 6.1875 
Q 5.515625 13.8125 5.515625 26.8125 
Q 5.515625 40.234375 12.765625 48.109375 
Q 20.015625 56 32.328125 56 
Q 43.359375 56 49.78125 48.890625 
Q 56.203125 41.796875 56.203125 29.59375 
z
M 47.21875 32.234375 
Q 47.125 39.59375 43.09375 43.984375 
Q 39.0625 48.390625 32.421875 48.390625 
Q 24.90625 48.390625 20.390625 44.140625 
Q 15.875 39.890625 15.1875 32.171875 
z
" id="DejaVuSans-101"/>
       </defs>
       <use xlink:href="#DejaVuSans-85"/>
       <use x="73.193359" xlink:href="#DejaVuSans-110"/>
       <use x="136.572266" xlink:href="#DejaVuSans-109"/>
       <use x="233.984375" xlink:href="#DejaVuSans-111"/>
       <use x="295.166016" xlink:href="#DejaVuSans-100"/>
       <use x="358.642578" xlink:href="#DejaVuSans-105"/>
       <use x="386.425781" xlink:href="#DejaVuSans-102"/>
       <use x="421.630859" xlink:href="#DejaVuSans-105"/>
       <use x="449.414062" xlink:href="#DejaVuSans-101"/>
       <use x="510.9375" xlink:href="#DejaVuSans-100"/>
      </g>
     </g>
    </g>
    <g id="xtick_3">
     <g id="line2d_3">
      <path clip-path="url(#pfab5671d4e)" d="M 60.997707 133.751434 
L 60.997707 22.291906 
" style="fill:none;stroke:#cccccc;stroke-dasharray:1,1.65;stroke-dashoffset:0;"/>
     </g>
     <g id="text_3">
      <!-- +G -->
      <g style="fill:#262626;" transform="translate(63.122426 153.17009)rotate(-90)scale(0.077 -0.077)">
       <defs>
        <path d="M 46 62.703125 
L 46 35.5 
L 73.1875 35.5 
L 73.1875 27.203125 
L 46 27.203125 
L 46 0 
L 37.796875 0 
L 37.796875 27.203125 
L 10.59375 27.203125 
L 10.59375 35.5 
L 37.796875 35.5 
L 37.796875 62.703125 
z
" id="DejaVuSans-43"/>
       </defs>
       <use xlink:href="#DejaVuSans-43"/>
       <use x="83.789062" xlink:href="#DejaVuSans-71"/>
      </g>
     </g>
    </g>
    <g id="xtick_4">
     <g id="line2d_4">
      <path clip-path="url(#pfab5671d4e)" d="M 68.951509 133.751434 
L 68.951509 22.291906 
" style="fill:none;stroke:#cccccc;stroke-dasharray:1,1.65;stroke-dashoffset:0;"/>
     </g>
     <g id="text_4">
      <!-- +G+S -->
      <g style="fill:#262626;" transform="translate(71.076228 164.510747)rotate(-90)scale(0.077 -0.077)">
       <defs>
        <path d="M 53.515625 70.515625 
L 53.515625 60.890625 
Q 47.90625 63.578125 42.921875 64.890625 
Q 37.9375 66.21875 33.296875 66.21875 
Q 25.25 66.21875 20.875 63.09375 
Q 16.5 59.96875 16.5 54.203125 
Q 16.5 49.359375 19.40625 46.890625 
Q 22.3125 44.4375 30.421875 42.921875 
L 36.375 41.703125 
Q 47.40625 39.59375 52.65625 34.296875 
Q 57.90625 29 57.90625 20.125 
Q 57.90625 9.515625 50.796875 4.046875 
Q 43.703125 -1.421875 29.984375 -1.421875 
Q 24.8125 -1.421875 18.96875 -0.25 
Q 13.140625 0.921875 6.890625 3.21875 
L 6.890625 13.375 
Q 12.890625 10.015625 18.65625 8.296875 
Q 24.421875 6.59375 29.984375 6.59375 
Q 38.421875 6.59375 43.015625 9.90625 
Q 47.609375 13.234375 47.609375 19.390625 
Q 47.609375 24.75 44.3125 27.78125 
Q 41.015625 30.8125 33.5 32.328125 
L 27.484375 33.5 
Q 16.453125 35.6875 11.515625 40.375 
Q 6.59375 45.0625 6.59375 53.421875 
Q 6.59375 63.09375 13.40625 68.65625 
Q 20.21875 74.21875 32.171875 74.21875 
Q 37.3125 74.21875 42.625 73.28125 
Q 47.953125 72.359375 53.515625 70.515625 
z
" id="DejaVuSans-83"/>
       </defs>
       <use xlink:href="#DejaVuSans-43"/>
       <use x="83.789062" xlink:href="#DejaVuSans-71"/>
       <use x="161.279297" xlink:href="#DejaVuSans-43"/>
       <use x="245.068359" xlink:href="#DejaVuSans-83"/>
      </g>
     </g>
    </g>
    <g id="xtick_5">
     <g id="line2d_5">
      <path clip-path="url(#pfab5671d4e)" d="M 76.905311 133.751434 
L 76.905311 22.291906 
" style="fill:none;stroke:#cccccc;stroke-dasharray:1,1.65;stroke-dashoffset:0;"/>
     </g>
     <g id="text_5">
      <!-- +G+S+ivs -->
      <g style="fill:#262626;" transform="translate(79.03003 181.670919)rotate(-90)scale(0.077 -0.077)">
       <defs>
        <path d="M 2.984375 54.6875 
L 12.5 54.6875 
L 29.59375 8.796875 
L 46.6875 54.6875 
L 56.203125 54.6875 
L 35.6875 0 
L 23.484375 0 
z
" id="DejaVuSans-118"/>
        <path d="M 44.28125 53.078125 
L 44.28125 44.578125 
Q 40.484375 46.53125 36.375 47.5 
Q 32.28125 48.484375 27.875 48.484375 
Q 21.1875 48.484375 17.84375 46.4375 
Q 14.5 44.390625 14.5 40.28125 
Q 14.5 37.15625 16.890625 35.375 
Q 19.28125 33.59375 26.515625 31.984375 
L 29.59375 31.296875 
Q 39.15625 29.25 43.1875 25.515625 
Q 47.21875 21.78125 47.21875 15.09375 
Q 47.21875 7.46875 41.1875 3.015625 
Q 35.15625 -1.421875 24.609375 -1.421875 
Q 20.21875 -1.421875 15.453125 -0.5625 
Q 10.6875 0.296875 5.421875 2 
L 5.421875 11.28125 
Q 10.40625 8.6875 15.234375 7.390625 
Q 20.0625 6.109375 24.8125 6.109375 
Q 31.15625 6.109375 34.5625 8.28125 
Q 37.984375 10.453125 37.984375 14.40625 
Q 37.984375 18.0625 35.515625 20.015625 
Q 33.0625 21.96875 24.703125 23.78125 
L 21.578125 24.515625 
Q 13.234375 26.265625 9.515625 29.90625 
Q 5.8125 33.546875 5.8125 39.890625 
Q 5.8125 47.609375 11.28125 51.796875 
Q 16.75 56 26.8125 56 
Q 31.78125 56 36.171875 55.265625 
Q 40.578125 54.546875 44.28125 53.078125 
z
" id="DejaVuSans-115"/>
       </defs>
       <use xlink:href="#DejaVuSans-43"/>
       <use x="83.789062" xlink:href="#DejaVuSans-71"/>
       <use x="161.279297" xlink:href="#DejaVuSans-43"/>
       <use x="245.068359" xlink:href="#DejaVuSans-83"/>
       <use x="308.544922" xlink:href="#DejaVuSans-43"/>
       <use x="392.333984" xlink:href="#DejaVuSans-105"/>
       <use x="420.117188" xlink:href="#DejaVuSans-118"/>
       <use x="479.296875" xlink:href="#DejaVuSans-115"/>
      </g>
     </g>
    </g>
    <g id="xtick_6">
     <g id="line2d_6">
      <path clip-path="url(#pfab5671d4e)" d="M 84.859113 133.751434 
L 84.859113 22.291906 
" style="fill:none;stroke:#cccccc;stroke-dasharray:1,1.65;stroke-dashoffset:0;"/>
     </g>
     <g id="text_6">
      <!-- -G+B -->
      <g style="fill:#262626;" transform="translate(86.983832 161.510153)rotate(-90)scale(0.077 -0.077)">
       <defs>
        <path d="M 19.671875 34.8125 
L 19.671875 8.109375 
L 35.5 8.109375 
Q 43.453125 8.109375 47.28125 11.40625 
Q 51.125 14.703125 51.125 21.484375 
Q 51.125 28.328125 47.28125 31.5625 
Q 43.453125 34.8125 35.5 34.8125 
z
M 19.671875 64.796875 
L 19.671875 42.828125 
L 34.28125 42.828125 
Q 41.5 42.828125 45.03125 45.53125 
Q 48.578125 48.25 48.578125 53.8125 
Q 48.578125 59.328125 45.03125 62.0625 
Q 41.5 64.796875 34.28125 64.796875 
z
M 9.8125 72.90625 
L 35.015625 72.90625 
Q 46.296875 72.90625 52.390625 68.21875 
Q 58.5 63.53125 58.5 54.890625 
Q 58.5 48.1875 55.375 44.234375 
Q 52.25 40.28125 46.1875 39.3125 
Q 53.46875 37.75 57.5 32.78125 
Q 61.53125 27.828125 61.53125 20.40625 
Q 61.53125 10.640625 54.890625 5.3125 
Q 48.25 0 35.984375 0 
L 9.8125 0 
z
" id="DejaVuSans-66"/>
       </defs>
       <use xlink:href="#DejaVuSans-45"/>
       <use x="39.708984" xlink:href="#DejaVuSans-71"/>
       <use x="117.199219" xlink:href="#DejaVuSans-43"/>
       <use x="200.988281" xlink:href="#DejaVuSans-66"/>
      </g>
     </g>
    </g>
    <g id="xtick_7">
     <g id="line2d_7">
      <path clip-path="url(#pfab5671d4e)" d="M 92.812915 133.751434 
L 92.812915 22.291906 
" style="fill:none;stroke:#cccccc;stroke-dasharray:1,1.65;stroke-dashoffset:0;"/>
     </g>
     <g id="text_7">
      <!-- +B -->
      <g style="fill:#262626;" transform="translate(94.937634 152.486715)rotate(-90)scale(0.077 -0.077)">
       <use xlink:href="#DejaVuSans-43"/>
       <use x="83.789062" xlink:href="#DejaVuSans-66"/>
      </g>
     </g>
    </g>
    <g id="xtick_8">
     <g id="line2d_8">
      <path clip-path="url(#pfab5671d4e)" d="M 100.766717 133.751434 
L 100.766717 22.291906 
" style="fill:none;stroke:#cccccc;stroke-dasharray:1,1.65;stroke-dashoffset:0;"/>
     </g>
     <g id="text_8">
      <!-- +B+G -->
      <g style="fill:#262626;" transform="translate(102.891436 164.905372)rotate(-90)scale(0.077 -0.077)">
       <use xlink:href="#DejaVuSans-43"/>
       <use x="83.789062" xlink:href="#DejaVuSans-66"/>
       <use x="152.392578" xlink:href="#DejaVuSans-43"/>
       <use x="236.181641" xlink:href="#DejaVuSans-71"/>
      </g>
     </g>
    </g>
    <g id="xtick_9">
     <g id="line2d_9">
      <path clip-path="url(#pfab5671d4e)" d="M 108.720519 133.751434 
L 108.720519 22.291906 
" style="fill:none;stroke:#cccccc;stroke-dasharray:1,1.65;stroke-dashoffset:0;"/>
     </g>
     <g id="text_9">
      <!-- +B+G+S -->
      <g style="fill:#262626;" transform="translate(110.845238 176.246028)rotate(-90)scale(0.077 -0.077)">
       <use xlink:href="#DejaVuSans-43"/>
       <use x="83.789062" xlink:href="#DejaVuSans-66"/>
       <use x="152.392578" xlink:href="#DejaVuSans-43"/>
       <use x="236.181641" xlink:href="#DejaVuSans-71"/>
       <use x="313.671875" xlink:href="#DejaVuSans-43"/>
       <use x="397.460938" xlink:href="#DejaVuSans-83"/>
      </g>
     </g>
    </g>
    <g id="xtick_10">
     <g id="line2d_10">
      <path clip-path="url(#pfab5671d4e)" d="M 116.674321 133.751434 
L 116.674321 22.291906 
" style="fill:none;stroke:#cccccc;stroke-dasharray:1,1.65;stroke-dashoffset:0;"/>
     </g>
     <g id="text_10">
      <!-- +B+G+S+ivs -->
      <g style="fill:#262626;" transform="translate(118.79904 193.4062)rotate(-90)scale(0.077 -0.077)">
       <use xlink:href="#DejaVuSans-43"/>
       <use x="83.789062" xlink:href="#DejaVuSans-66"/>
       <use x="152.392578" xlink:href="#DejaVuSans-43"/>
       <use x="236.181641" xlink:href="#DejaVuSans-71"/>
       <use x="313.671875" xlink:href="#DejaVuSans-43"/>
       <use x="397.460938" xlink:href="#DejaVuSans-83"/>
       <use x="460.9375" xlink:href="#DejaVuSans-43"/>
       <use x="544.726562" xlink:href="#DejaVuSans-105"/>
       <use x="572.509766" xlink:href="#DejaVuSans-118"/>
       <use x="631.689453" xlink:href="#DejaVuSans-115"/>
      </g>
     </g>
    </g>
    <g id="xtick_11">
     <g id="line2d_11">
      <path clip-path="url(#pfab5671d4e)" d="M 124.628123 133.751434 
L 124.628123 22.291906 
" style="fill:none;stroke:#cccccc;stroke-dasharray:1,1.65;stroke-dashoffset:0;"/>
     </g>
     <g id="text_11">
      <!-- -F-G -->
      <g style="fill:#262626;" transform="translate(126.752842 156.98159)rotate(-90)scale(0.077 -0.077)">
       <defs>
        <path d="M 9.8125 72.90625 
L 51.703125 72.90625 
L 51.703125 64.59375 
L 19.671875 64.59375 
L 19.671875 43.109375 
L 48.578125 43.109375 
L 48.578125 34.8125 
L 19.671875 34.8125 
L 19.671875 0 
L 9.8125 0 
z
" id="DejaVuSans-70"/>
       </defs>
       <use xlink:href="#DejaVuSans-45"/>
       <use x="36.083984" xlink:href="#DejaVuSans-70"/>
       <use x="93.603516" xlink:href="#DejaVuSans-45"/>
       <use x="133.3125" xlink:href="#DejaVuSans-71"/>
      </g>
     </g>
    </g>
    <g id="xtick_12">
     <g id="line2d_12">
      <path clip-path="url(#pfab5671d4e)" d="M 132.581925 133.751434 
L 132.581925 22.291906 
" style="fill:none;stroke:#cccccc;stroke-dasharray:1,1.65;stroke-dashoffset:0;"/>
     </g>
     <g id="text_12">
      <!-- -F -->
      <g style="fill:#262626;" transform="translate(134.706644 147.958153)rotate(-90)scale(0.077 -0.077)">
       <use xlink:href="#DejaVuSans-45"/>
       <use x="36.083984" xlink:href="#DejaVuSans-70"/>
      </g>
     </g>
    </g>
    <g id="xtick_13">
     <g id="line2d_13">
      <path clip-path="url(#pfab5671d4e)" d="M 140.535727 133.751434 
L 140.535727 22.291906 
" style="fill:none;stroke:#cccccc;stroke-dasharray:1,1.65;stroke-dashoffset:0;"/>
     </g>
     <g id="text_13">
      <!-- -F+G -->
      <g style="fill:#262626;" transform="translate(142.660446 160.376809)rotate(-90)scale(0.077 -0.077)">
       <use xlink:href="#DejaVuSans-45"/>
       <use x="36.083984" xlink:href="#DejaVuSans-70"/>
       <use x="93.603516" xlink:href="#DejaVuSans-43"/>
       <use x="177.392578" xlink:href="#DejaVuSans-71"/>
      </g>
     </g>
    </g>
    <g id="xtick_14">
     <g id="line2d_14">
      <path clip-path="url(#pfab5671d4e)" d="M 148.489529 133.751434 
L 148.489529 22.291906 
" style="fill:none;stroke:#cccccc;stroke-dasharray:1,1.65;stroke-dashoffset:0;"/>
     </g>
     <g id="text_14">
      <!-- -F+G+S -->
      <g style="fill:#262626;" transform="translate(150.614248 171.717465)rotate(-90)scale(0.077 -0.077)">
       <use xlink:href="#DejaVuSans-45"/>
       <use x="36.083984" xlink:href="#DejaVuSans-70"/>
       <use x="93.603516" xlink:href="#DejaVuSans-43"/>
       <use x="177.392578" xlink:href="#DejaVuSans-71"/>
       <use x="254.882812" xlink:href="#DejaVuSans-43"/>
       <use x="338.671875" xlink:href="#DejaVuSans-83"/>
      </g>
     </g>
    </g>
    <g id="xtick_15">
     <g id="line2d_15">
      <path clip-path="url(#pfab5671d4e)" d="M 156.443331 133.751434 
L 156.443331 22.291906 
" style="fill:none;stroke:#cccccc;stroke-dasharray:1,1.65;stroke-dashoffset:0;"/>
     </g>
     <g id="text_15">
      <!-- -F+G+S+ivs -->
      <g style="fill:#262626;" transform="translate(158.56805 188.877637)rotate(-90)scale(0.077 -0.077)">
       <use xlink:href="#DejaVuSans-45"/>
       <use x="36.083984" xlink:href="#DejaVuSans-70"/>
       <use x="93.603516" xlink:href="#DejaVuSans-43"/>
       <use x="177.392578" xlink:href="#DejaVuSans-71"/>
       <use x="254.882812" xlink:href="#DejaVuSans-43"/>
       <use x="338.671875" xlink:href="#DejaVuSans-83"/>
       <use x="402.148438" xlink:href="#DejaVuSans-43"/>
       <use x="485.9375" xlink:href="#DejaVuSans-105"/>
       <use x="513.720703" xlink:href="#DejaVuSans-118"/>
       <use x="572.900391" xlink:href="#DejaVuSans-115"/>
      </g>
     </g>
    </g>
    <g id="xtick_16">
     <g id="line2d_16">
      <path clip-path="url(#pfab5671d4e)" d="M 164.397133 133.751434 
L 164.397133 22.291906 
" style="fill:none;stroke:#cccccc;stroke-dasharray:1,1.65;stroke-dashoffset:0;"/>
     </g>
     <g id="text_16">
      <!-- -F-G+B -->
      <g style="fill:#262626;" transform="translate(166.521852 168.716872)rotate(-90)scale(0.077 -0.077)">
       <use xlink:href="#DejaVuSans-45"/>
       <use x="36.083984" xlink:href="#DejaVuSans-70"/>
       <use x="93.603516" xlink:href="#DejaVuSans-45"/>
       <use x="133.3125" xlink:href="#DejaVuSans-71"/>
       <use x="210.802734" xlink:href="#DejaVuSans-43"/>
       <use x="294.591797" xlink:href="#DejaVuSans-66"/>
      </g>
     </g>
    </g>
    <g id="xtick_17">
     <g id="line2d_17">
      <path clip-path="url(#pfab5671d4e)" d="M 172.350935 133.751434 
L 172.350935 22.291906 
" style="fill:none;stroke:#cccccc;stroke-dasharray:1,1.65;stroke-dashoffset:0;"/>
     </g>
     <g id="text_17">
      <!-- -F+B -->
      <g style="fill:#262626;" transform="translate(174.475654 159.693434)rotate(-90)scale(0.077 -0.077)">
       <use xlink:href="#DejaVuSans-45"/>
       <use x="36.083984" xlink:href="#DejaVuSans-70"/>
       <use x="93.603516" xlink:href="#DejaVuSans-43"/>
       <use x="177.392578" xlink:href="#DejaVuSans-66"/>
      </g>
     </g>
    </g>
    <g id="xtick_18">
     <g id="line2d_18">
      <path clip-path="url(#pfab5671d4e)" d="M 180.304737 133.751434 
L 180.304737 22.291906 
" style="fill:none;stroke:#cccccc;stroke-dasharray:1,1.65;stroke-dashoffset:0;"/>
     </g>
     <g id="text_18">
      <!-- -F+B+G -->
      <g style="fill:#262626;" transform="translate(182.429456 172.11209)rotate(-90)scale(0.077 -0.077)">
       <use xlink:href="#DejaVuSans-45"/>
       <use x="36.083984" xlink:href="#DejaVuSans-70"/>
       <use x="93.603516" xlink:href="#DejaVuSans-43"/>
       <use x="177.392578" xlink:href="#DejaVuSans-66"/>
       <use x="245.996094" xlink:href="#DejaVuSans-43"/>
       <use x="329.785156" xlink:href="#DejaVuSans-71"/>
      </g>
     </g>
    </g>
    <g id="xtick_19">
     <g id="line2d_19">
      <path clip-path="url(#pfab5671d4e)" d="M 188.258539 133.751434 
L 188.258539 22.291906 
" style="fill:none;stroke:#cccccc;stroke-dasharray:1,1.65;stroke-dashoffset:0;"/>
     </g>
     <g id="text_19">
      <!-- -F+B+G+S -->
      <g style="fill:#262626;" transform="translate(190.383258 183.452747)rotate(-90)scale(0.077 -0.077)">
       <use xlink:href="#DejaVuSans-45"/>
       <use x="36.083984" xlink:href="#DejaVuSans-70"/>
       <use x="93.603516" xlink:href="#DejaVuSans-43"/>
       <use x="177.392578" xlink:href="#DejaVuSans-66"/>
       <use x="245.996094" xlink:href="#DejaVuSans-43"/>
       <use x="329.785156" xlink:href="#DejaVuSans-71"/>
       <use x="407.275391" xlink:href="#DejaVuSans-43"/>
       <use x="491.064453" xlink:href="#DejaVuSans-83"/>
      </g>
     </g>
    </g>
    <g id="xtick_20">
     <g id="line2d_20">
      <path clip-path="url(#pfab5671d4e)" d="M 196.212341 133.751434 
L 196.212341 22.291906 
" style="fill:none;stroke:#cccccc;stroke-dasharray:1,1.65;stroke-dashoffset:0;"/>
     </g>
     <g id="text_20">
      <!-- -F+B+G+S+ivs -->
      <g style="fill:#262626;" transform="translate(198.33706 200.612919)rotate(-90)scale(0.077 -0.077)">
       <use xlink:href="#DejaVuSans-45"/>
       <use x="36.083984" xlink:href="#DejaVuSans-70"/>
       <use x="93.603516" xlink:href="#DejaVuSans-43"/>
       <use x="177.392578" xlink:href="#DejaVuSans-66"/>
       <use x="245.996094" xlink:href="#DejaVuSans-43"/>
       <use x="329.785156" xlink:href="#DejaVuSans-71"/>
       <use x="407.275391" xlink:href="#DejaVuSans-43"/>
       <use x="491.064453" xlink:href="#DejaVuSans-83"/>
       <use x="554.541016" xlink:href="#DejaVuSans-43"/>
       <use x="638.330078" xlink:href="#DejaVuSans-105"/>
       <use x="666.113281" xlink:href="#DejaVuSans-118"/>
       <use x="725.292969" xlink:href="#DejaVuSans-115"/>
      </g>
     </g>
    </g>
    <g id="text_21">
     <!-- Mixtures -->
     <g style="fill:#262626;" transform="translate(102.662097 210.995606)scale(0.084 -0.084)">
      <defs>
       <path d="M 9.8125 72.90625 
L 24.515625 72.90625 
L 43.109375 23.296875 
L 61.8125 72.90625 
L 76.515625 72.90625 
L 76.515625 0 
L 66.890625 0 
L 66.890625 64.015625 
L 48.09375 14.015625 
L 38.1875 14.015625 
L 19.390625 64.015625 
L 19.390625 0 
L 9.8125 0 
z
" id="DejaVuSans-77"/>
       <path d="M 54.890625 54.6875 
L 35.109375 28.078125 
L 55.90625 0 
L 45.3125 0 
L 29.390625 21.484375 
L 13.484375 0 
L 2.875 0 
L 24.125 28.609375 
L 4.6875 54.6875 
L 15.28125 54.6875 
L 29.78125 35.203125 
L 44.28125 54.6875 
z
" id="DejaVuSans-120"/>
       <path d="M 18.3125 70.21875 
L 18.3125 54.6875 
L 36.8125 54.6875 
L 36.8125 47.703125 
L 18.3125 47.703125 
L 18.3125 18.015625 
Q 18.3125 11.328125 20.140625 9.421875 
Q 21.96875 7.515625 27.59375 7.515625 
L 36.8125 7.515625 
L 36.8125 0 
L 27.59375 0 
Q 17.1875 0 13.234375 3.875 
Q 9.28125 7.765625 9.28125 18.015625 
L 9.28125 47.703125 
L 2.6875 47.703125 
L 2.6875 54.6875 
L 9.28125 54.6875 
L 9.28125 70.21875 
z
" id="DejaVuSans-116"/>
       <path d="M 8.5 21.578125 
L 8.5 54.6875 
L 17.484375 54.6875 
L 17.484375 21.921875 
Q 17.484375 14.15625 20.5 10.265625 
Q 23.53125 6.390625 29.59375 6.390625 
Q 36.859375 6.390625 41.078125 11.03125 
Q 45.3125 15.671875 45.3125 23.6875 
L 45.3125 54.6875 
L 54.296875 54.6875 
L 54.296875 0 
L 45.3125 0 
L 45.3125 8.40625 
Q 42.046875 3.421875 37.71875 1 
Q 33.40625 -1.421875 27.6875 -1.421875 
Q 18.265625 -1.421875 13.375 4.4375 
Q 8.5 10.296875 8.5 21.578125 
z
M 31.109375 56 
z
" id="DejaVuSans-117"/>
       <path d="M 41.109375 46.296875 
Q 39.59375 47.171875 37.8125 47.578125 
Q 36.03125 48 33.890625 48 
Q 26.265625 48 22.1875 43.046875 
Q 18.109375 38.09375 18.109375 28.8125 
L 18.109375 0 
L 9.078125 0 
L 9.078125 54.6875 
L 18.109375 54.6875 
L 18.109375 46.1875 
Q 20.953125 51.171875 25.484375 53.578125 
Q 30.03125 56 36.53125 56 
Q 37.453125 56 38.578125 55.875 
Q 39.703125 55.765625 41.0625 55.515625 
z
" id="DejaVuSans-114"/>
      </defs>
      <use xlink:href="#DejaVuSans-77"/>
      <use x="86.279297" xlink:href="#DejaVuSans-105"/>
      <use x="114.0625" xlink:href="#DejaVuSans-120"/>
      <use x="173.242188" xlink:href="#DejaVuSans-116"/>
      <use x="212.451172" xlink:href="#DejaVuSans-117"/>
      <use x="275.830078" xlink:href="#DejaVuSans-114"/>
      <use x="314.693359" xlink:href="#DejaVuSans-101"/>
      <use x="376.216797" xlink:href="#DejaVuSans-115"/>
     </g>
    </g>
   </g>
   <g id="matplotlib.axis_2">
    <g id="ytick_1">
     <g id="line2d_21">
      <path clip-path="url(#pfab5671d4e)" d="M 34.471778 133.751434 
L 206.830666 133.751434 
" style="fill:none;stroke:#cccccc;stroke-dasharray:1,1.65;stroke-dashoffset:0;"/>
     </g>
     <g id="text_22">
      <!-- 0 -->
      <g style="fill:#262626;" transform="translate(22.572653 136.676833)scale(0.077 -0.077)">
       <defs>
        <path d="M 31.78125 66.40625 
Q 24.171875 66.40625 20.328125 58.90625 
Q 16.5 51.421875 16.5 36.375 
Q 16.5 21.390625 20.328125 13.890625 
Q 24.171875 6.390625 31.78125 6.390625 
Q 39.453125 6.390625 43.28125 13.890625 
Q 47.125 21.390625 47.125 36.375 
Q 47.125 51.421875 43.28125 58.90625 
Q 39.453125 66.40625 31.78125 66.40625 
z
M 31.78125 74.21875 
Q 44.046875 74.21875 50.515625 64.515625 
Q 56.984375 54.828125 56.984375 36.375 
Q 56.984375 17.96875 50.515625 8.265625 
Q 44.046875 -1.421875 31.78125 -1.421875 
Q 19.53125 -1.421875 13.0625 8.265625 
Q 6.59375 17.96875 6.59375 36.375 
Q 6.59375 54.828125 13.0625 64.515625 
Q 19.53125 74.21875 31.78125 74.21875 
z
" id="DejaVuSans-48"/>
       </defs>
       <use xlink:href="#DejaVuSans-48"/>
      </g>
     </g>
    </g>
    <g id="ytick_2">
     <g id="line2d_22">
      <path clip-path="url(#pfab5671d4e)" d="M 34.471778 115.596064 
L 206.830666 115.596064 
" style="fill:none;stroke:#cccccc;stroke-dasharray:1,1.65;stroke-dashoffset:0;"/>
     </g>
     <g id="text_23">
      <!-- 5 -->
      <g style="fill:#262626;" transform="translate(22.572653 118.521463)scale(0.077 -0.077)">
       <defs>
        <path d="M 10.796875 72.90625 
L 49.515625 72.90625 
L 49.515625 64.59375 
L 19.828125 64.59375 
L 19.828125 46.734375 
Q 21.96875 47.46875 24.109375 47.828125 
Q 26.265625 48.1875 28.421875 48.1875 
Q 40.625 48.1875 47.75 41.5 
Q 54.890625 34.8125 54.890625 23.390625 
Q 54.890625 11.625 47.5625 5.09375 
Q 40.234375 -1.421875 26.90625 -1.421875 
Q 22.3125 -1.421875 17.546875 -0.640625 
Q 12.796875 0.140625 7.71875 1.703125 
L 7.71875 11.625 
Q 12.109375 9.234375 16.796875 8.0625 
Q 21.484375 6.890625 26.703125 6.890625 
Q 35.15625 6.890625 40.078125 11.328125 
Q 45.015625 15.765625 45.015625 23.390625 
Q 45.015625 31 40.078125 35.4375 
Q 35.15625 39.890625 26.703125 39.890625 
Q 22.75 39.890625 18.8125 39.015625 
Q 14.890625 38.140625 10.796875 36.28125 
z
" id="DejaVuSans-53"/>
       </defs>
       <use xlink:href="#DejaVuSans-53"/>
      </g>
     </g>
    </g>
    <g id="ytick_3">
     <g id="line2d_23">
      <path clip-path="url(#pfab5671d4e)" d="M 34.471778 97.440694 
L 206.830666 97.440694 
" style="fill:none;stroke:#cccccc;stroke-dasharray:1,1.65;stroke-dashoffset:0;"/>
     </g>
     <g id="text_24">
      <!-- 10 -->
      <g style="fill:#262626;" transform="translate(17.673528 100.366092)scale(0.077 -0.077)">
       <defs>
        <path d="M 12.40625 8.296875 
L 28.515625 8.296875 
L 28.515625 63.921875 
L 10.984375 60.40625 
L 10.984375 69.390625 
L 28.421875 72.90625 
L 38.28125 72.90625 
L 38.28125 8.296875 
L 54.390625 8.296875 
L 54.390625 0 
L 12.40625 0 
z
" id="DejaVuSans-49"/>
       </defs>
       <use xlink:href="#DejaVuSans-49"/>
       <use x="63.623047" xlink:href="#DejaVuSans-48"/>
      </g>
     </g>
    </g>
    <g id="ytick_4">
     <g id="line2d_24">
      <path clip-path="url(#pfab5671d4e)" d="M 34.471778 79.285324 
L 206.830666 79.285324 
" style="fill:none;stroke:#cccccc;stroke-dasharray:1,1.65;stroke-dashoffset:0;"/>
     </g>
     <g id="text_25">
      <!-- 15 -->
      <g style="fill:#262626;" transform="translate(17.673528 82.210722)scale(0.077 -0.077)">
       <use xlink:href="#DejaVuSans-49"/>
       <use x="63.623047" xlink:href="#DejaVuSans-53"/>
      </g>
     </g>
    </g>
    <g id="ytick_5">
     <g id="line2d_25">
      <path clip-path="url(#pfab5671d4e)" d="M 34.471778 61.129954 
L 206.830666 61.129954 
" style="fill:none;stroke:#cccccc;stroke-dasharray:1,1.65;stroke-dashoffset:0;"/>
     </g>
     <g id="text_26">
      <!-- 20 -->
      <g style="fill:#262626;" transform="translate(17.673528 64.055352)scale(0.077 -0.077)">
       <defs>
        <path d="M 19.1875 8.296875 
L 53.609375 8.296875 
L 53.609375 0 
L 7.328125 0 
L 7.328125 8.296875 
Q 12.9375 14.109375 22.625 23.890625 
Q 32.328125 33.6875 34.8125 36.53125 
Q 39.546875 41.84375 41.421875 45.53125 
Q 43.3125 49.21875 43.3125 52.78125 
Q 43.3125 58.59375 39.234375 62.25 
Q 35.15625 65.921875 28.609375 65.921875 
Q 23.96875 65.921875 18.8125 64.3125 
Q 13.671875 62.703125 7.8125 59.421875 
L 7.8125 69.390625 
Q 13.765625 71.78125 18.9375 73 
Q 24.125 74.21875 28.421875 74.21875 
Q 39.75 74.21875 46.484375 68.546875 
Q 53.21875 62.890625 53.21875 53.421875 
Q 53.21875 48.921875 51.53125 44.890625 
Q 49.859375 40.875 45.40625 35.40625 
Q 44.1875 33.984375 37.640625 27.21875 
Q 31.109375 20.453125 19.1875 8.296875 
z
" id="DejaVuSans-50"/>
       </defs>
       <use xlink:href="#DejaVuSans-50"/>
       <use x="63.623047" xlink:href="#DejaVuSans-48"/>
      </g>
     </g>
    </g>
    <g id="ytick_6">
     <g id="line2d_26">
      <path clip-path="url(#pfab5671d4e)" d="M 34.471778 42.974584 
L 206.830666 42.974584 
" style="fill:none;stroke:#cccccc;stroke-dasharray:1,1.65;stroke-dashoffset:0;"/>
     </g>
     <g id="text_27">
      <!-- 25 -->
      <g style="fill:#262626;" transform="translate(17.673528 45.899982)scale(0.077 -0.077)">
       <use xlink:href="#DejaVuSans-50"/>
       <use x="63.623047" xlink:href="#DejaVuSans-53"/>
      </g>
     </g>
    </g>
    <g id="ytick_7">
     <g id="line2d_27">
      <path clip-path="url(#pfab5671d4e)" d="M 34.471778 24.819214 
L 206.830666 24.819214 
" style="fill:none;stroke:#cccccc;stroke-dasharray:1,1.65;stroke-dashoffset:0;"/>
     </g>
     <g id="text_28">
      <!-- 30 -->
      <g style="fill:#262626;" transform="translate(17.673528 27.744612)scale(0.077 -0.077)">
       <defs>
        <path d="M 40.578125 39.3125 
Q 47.65625 37.796875 51.625 33 
Q 55.609375 28.21875 55.609375 21.1875 
Q 55.609375 10.40625 48.1875 4.484375 
Q 40.765625 -1.421875 27.09375 -1.421875 
Q 22.515625 -1.421875 17.65625 -0.515625 
Q 12.796875 0.390625 7.625 2.203125 
L 7.625 11.71875 
Q 11.71875 9.328125 16.59375 8.109375 
Q 21.484375 6.890625 26.8125 6.890625 
Q 36.078125 6.890625 40.9375 10.546875 
Q 45.796875 14.203125 45.796875 21.1875 
Q 45.796875 27.640625 41.28125 31.265625 
Q 36.765625 34.90625 28.71875 34.90625 
L 20.21875 34.90625 
L 20.21875 43.015625 
L 29.109375 43.015625 
Q 36.375 43.015625 40.234375 45.921875 
Q 44.09375 48.828125 44.09375 54.296875 
Q 44.09375 59.90625 40.109375 62.90625 
Q 36.140625 65.921875 28.71875 65.921875 
Q 24.65625 65.921875 20.015625 65.03125 
Q 15.375 64.15625 9.8125 62.3125 
L 9.8125 71.09375 
Q 15.4375 72.65625 20.34375 73.4375 
Q 25.25 74.21875 29.59375 74.21875 
Q 40.828125 74.21875 47.359375 69.109375 
Q 53.90625 64.015625 53.90625 55.328125 
Q 53.90625 49.265625 50.4375 45.09375 
Q 46.96875 40.921875 40.578125 39.3125 
z
" id="DejaVuSans-51"/>
       </defs>
       <use xlink:href="#DejaVuSans-51"/>
       <use x="63.623047" xlink:href="#DejaVuSans-48"/>
      </g>
     </g>
    </g>
   </g>
   <g id="patch_3">
    <path clip-path="url(#pfab5671d4e)" d="M 42.306273 133.751434 
L 45.090103 133.751434 
L 45.090103 130.958684 
L 42.306273 130.958684 
z
" style="fill:#0173b2;stroke:#ffffff;stroke-linejoin:miter;"/>
   </g>
   <g id="patch_4">
    <path clip-path="url(#pfab5671d4e)" d="M 50.260075 133.751434 
L 53.043905 133.751434 
L 53.043905 128.263205 
L 50.260075 128.263205 
z
" style="fill:#0173b2;stroke:#ffffff;stroke-linejoin:miter;"/>
   </g>
   <g id="patch_5">
    <path clip-path="url(#pfab5671d4e)" d="M 58.213877 133.751434 
L 60.997707 133.751434 
L 60.997707 129.392833 
L 58.213877 129.392833 
z
" style="fill:#0173b2;stroke:#ffffff;stroke-linejoin:miter;"/>
   </g>
   <g id="patch_6">
    <path clip-path="url(#pfab5671d4e)" d="M 66.167679 133.751434 
L 68.951509 133.751434 
L 68.951509 130.941182 
L 66.167679 130.941182 
z
" style="fill:#0173b2;stroke:#ffffff;stroke-linejoin:miter;"/>
   </g>
   <g id="patch_7">
    <path clip-path="url(#pfab5671d4e)" d="M 74.121481 133.751434 
L 76.905311 133.751434 
L 76.905311 128.263336 
L 74.121481 128.263336 
z
" style="fill:#0173b2;stroke:#ffffff;stroke-linejoin:miter;"/>
   </g>
   <g id="patch_8">
    <path clip-path="url(#pfab5671d4e)" d="M 82.075283 133.751434 
L 84.859113 133.751434 
L 84.859113 123.06666 
L 82.075283 123.06666 
z
" style="fill:#0173b2;stroke:#ffffff;stroke-linejoin:miter;"/>
   </g>
   <g id="patch_9">
    <path clip-path="url(#pfab5671d4e)" d="M 90.029085 133.751434 
L 92.812915 133.751434 
L 92.812915 126.881844 
L 90.029085 126.881844 
z
" style="fill:#0173b2;stroke:#ffffff;stroke-linejoin:miter;"/>
   </g>
   <g id="patch_10">
    <path clip-path="url(#pfab5671d4e)" d="M 97.982886 133.751434 
L 100.766717 133.751434 
L 100.766717 129.002902 
L 97.982886 129.002902 
z
" style="fill:#0173b2;stroke:#ffffff;stroke-linejoin:miter;"/>
   </g>
   <g id="patch_11">
    <path clip-path="url(#pfab5671d4e)" d="M 105.936688 133.751434 
L 108.720519 133.751434 
L 108.720519 128.888805 
L 105.936688 128.888805 
z
" style="fill:#0173b2;stroke:#ffffff;stroke-linejoin:miter;"/>
   </g>
   <g id="patch_12">
    <path clip-path="url(#pfab5671d4e)" d="M 113.89049 133.751434 
L 116.674321 133.751434 
L 116.674321 125.925393 
L 113.89049 125.925393 
z
" style="fill:#0173b2;stroke:#ffffff;stroke-linejoin:miter;"/>
   </g>
   <g id="patch_13">
    <path clip-path="url(#pfab5671d4e)" d="M 121.844292 133.751434 
L 124.628123 133.751434 
L 124.628123 69.69294 
L 121.844292 69.69294 
z
" style="fill:#0173b2;stroke:#ffffff;stroke-linejoin:miter;"/>
   </g>
   <g id="patch_14">
    <path clip-path="url(#pfab5671d4e)" d="M 129.798094 133.751434 
L 132.581925 133.751434 
L 132.581925 51.298116 
L 129.798094 51.298116 
z
" style="fill:#0173b2;stroke:#ffffff;stroke-linejoin:miter;"/>
   </g>
   <g id="patch_15">
    <path clip-path="url(#pfab5671d4e)" d="M 137.751896 133.751434 
L 140.535727 133.751434 
L 140.535727 32.956386 
L 137.751896 32.956386 
z
" style="fill:#0173b2;stroke:#ffffff;stroke-linejoin:miter;"/>
   </g>
   <g id="patch_16">
    <path clip-path="url(#pfab5671d4e)" d="M 145.705698 133.751434 
L 148.489529 133.751434 
L 148.489529 35.148558 
L 145.705698 35.148558 
z
" style="fill:#0173b2;stroke:#ffffff;stroke-linejoin:miter;"/>
   </g>
   <g id="patch_17">
    <path clip-path="url(#pfab5671d4e)" d="M 153.6595 133.751434 
L 156.443331 133.751434 
L 156.443331 44.237992 
L 153.6595 44.237992 
z
" style="fill:#0173b2;stroke:#ffffff;stroke-linejoin:miter;"/>
   </g>
   <g id="patch_18">
    <path clip-path="url(#pfab5671d4e)" d="M 161.613302 133.751434 
L 164.397133 133.751434 
L 164.397133 57.52375 
L 161.613302 57.52375 
z
" style="fill:#0173b2;stroke:#ffffff;stroke-linejoin:miter;"/>
   </g>
   <g id="patch_19">
    <path clip-path="url(#pfab5671d4e)" d="M 169.567104 133.751434 
L 172.350935 133.751434 
L 172.350935 33.068422 
L 169.567104 33.068422 
z
" style="fill:#0173b2;stroke:#ffffff;stroke-linejoin:miter;"/>
   </g>
   <g id="patch_20">
    <path clip-path="url(#pfab5671d4e)" d="M 177.520906 133.751434 
L 180.304737 133.751434 
L 180.304737 29.82384 
L 177.520906 29.82384 
z
" style="fill:#0173b2;stroke:#ffffff;stroke-linejoin:miter;"/>
   </g>
   <g id="patch_21">
    <path clip-path="url(#pfab5671d4e)" d="M 185.474708 133.751434 
L 188.258539 133.751434 
L 188.258539 37.199816 
L 185.474708 37.199816 
z
" style="fill:#0173b2;stroke:#ffffff;stroke-linejoin:miter;"/>
   </g>
   <g id="patch_22">
    <path clip-path="url(#pfab5671d4e)" d="M 193.42851 133.751434 
L 196.212341 133.751434 
L 196.212341 55.884743 
L 193.42851 55.884743 
z
" style="fill:#0173b2;stroke:#ffffff;stroke-linejoin:miter;"/>
   </g>
   <g id="patch_23">
    <path clip-path="url(#pfab5671d4e)" d="M 45.090103 133.751434 
L 47.873934 133.751434 
L 47.873934 130.324509 
L 45.090103 130.324509 
z
" style="fill:#de8f05;stroke:#ffffff;stroke-linejoin:miter;"/>
   </g>
   <g id="patch_24">
    <path clip-path="url(#pfab5671d4e)" d="M 53.043905 133.751434 
L 55.827736 133.751434 
L 55.827736 129.14052 
L 53.043905 129.14052 
z
" style="fill:#de8f05;stroke:#ffffff;stroke-linejoin:miter;"/>
   </g>
   <g id="patch_25">
    <path clip-path="url(#pfab5671d4e)" d="M 60.997707 133.751434 
L 63.781538 133.751434 
L 63.781538 132.405672 
L 60.997707 132.405672 
z
" style="fill:#de8f05;stroke:#ffffff;stroke-linejoin:miter;"/>
   </g>
   <g id="patch_26">
    <path clip-path="url(#pfab5671d4e)" d="M 68.951509 133.751434 
L 71.73534 133.751434 
L 71.73534 130.288572 
L 68.951509 130.288572 
z
" style="fill:#de8f05;stroke:#ffffff;stroke-linejoin:miter;"/>
   </g>
   <g id="patch_27">
    <path clip-path="url(#pfab5671d4e)" d="M 76.905311 133.751434 
L 79.689142 133.751434 
L 79.689142 130.324395 
L 76.905311 130.324395 
z
" style="fill:#de8f05;stroke:#ffffff;stroke-linejoin:miter;"/>
   </g>
   <g id="patch_28">
    <path clip-path="url(#pfab5671d4e)" d="M 84.859113 133.751434 
L 87.642944 133.751434 
L 87.642944 131.364977 
L 84.859113 131.364977 
z
" style="fill:#de8f05;stroke:#ffffff;stroke-linejoin:miter;"/>
   </g>
   <g id="patch_29">
    <path clip-path="url(#pfab5671d4e)" d="M 92.812915 133.751434 
L 95.596746 133.751434 
L 95.596746 127.81301 
L 92.812915 127.81301 
z
" style="fill:#de8f05;stroke:#ffffff;stroke-linejoin:miter;"/>
   </g>
   <g id="patch_30">
    <path clip-path="url(#pfab5671d4e)" d="M 100.766717 133.751434 
L 103.550548 133.751434 
L 103.550548 130.432093 
L 100.766717 130.432093 
z
" style="fill:#de8f05;stroke:#ffffff;stroke-linejoin:miter;"/>
   </g>
   <g id="patch_31">
    <path clip-path="url(#pfab5671d4e)" d="M 108.720519 133.751434 
L 111.50435 133.751434 
L 111.50435 130.324395 
L 108.720519 130.324395 
z
" style="fill:#de8f05;stroke:#ffffff;stroke-linejoin:miter;"/>
   </g>
   <g id="patch_32">
    <path clip-path="url(#pfab5671d4e)" d="M 116.674321 133.751434 
L 119.458152 133.751434 
L 119.458152 129.355574 
L 116.674321 129.355574 
z
" style="fill:#de8f05;stroke:#ffffff;stroke-linejoin:miter;"/>
   </g>
   <g id="patch_33">
    <path clip-path="url(#pfab5671d4e)" d="M 124.628123 133.751434 
L 127.411954 133.751434 
L 127.411954 68.324921 
L 124.628123 68.324921 
z
" style="fill:#de8f05;stroke:#ffffff;stroke-linejoin:miter;"/>
   </g>
   <g id="patch_34">
    <path clip-path="url(#pfab5671d4e)" d="M 132.581925 133.751434 
L 135.365756 133.751434 
L 135.365756 54.294355 
L 132.581925 54.294355 
z
" style="fill:#de8f05;stroke:#ffffff;stroke-linejoin:miter;"/>
   </g>
   <g id="patch_35">
    <path clip-path="url(#pfab5671d4e)" d="M 140.535727 133.751434 
L 143.319558 133.751434 
L 143.319558 36.461963 
L 140.535727 36.461963 
z
" style="fill:#de8f05;stroke:#ffffff;stroke-linejoin:miter;"/>
   </g>
   <g id="patch_36">
    <path clip-path="url(#pfab5671d4e)" d="M 148.489529 133.751434 
L 151.27336 133.751434 
L 151.27336 27.599502 
L 148.489529 27.599502 
z
" style="fill:#de8f05;stroke:#ffffff;stroke-linejoin:miter;"/>
   </g>
   <g id="patch_37">
    <path clip-path="url(#pfab5671d4e)" d="M 156.443331 133.751434 
L 159.227162 133.751434 
L 159.227162 46.077737 
L 156.443331 46.077737 
z
" style="fill:#de8f05;stroke:#ffffff;stroke-linejoin:miter;"/>
   </g>
   <g id="patch_38">
    <path clip-path="url(#pfab5671d4e)" d="M 164.397133 133.751434 
L 167.180964 133.751434 
L 167.180964 57.954246 
L 164.397133 57.954246 
z
" style="fill:#de8f05;stroke:#ffffff;stroke-linejoin:miter;"/>
   </g>
   <g id="patch_39">
    <path clip-path="url(#pfab5671d4e)" d="M 172.350935 133.751434 
L 175.134766 133.751434 
L 175.134766 31.79754 
L 172.350935 31.79754 
z
" style="fill:#de8f05;stroke:#ffffff;stroke-linejoin:miter;"/>
   </g>
   <g id="patch_40">
    <path clip-path="url(#pfab5671d4e)" d="M 180.304737 133.751434 
L 183.088568 133.751434 
L 183.088568 29.82396 
L 180.304737 29.82396 
z
" style="fill:#de8f05;stroke:#ffffff;stroke-linejoin:miter;"/>
   </g>
   <g id="patch_41">
    <path clip-path="url(#pfab5671d4e)" d="M 188.258539 133.751434 
L 191.04237 133.751434 
L 191.04237 36.174922 
L 188.258539 36.174922 
z
" style="fill:#de8f05;stroke:#ffffff;stroke-linejoin:miter;"/>
   </g>
   <g id="patch_42">
    <path clip-path="url(#pfab5671d4e)" d="M 196.212341 133.751434 
L 198.996172 133.751434 
L 198.996172 57.164769 
L 196.212341 57.164769 
z
" style="fill:#de8f05;stroke:#ffffff;stroke-linejoin:miter;"/>
   </g>
   <g id="patch_43">
    <path d="M 34.471778 133.751434 
L 34.471778 22.291906 
" style="fill:none;stroke:#cccccc;stroke-linecap:square;stroke-linejoin:miter;stroke-width:0.6;"/>
   </g>
   <g id="patch_44">
    <path d="M 206.830666 133.751434 
L 206.830666 22.291906 
" style="fill:none;stroke:#cccccc;stroke-linecap:square;stroke-linejoin:miter;stroke-width:0.6;"/>
   </g>
   <g id="patch_45">
    <path d="M 34.471778 133.751434 
L 206.830666 133.751434 
" style="fill:none;stroke:#cccccc;stroke-linecap:square;stroke-linejoin:miter;stroke-width:0.6;"/>
   </g>
   <g id="patch_46">
    <path d="M 34.471778 22.291906 
L 206.830666 22.291906 
" style="fill:none;stroke:#cccccc;stroke-linecap:square;stroke-linejoin:miter;stroke-width:0.6;"/>
   </g>
   <g id="text_29">
    <!-- a -->
    <g style="fill:#262626;" transform="translate(0 12.1575)scale(0.16 -0.16)">
     <defs>
      <path d="M 32.90625 24.609375 
Q 27.4375 24.609375 24.671875 22.75 
Q 21.921875 20.90625 21.921875 17.28125 
Q 21.921875 13.96875 24.140625 12.078125 
Q 26.375 10.203125 30.328125 10.203125 
Q 35.25 10.203125 38.625 13.734375 
Q 42 17.28125 42 22.609375 
L 42 24.609375 
z
M 59.625 31.203125 
L 59.625 0 
L 42 0 
L 42 8.109375 
Q 38.484375 3.125 34.078125 0.84375 
Q 29.6875 -1.421875 23.390625 -1.421875 
Q 14.890625 -1.421875 9.59375 3.53125 
Q 4.296875 8.5 4.296875 16.40625 
Q 4.296875 26.03125 10.90625 30.515625 
Q 17.53125 35.015625 31.6875 35.015625 
L 42 35.015625 
L 42 36.375 
Q 42 40.53125 38.71875 42.453125 
Q 35.453125 44.390625 28.515625 44.390625 
Q 22.90625 44.390625 18.0625 43.265625 
Q 13.234375 42.140625 9.078125 39.890625 
L 9.078125 53.21875 
Q 14.703125 54.59375 20.359375 55.296875 
Q 26.03125 56 31.6875 56 
Q 46.484375 56 53.046875 50.171875 
Q 59.625 44.34375 59.625 31.203125 
z
" id="DejaVuSans-Bold-97"/>
     </defs>
     <use xlink:href="#DejaVuSans-Bold-97"/>
    </g>
   </g>
   <g id="text_30">
    <!-- Original and Inferred ADCC (Fig. 3A) -->
    <g style="fill:#262626;" transform="translate(45.066316 16.291906)scale(0.084 -0.084)">
     <defs>
      <path d="M 39.40625 66.21875 
Q 28.65625 66.21875 22.328125 58.203125 
Q 16.015625 50.203125 16.015625 36.375 
Q 16.015625 22.609375 22.328125 14.59375 
Q 28.65625 6.59375 39.40625 6.59375 
Q 50.140625 6.59375 56.421875 14.59375 
Q 62.703125 22.609375 62.703125 36.375 
Q 62.703125 50.203125 56.421875 58.203125 
Q 50.140625 66.21875 39.40625 66.21875 
z
M 39.40625 74.21875 
Q 54.734375 74.21875 63.90625 63.9375 
Q 73.09375 53.65625 73.09375 36.375 
Q 73.09375 19.140625 63.90625 8.859375 
Q 54.734375 -1.421875 39.40625 -1.421875 
Q 24.03125 -1.421875 14.8125 8.828125 
Q 5.609375 19.09375 5.609375 36.375 
Q 5.609375 53.65625 14.8125 63.9375 
Q 24.03125 74.21875 39.40625 74.21875 
z
" id="DejaVuSans-79"/>
      <path d="M 45.40625 27.984375 
Q 45.40625 37.75 41.375 43.109375 
Q 37.359375 48.484375 30.078125 48.484375 
Q 22.859375 48.484375 18.828125 43.109375 
Q 14.796875 37.75 14.796875 27.984375 
Q 14.796875 18.265625 18.828125 12.890625 
Q 22.859375 7.515625 30.078125 7.515625 
Q 37.359375 7.515625 41.375 12.890625 
Q 45.40625 18.265625 45.40625 27.984375 
z
M 54.390625 6.78125 
Q 54.390625 -7.171875 48.1875 -13.984375 
Q 42 -20.796875 29.203125 -20.796875 
Q 24.46875 -20.796875 20.265625 -20.09375 
Q 16.0625 -19.390625 12.109375 -17.921875 
L 12.109375 -9.1875 
Q 16.0625 -11.328125 19.921875 -12.34375 
Q 23.78125 -13.375 27.78125 -13.375 
Q 36.625 -13.375 41.015625 -8.765625 
Q 45.40625 -4.15625 45.40625 5.171875 
L 45.40625 9.625 
Q 42.625 4.78125 38.28125 2.390625 
Q 33.9375 0 27.875 0 
Q 17.828125 0 11.671875 7.65625 
Q 5.515625 15.328125 5.515625 27.984375 
Q 5.515625 40.671875 11.671875 48.328125 
Q 17.828125 56 27.875 56 
Q 33.9375 56 38.28125 53.609375 
Q 42.625 51.21875 45.40625 46.390625 
L 45.40625 54.6875 
L 54.390625 54.6875 
z
" id="DejaVuSans-103"/>
      <path d="M 34.28125 27.484375 
Q 23.390625 27.484375 19.1875 25 
Q 14.984375 22.515625 14.984375 16.5 
Q 14.984375 11.71875 18.140625 8.90625 
Q 21.296875 6.109375 26.703125 6.109375 
Q 34.1875 6.109375 38.703125 11.40625 
Q 43.21875 16.703125 43.21875 25.484375 
L 43.21875 27.484375 
z
M 52.203125 31.203125 
L 52.203125 0 
L 43.21875 0 
L 43.21875 8.296875 
Q 40.140625 3.328125 35.546875 0.953125 
Q 30.953125 -1.421875 24.3125 -1.421875 
Q 15.921875 -1.421875 10.953125 3.296875 
Q 6 8.015625 6 15.921875 
Q 6 25.140625 12.171875 29.828125 
Q 18.359375 34.515625 30.609375 34.515625 
L 43.21875 34.515625 
L 43.21875 35.40625 
Q 43.21875 41.609375 39.140625 45 
Q 35.0625 48.390625 27.6875 48.390625 
Q 23 48.390625 18.546875 47.265625 
Q 14.109375 46.140625 10.015625 43.890625 
L 10.015625 52.203125 
Q 14.9375 54.109375 19.578125 55.046875 
Q 24.21875 56 28.609375 56 
Q 40.484375 56 46.34375 49.84375 
Q 52.203125 43.703125 52.203125 31.203125 
z
" id="DejaVuSans-97"/>
      <path d="M 9.421875 75.984375 
L 18.40625 75.984375 
L 18.40625 0 
L 9.421875 0 
z
" id="DejaVuSans-108"/>
      <path id="DejaVuSans-32"/>
      <path d="M 9.8125 72.90625 
L 19.671875 72.90625 
L 19.671875 0 
L 9.8125 0 
z
" id="DejaVuSans-73"/>
      <path d="M 34.1875 63.1875 
L 20.796875 26.90625 
L 47.609375 26.90625 
z
M 28.609375 72.90625 
L 39.796875 72.90625 
L 67.578125 0 
L 57.328125 0 
L 50.6875 18.703125 
L 17.828125 18.703125 
L 11.1875 0 
L 0.78125 0 
z
" id="DejaVuSans-65"/>
      <path d="M 19.671875 64.796875 
L 19.671875 8.109375 
L 31.59375 8.109375 
Q 46.6875 8.109375 53.6875 14.9375 
Q 60.6875 21.78125 60.6875 36.53125 
Q 60.6875 51.171875 53.6875 57.984375 
Q 46.6875 64.796875 31.59375 64.796875 
z
M 9.8125 72.90625 
L 30.078125 72.90625 
Q 51.265625 72.90625 61.171875 64.09375 
Q 71.09375 55.28125 71.09375 36.53125 
Q 71.09375 17.671875 61.125 8.828125 
Q 51.171875 0 30.078125 0 
L 9.8125 0 
z
" id="DejaVuSans-68"/>
      <path d="M 64.40625 67.28125 
L 64.40625 56.890625 
Q 59.421875 61.53125 53.78125 63.8125 
Q 48.140625 66.109375 41.796875 66.109375 
Q 29.296875 66.109375 22.65625 58.46875 
Q 16.015625 50.828125 16.015625 36.375 
Q 16.015625 21.96875 22.65625 14.328125 
Q 29.296875 6.6875 41.796875 6.6875 
Q 48.140625 6.6875 53.78125 8.984375 
Q 59.421875 11.28125 64.40625 15.921875 
L 64.40625 5.609375 
Q 59.234375 2.09375 53.4375 0.328125 
Q 47.65625 -1.421875 41.21875 -1.421875 
Q 24.65625 -1.421875 15.125 8.703125 
Q 5.609375 18.84375 5.609375 36.375 
Q 5.609375 53.953125 15.125 64.078125 
Q 24.65625 74.21875 41.21875 74.21875 
Q 47.75 74.21875 53.53125 72.484375 
Q 59.328125 70.75 64.40625 67.28125 
z
" id="DejaVuSans-67"/>
      <path d="M 31 75.875 
Q 24.46875 64.65625 21.28125 53.65625 
Q 18.109375 42.671875 18.109375 31.390625 
Q 18.109375 20.125 21.3125 9.0625 
Q 24.515625 -2 31 -13.1875 
L 23.1875 -13.1875 
Q 15.875 -1.703125 12.234375 9.375 
Q 8.59375 20.453125 8.59375 31.390625 
Q 8.59375 42.28125 12.203125 53.3125 
Q 15.828125 64.359375 23.1875 75.875 
z
" id="DejaVuSans-40"/>
      <path d="M 10.6875 12.40625 
L 21 12.40625 
L 21 0 
L 10.6875 0 
z
" id="DejaVuSans-46"/>
      <path d="M 8.015625 75.875 
L 15.828125 75.875 
Q 23.140625 64.359375 26.78125 53.3125 
Q 30.421875 42.28125 30.421875 31.390625 
Q 30.421875 20.453125 26.78125 9.375 
Q 23.140625 -1.703125 15.828125 -13.1875 
L 8.015625 -13.1875 
Q 14.5 -2 17.703125 9.0625 
Q 20.90625 20.125 20.90625 31.390625 
Q 20.90625 42.671875 17.703125 53.65625 
Q 14.5 64.65625 8.015625 75.875 
z
" id="DejaVuSans-41"/>
     </defs>
     <use xlink:href="#DejaVuSans-79"/>
     <use x="78.710938" xlink:href="#DejaVuSans-114"/>
     <use x="119.824219" xlink:href="#DejaVuSans-105"/>
     <use x="147.607422" xlink:href="#DejaVuSans-103"/>
     <use x="211.083984" xlink:href="#DejaVuSans-105"/>
     <use x="238.867188" xlink:href="#DejaVuSans-110"/>
     <use x="302.246094" xlink:href="#DejaVuSans-97"/>
     <use x="363.525391" xlink:href="#DejaVuSans-108"/>
     <use x="391.308594" xlink:href="#DejaVuSans-32"/>
     <use x="423.095703" xlink:href="#DejaVuSans-97"/>
     <use x="484.375" xlink:href="#DejaVuSans-110"/>
     <use x="547.753906" xlink:href="#DejaVuSans-100"/>
     <use x="611.230469" xlink:href="#DejaVuSans-32"/>
     <use x="643.017578" xlink:href="#DejaVuSans-73"/>
     <use x="672.509766" xlink:href="#DejaVuSans-110"/>
     <use x="735.888672" xlink:href="#DejaVuSans-102"/>
     <use x="771.09375" xlink:href="#DejaVuSans-101"/>
     <use x="832.617188" xlink:href="#DejaVuSans-114"/>
     <use x="871.980469" xlink:href="#DejaVuSans-114"/>
     <use x="910.84375" xlink:href="#DejaVuSans-101"/>
     <use x="972.367188" xlink:href="#DejaVuSans-100"/>
     <use x="1035.84375" xlink:href="#DejaVuSans-32"/>
     <use x="1067.630859" xlink:href="#DejaVuSans-65"/>
     <use x="1136.039062" xlink:href="#DejaVuSans-68"/>
     <use x="1213.041016" xlink:href="#DejaVuSans-67"/>
     <use x="1282.865234" xlink:href="#DejaVuSans-67"/>
     <use x="1352.689453" xlink:href="#DejaVuSans-32"/>
     <use x="1384.476562" xlink:href="#DejaVuSans-40"/>
     <use x="1423.490234" xlink:href="#DejaVuSans-70"/>
     <use x="1473.759766" xlink:href="#DejaVuSans-105"/>
     <use x="1501.542969" xlink:href="#DejaVuSans-103"/>
     <use x="1565.019531" xlink:href="#DejaVuSans-46"/>
     <use x="1596.806641" xlink:href="#DejaVuSans-32"/>
     <use x="1628.59375" xlink:href="#DejaVuSans-51"/>
     <use x="1692.216797" xlink:href="#DejaVuSans-65"/>
     <use x="1760.625" xlink:href="#DejaVuSans-41"/>
    </g>
   </g>
   <g id="legend_1">
    <g id="patch_47">
     <path d="M 39.861778 47.976218 
L 104.517715 47.976218 
Q 106.057715 47.976218 106.057715 46.436218 
L 106.057715 27.681906 
Q 106.057715 26.141906 104.517715 26.141906 
L 39.861778 26.141906 
Q 38.321778 26.141906 38.321778 27.681906 
L 38.321778 46.436218 
Q 38.321778 47.976218 39.861778 47.976218 
z
" style="fill:#ffffff;opacity:0.5;stroke:#cccccc;stroke-linejoin:miter;"/>
    </g>
    <g id="patch_48">
     <path d="M 41.016778 34.687703 
L 44.866778 34.687703 
L 44.866778 29.297703 
L 41.016778 29.297703 
z
" style="fill:#0173b2;stroke:#ffffff;stroke-linejoin:miter;"/>
    </g>
    <g id="text_31">
     <!-- Inferred ADCC -->
     <g style="fill:#262626;" transform="translate(48.716778 34.687703)scale(0.077 -0.077)">
      <use xlink:href="#DejaVuSans-73"/>
      <use x="29.492188" xlink:href="#DejaVuSans-110"/>
      <use x="92.871094" xlink:href="#DejaVuSans-102"/>
      <use x="128.076172" xlink:href="#DejaVuSans-101"/>
      <use x="189.599609" xlink:href="#DejaVuSans-114"/>
      <use x="228.962891" xlink:href="#DejaVuSans-114"/>
      <use x="267.826172" xlink:href="#DejaVuSans-101"/>
      <use x="329.349609" xlink:href="#DejaVuSans-100"/>
      <use x="392.826172" xlink:href="#DejaVuSans-32"/>
      <use x="424.613281" xlink:href="#DejaVuSans-65"/>
      <use x="493.021484" xlink:href="#DejaVuSans-68"/>
      <use x="570.023438" xlink:href="#DejaVuSans-67"/>
      <use x="639.847656" xlink:href="#DejaVuSans-67"/>
     </g>
    </g>
    <g id="patch_49">
     <path d="M 41.016778 43.679859 
L 44.866778 43.679859 
L 44.866778 38.289859 
L 41.016778 38.289859 
z
" style="fill:#de8f05;stroke:#ffffff;stroke-linejoin:miter;"/>
    </g>
    <g id="text_32">
     <!-- Original ADCC -->
     <g style="fill:#262626;" transform="translate(48.716778 43.679859)scale(0.077 -0.077)">
      <use xlink:href="#DejaVuSans-79"/>
      <use x="78.710938" xlink:href="#DejaVuSans-114"/>
      <use x="119.824219" xlink:href="#DejaVuSans-105"/>
      <use x="147.607422" xlink:href="#DejaVuSans-103"/>
      <use x="211.083984" xlink:href="#DejaVuSans-105"/>
      <use x="238.867188" xlink:href="#DejaVuSans-110"/>
      <use x="302.246094" xlink:href="#DejaVuSans-97"/>
      <use x="363.525391" xlink:href="#DejaVuSans-108"/>
      <use x="391.308594" xlink:href="#DejaVuSans-32"/>
      <use x="423.095703" xlink:href="#DejaVuSans-65"/>
      <use x="491.503906" xlink:href="#DejaVuSans-68"/>
      <use x="568.505859" xlink:href="#DejaVuSans-67"/>
      <use x="638.330078" xlink:href="#DejaVuSans-67"/>
     </g>
    </g>
   </g>
  </g>
  <g id="axes_2">
   <g id="patch_50">
    <path d="M 252.631778 133.751434 
L 424.990666 133.751434 
L 424.990666 22.291906 
L 252.631778 22.291906 
z
" style="fill:#ffffff;"/>
   </g>
   <g id="matplotlib.axis_3">
    <g id="xtick_21">
     <g id="line2d_28">
      <path clip-path="url(#p0dc4c4a912)" d="M 263.250103 133.751434 
L 263.250103 22.291906 
" style="fill:none;stroke:#cccccc;stroke-dasharray:1,1.65;stroke-dashoffset:0;"/>
     </g>
     <g id="text_33">
      <!-- -G -->
      <g style="fill:#262626;" transform="translate(265.374822 149.774872)rotate(-90)scale(0.077 -0.077)">
       <use xlink:href="#DejaVuSans-45"/>
       <use x="39.708984" xlink:href="#DejaVuSans-71"/>
      </g>
     </g>
    </g>
    <g id="xtick_22">
     <g id="line2d_29">
      <path clip-path="url(#p0dc4c4a912)" d="M 271.203905 133.751434 
L 271.203905 22.291906 
" style="fill:none;stroke:#cccccc;stroke-dasharray:1,1.65;stroke-dashoffset:0;"/>
     </g>
     <g id="text_34">
      <!-- Unmodified -->
      <g style="fill:#262626;" transform="translate(273.328624 184.981919)rotate(-90)scale(0.077 -0.077)">
       <use xlink:href="#DejaVuSans-85"/>
       <use x="73.193359" xlink:href="#DejaVuSans-110"/>
       <use x="136.572266" xlink:href="#DejaVuSans-109"/>
       <use x="233.984375" xlink:href="#DejaVuSans-111"/>
       <use x="295.166016" xlink:href="#DejaVuSans-100"/>
       <use x="358.642578" xlink:href="#DejaVuSans-105"/>
       <use x="386.425781" xlink:href="#DejaVuSans-102"/>
       <use x="421.630859" xlink:href="#DejaVuSans-105"/>
       <use x="449.414062" xlink:href="#DejaVuSans-101"/>
       <use x="510.9375" xlink:href="#DejaVuSans-100"/>
      </g>
     </g>
    </g>
    <g id="xtick_23">
     <g id="line2d_30">
      <path clip-path="url(#p0dc4c4a912)" d="M 279.157707 133.751434 
L 279.157707 22.291906 
" style="fill:none;stroke:#cccccc;stroke-dasharray:1,1.65;stroke-dashoffset:0;"/>
     </g>
     <g id="text_35">
      <!-- +G -->
      <g style="fill:#262626;" transform="translate(281.282426 153.17009)rotate(-90)scale(0.077 -0.077)">
       <use xlink:href="#DejaVuSans-43"/>
       <use x="83.789062" xlink:href="#DejaVuSans-71"/>
      </g>
     </g>
    </g>
    <g id="xtick_24">
     <g id="line2d_31">
      <path clip-path="url(#p0dc4c4a912)" d="M 287.111509 133.751434 
L 287.111509 22.291906 
" style="fill:none;stroke:#cccccc;stroke-dasharray:1,1.65;stroke-dashoffset:0;"/>
     </g>
     <g id="text_36">
      <!-- +G+S -->
      <g style="fill:#262626;" transform="translate(289.236228 164.510747)rotate(-90)scale(0.077 -0.077)">
       <use xlink:href="#DejaVuSans-43"/>
       <use x="83.789062" xlink:href="#DejaVuSans-71"/>
       <use x="161.279297" xlink:href="#DejaVuSans-43"/>
       <use x="245.068359" xlink:href="#DejaVuSans-83"/>
      </g>
     </g>
    </g>
    <g id="xtick_25">
     <g id="line2d_32">
      <path clip-path="url(#p0dc4c4a912)" d="M 295.065311 133.751434 
L 295.065311 22.291906 
" style="fill:none;stroke:#cccccc;stroke-dasharray:1,1.65;stroke-dashoffset:0;"/>
     </g>
     <g id="text_37">
      <!-- +G+S+ivs -->
      <g style="fill:#262626;" transform="translate(297.19003 181.670919)rotate(-90)scale(0.077 -0.077)">
       <use xlink:href="#DejaVuSans-43"/>
       <use x="83.789062" xlink:href="#DejaVuSans-71"/>
       <use x="161.279297" xlink:href="#DejaVuSans-43"/>
       <use x="245.068359" xlink:href="#DejaVuSans-83"/>
       <use x="308.544922" xlink:href="#DejaVuSans-43"/>
       <use x="392.333984" xlink:href="#DejaVuSans-105"/>
       <use x="420.117188" xlink:href="#DejaVuSans-118"/>
       <use x="479.296875" xlink:href="#DejaVuSans-115"/>
      </g>
     </g>
    </g>
    <g id="xtick_26">
     <g id="line2d_33">
      <path clip-path="url(#p0dc4c4a912)" d="M 303.019113 133.751434 
L 303.019113 22.291906 
" style="fill:none;stroke:#cccccc;stroke-dasharray:1,1.65;stroke-dashoffset:0;"/>
     </g>
     <g id="text_38">
      <!-- -G+B -->
      <g style="fill:#262626;" transform="translate(305.143832 161.510153)rotate(-90)scale(0.077 -0.077)">
       <use xlink:href="#DejaVuSans-45"/>
       <use x="39.708984" xlink:href="#DejaVuSans-71"/>
       <use x="117.199219" xlink:href="#DejaVuSans-43"/>
       <use x="200.988281" xlink:href="#DejaVuSans-66"/>
      </g>
     </g>
    </g>
    <g id="xtick_27">
     <g id="line2d_34">
      <path clip-path="url(#p0dc4c4a912)" d="M 310.972915 133.751434 
L 310.972915 22.291906 
" style="fill:none;stroke:#cccccc;stroke-dasharray:1,1.65;stroke-dashoffset:0;"/>
     </g>
     <g id="text_39">
      <!-- +B -->
      <g style="fill:#262626;" transform="translate(313.097634 152.486715)rotate(-90)scale(0.077 -0.077)">
       <use xlink:href="#DejaVuSans-43"/>
       <use x="83.789062" xlink:href="#DejaVuSans-66"/>
      </g>
     </g>
    </g>
    <g id="xtick_28">
     <g id="line2d_35">
      <path clip-path="url(#p0dc4c4a912)" d="M 318.926717 133.751434 
L 318.926717 22.291906 
" style="fill:none;stroke:#cccccc;stroke-dasharray:1,1.65;stroke-dashoffset:0;"/>
     </g>
     <g id="text_40">
      <!-- +B+G -->
      <g style="fill:#262626;" transform="translate(321.051436 164.905372)rotate(-90)scale(0.077 -0.077)">
       <use xlink:href="#DejaVuSans-43"/>
       <use x="83.789062" xlink:href="#DejaVuSans-66"/>
       <use x="152.392578" xlink:href="#DejaVuSans-43"/>
       <use x="236.181641" xlink:href="#DejaVuSans-71"/>
      </g>
     </g>
    </g>
    <g id="xtick_29">
     <g id="line2d_36">
      <path clip-path="url(#p0dc4c4a912)" d="M 326.880519 133.751434 
L 326.880519 22.291906 
" style="fill:none;stroke:#cccccc;stroke-dasharray:1,1.65;stroke-dashoffset:0;"/>
     </g>
     <g id="text_41">
      <!-- +B+G+S -->
      <g style="fill:#262626;" transform="translate(329.005238 176.246028)rotate(-90)scale(0.077 -0.077)">
       <use xlink:href="#DejaVuSans-43"/>
       <use x="83.789062" xlink:href="#DejaVuSans-66"/>
       <use x="152.392578" xlink:href="#DejaVuSans-43"/>
       <use x="236.181641" xlink:href="#DejaVuSans-71"/>
       <use x="313.671875" xlink:href="#DejaVuSans-43"/>
       <use x="397.460938" xlink:href="#DejaVuSans-83"/>
      </g>
     </g>
    </g>
    <g id="xtick_30">
     <g id="line2d_37">
      <path clip-path="url(#p0dc4c4a912)" d="M 334.834321 133.751434 
L 334.834321 22.291906 
" style="fill:none;stroke:#cccccc;stroke-dasharray:1,1.65;stroke-dashoffset:0;"/>
     </g>
     <g id="text_42">
      <!-- +B+G+S+ivs -->
      <g style="fill:#262626;" transform="translate(336.95904 193.4062)rotate(-90)scale(0.077 -0.077)">
       <use xlink:href="#DejaVuSans-43"/>
       <use x="83.789062" xlink:href="#DejaVuSans-66"/>
       <use x="152.392578" xlink:href="#DejaVuSans-43"/>
       <use x="236.181641" xlink:href="#DejaVuSans-71"/>
       <use x="313.671875" xlink:href="#DejaVuSans-43"/>
       <use x="397.460938" xlink:href="#DejaVuSans-83"/>
       <use x="460.9375" xlink:href="#DejaVuSans-43"/>
       <use x="544.726562" xlink:href="#DejaVuSans-105"/>
       <use x="572.509766" xlink:href="#DejaVuSans-118"/>
       <use x="631.689453" xlink:href="#DejaVuSans-115"/>
      </g>
     </g>
    </g>
    <g id="xtick_31">
     <g id="line2d_38">
      <path clip-path="url(#p0dc4c4a912)" d="M 342.788123 133.751434 
L 342.788123 22.291906 
" style="fill:none;stroke:#cccccc;stroke-dasharray:1,1.65;stroke-dashoffset:0;"/>
     </g>
     <g id="text_43">
      <!-- -F-G -->
      <g style="fill:#262626;" transform="translate(344.912842 156.98159)rotate(-90)scale(0.077 -0.077)">
       <use xlink:href="#DejaVuSans-45"/>
       <use x="36.083984" xlink:href="#DejaVuSans-70"/>
       <use x="93.603516" xlink:href="#DejaVuSans-45"/>
       <use x="133.3125" xlink:href="#DejaVuSans-71"/>
      </g>
     </g>
    </g>
    <g id="xtick_32">
     <g id="line2d_39">
      <path clip-path="url(#p0dc4c4a912)" d="M 350.741925 133.751434 
L 350.741925 22.291906 
" style="fill:none;stroke:#cccccc;stroke-dasharray:1,1.65;stroke-dashoffset:0;"/>
     </g>
     <g id="text_44">
      <!-- -F -->
      <g style="fill:#262626;" transform="translate(352.866644 147.958153)rotate(-90)scale(0.077 -0.077)">
       <use xlink:href="#DejaVuSans-45"/>
       <use x="36.083984" xlink:href="#DejaVuSans-70"/>
      </g>
     </g>
    </g>
    <g id="xtick_33">
     <g id="line2d_40">
      <path clip-path="url(#p0dc4c4a912)" d="M 358.695727 133.751434 
L 358.695727 22.291906 
" style="fill:none;stroke:#cccccc;stroke-dasharray:1,1.65;stroke-dashoffset:0;"/>
     </g>
     <g id="text_45">
      <!-- -F+G -->
      <g style="fill:#262626;" transform="translate(360.820446 160.376809)rotate(-90)scale(0.077 -0.077)">
       <use xlink:href="#DejaVuSans-45"/>
       <use x="36.083984" xlink:href="#DejaVuSans-70"/>
       <use x="93.603516" xlink:href="#DejaVuSans-43"/>
       <use x="177.392578" xlink:href="#DejaVuSans-71"/>
      </g>
     </g>
    </g>
    <g id="xtick_34">
     <g id="line2d_41">
      <path clip-path="url(#p0dc4c4a912)" d="M 366.649529 133.751434 
L 366.649529 22.291906 
" style="fill:none;stroke:#cccccc;stroke-dasharray:1,1.65;stroke-dashoffset:0;"/>
     </g>
     <g id="text_46">
      <!-- -F+G+S -->
      <g style="fill:#262626;" transform="translate(368.774248 171.717465)rotate(-90)scale(0.077 -0.077)">
       <use xlink:href="#DejaVuSans-45"/>
       <use x="36.083984" xlink:href="#DejaVuSans-70"/>
       <use x="93.603516" xlink:href="#DejaVuSans-43"/>
       <use x="177.392578" xlink:href="#DejaVuSans-71"/>
       <use x="254.882812" xlink:href="#DejaVuSans-43"/>
       <use x="338.671875" xlink:href="#DejaVuSans-83"/>
      </g>
     </g>
    </g>
    <g id="xtick_35">
     <g id="line2d_42">
      <path clip-path="url(#p0dc4c4a912)" d="M 374.603331 133.751434 
L 374.603331 22.291906 
" style="fill:none;stroke:#cccccc;stroke-dasharray:1,1.65;stroke-dashoffset:0;"/>
     </g>
     <g id="text_47">
      <!-- -F+G+S+ivs -->
      <g style="fill:#262626;" transform="translate(376.72805 188.877637)rotate(-90)scale(0.077 -0.077)">
       <use xlink:href="#DejaVuSans-45"/>
       <use x="36.083984" xlink:href="#DejaVuSans-70"/>
       <use x="93.603516" xlink:href="#DejaVuSans-43"/>
       <use x="177.392578" xlink:href="#DejaVuSans-71"/>
       <use x="254.882812" xlink:href="#DejaVuSans-43"/>
       <use x="338.671875" xlink:href="#DejaVuSans-83"/>
       <use x="402.148438" xlink:href="#DejaVuSans-43"/>
       <use x="485.9375" xlink:href="#DejaVuSans-105"/>
       <use x="513.720703" xlink:href="#DejaVuSans-118"/>
       <use x="572.900391" xlink:href="#DejaVuSans-115"/>
      </g>
     </g>
    </g>
    <g id="xtick_36">
     <g id="line2d_43">
      <path clip-path="url(#p0dc4c4a912)" d="M 382.557133 133.751434 
L 382.557133 22.291906 
" style="fill:none;stroke:#cccccc;stroke-dasharray:1,1.65;stroke-dashoffset:0;"/>
     </g>
     <g id="text_48">
      <!-- -F-G+B -->
      <g style="fill:#262626;" transform="translate(384.681852 168.716872)rotate(-90)scale(0.077 -0.077)">
       <use xlink:href="#DejaVuSans-45"/>
       <use x="36.083984" xlink:href="#DejaVuSans-70"/>
       <use x="93.603516" xlink:href="#DejaVuSans-45"/>
       <use x="133.3125" xlink:href="#DejaVuSans-71"/>
       <use x="210.802734" xlink:href="#DejaVuSans-43"/>
       <use x="294.591797" xlink:href="#DejaVuSans-66"/>
      </g>
     </g>
    </g>
    <g id="xtick_37">
     <g id="line2d_44">
      <path clip-path="url(#p0dc4c4a912)" d="M 390.510935 133.751434 
L 390.510935 22.291906 
" style="fill:none;stroke:#cccccc;stroke-dasharray:1,1.65;stroke-dashoffset:0;"/>
     </g>
     <g id="text_49">
      <!-- -F+B -->
      <g style="fill:#262626;" transform="translate(392.635654 159.693434)rotate(-90)scale(0.077 -0.077)">
       <use xlink:href="#DejaVuSans-45"/>
       <use x="36.083984" xlink:href="#DejaVuSans-70"/>
       <use x="93.603516" xlink:href="#DejaVuSans-43"/>
       <use x="177.392578" xlink:href="#DejaVuSans-66"/>
      </g>
     </g>
    </g>
    <g id="xtick_38">
     <g id="line2d_45">
      <path clip-path="url(#p0dc4c4a912)" d="M 398.464737 133.751434 
L 398.464737 22.291906 
" style="fill:none;stroke:#cccccc;stroke-dasharray:1,1.65;stroke-dashoffset:0;"/>
     </g>
     <g id="text_50">
      <!-- -F+B+G -->
      <g style="fill:#262626;" transform="translate(400.589456 172.11209)rotate(-90)scale(0.077 -0.077)">
       <use xlink:href="#DejaVuSans-45"/>
       <use x="36.083984" xlink:href="#DejaVuSans-70"/>
       <use x="93.603516" xlink:href="#DejaVuSans-43"/>
       <use x="177.392578" xlink:href="#DejaVuSans-66"/>
       <use x="245.996094" xlink:href="#DejaVuSans-43"/>
       <use x="329.785156" xlink:href="#DejaVuSans-71"/>
      </g>
     </g>
    </g>
    <g id="xtick_39">
     <g id="line2d_46">
      <path clip-path="url(#p0dc4c4a912)" d="M 406.418539 133.751434 
L 406.418539 22.291906 
" style="fill:none;stroke:#cccccc;stroke-dasharray:1,1.65;stroke-dashoffset:0;"/>
     </g>
     <g id="text_51">
      <!-- -F+B+G+S -->
      <g style="fill:#262626;" transform="translate(408.543258 183.452747)rotate(-90)scale(0.077 -0.077)">
       <use xlink:href="#DejaVuSans-45"/>
       <use x="36.083984" xlink:href="#DejaVuSans-70"/>
       <use x="93.603516" xlink:href="#DejaVuSans-43"/>
       <use x="177.392578" xlink:href="#DejaVuSans-66"/>
       <use x="245.996094" xlink:href="#DejaVuSans-43"/>
       <use x="329.785156" xlink:href="#DejaVuSans-71"/>
       <use x="407.275391" xlink:href="#DejaVuSans-43"/>
       <use x="491.064453" xlink:href="#DejaVuSans-83"/>
      </g>
     </g>
    </g>
    <g id="xtick_40">
     <g id="line2d_47">
      <path clip-path="url(#p0dc4c4a912)" d="M 414.372341 133.751434 
L 414.372341 22.291906 
" style="fill:none;stroke:#cccccc;stroke-dasharray:1,1.65;stroke-dashoffset:0;"/>
     </g>
     <g id="text_52">
      <!-- -F+B+G+S+ivs -->
      <g style="fill:#262626;" transform="translate(416.49706 200.612919)rotate(-90)scale(0.077 -0.077)">
       <use xlink:href="#DejaVuSans-45"/>
       <use x="36.083984" xlink:href="#DejaVuSans-70"/>
       <use x="93.603516" xlink:href="#DejaVuSans-43"/>
       <use x="177.392578" xlink:href="#DejaVuSans-66"/>
       <use x="245.996094" xlink:href="#DejaVuSans-43"/>
       <use x="329.785156" xlink:href="#DejaVuSans-71"/>
       <use x="407.275391" xlink:href="#DejaVuSans-43"/>
       <use x="491.064453" xlink:href="#DejaVuSans-83"/>
       <use x="554.541016" xlink:href="#DejaVuSans-43"/>
       <use x="638.330078" xlink:href="#DejaVuSans-105"/>
       <use x="666.113281" xlink:href="#DejaVuSans-118"/>
       <use x="725.292969" xlink:href="#DejaVuSans-115"/>
      </g>
     </g>
    </g>
    <g id="text_53">
     <!-- Mixtures -->
     <g style="fill:#262626;" transform="translate(320.822097 210.995606)scale(0.084 -0.084)">
      <use xlink:href="#DejaVuSans-77"/>
      <use x="86.279297" xlink:href="#DejaVuSans-105"/>
      <use x="114.0625" xlink:href="#DejaVuSans-120"/>
      <use x="173.242188" xlink:href="#DejaVuSans-116"/>
      <use x="212.451172" xlink:href="#DejaVuSans-117"/>
      <use x="275.830078" xlink:href="#DejaVuSans-114"/>
      <use x="314.693359" xlink:href="#DejaVuSans-101"/>
      <use x="376.216797" xlink:href="#DejaVuSans-115"/>
     </g>
    </g>
   </g>
   <g id="matplotlib.axis_4">
    <g id="ytick_8">
     <g id="line2d_48">
      <path clip-path="url(#p0dc4c4a912)" d="M 252.631778 133.751434 
L 424.990666 133.751434 
" style="fill:none;stroke:#cccccc;stroke-dasharray:1,1.65;stroke-dashoffset:0;"/>
     </g>
     <g id="text_54">
      <!-- 0 -->
      <g style="fill:#262626;" transform="translate(240.732653 136.676833)scale(0.077 -0.077)">
       <use xlink:href="#DejaVuSans-48"/>
      </g>
     </g>
    </g>
    <g id="ytick_9">
     <g id="line2d_49">
      <path clip-path="url(#p0dc4c4a912)" d="M 252.631778 114.272225 
L 424.990666 114.272225 
" style="fill:none;stroke:#cccccc;stroke-dasharray:1,1.65;stroke-dashoffset:0;"/>
     </g>
     <g id="text_55">
      <!-- 5 -->
      <g style="fill:#262626;" transform="translate(240.732653 117.197623)scale(0.077 -0.077)">
       <use xlink:href="#DejaVuSans-53"/>
      </g>
     </g>
    </g>
    <g id="ytick_10">
     <g id="line2d_50">
      <path clip-path="url(#p0dc4c4a912)" d="M 252.631778 94.793015 
L 424.990666 94.793015 
" style="fill:none;stroke:#cccccc;stroke-dasharray:1,1.65;stroke-dashoffset:0;"/>
     </g>
     <g id="text_56">
      <!-- 10 -->
      <g style="fill:#262626;" transform="translate(235.833528 97.718413)scale(0.077 -0.077)">
       <use xlink:href="#DejaVuSans-49"/>
       <use x="63.623047" xlink:href="#DejaVuSans-48"/>
      </g>
     </g>
    </g>
    <g id="ytick_11">
     <g id="line2d_51">
      <path clip-path="url(#p0dc4c4a912)" d="M 252.631778 75.313805 
L 424.990666 75.313805 
" style="fill:none;stroke:#cccccc;stroke-dasharray:1,1.65;stroke-dashoffset:0;"/>
     </g>
     <g id="text_57">
      <!-- 15 -->
      <g style="fill:#262626;" transform="translate(235.833528 78.239204)scale(0.077 -0.077)">
       <use xlink:href="#DejaVuSans-49"/>
       <use x="63.623047" xlink:href="#DejaVuSans-53"/>
      </g>
     </g>
    </g>
    <g id="ytick_12">
     <g id="line2d_52">
      <path clip-path="url(#p0dc4c4a912)" d="M 252.631778 55.834596 
L 424.990666 55.834596 
" style="fill:none;stroke:#cccccc;stroke-dasharray:1,1.65;stroke-dashoffset:0;"/>
     </g>
     <g id="text_58">
      <!-- 20 -->
      <g style="fill:#262626;" transform="translate(235.833528 58.759994)scale(0.077 -0.077)">
       <use xlink:href="#DejaVuSans-50"/>
       <use x="63.623047" xlink:href="#DejaVuSans-48"/>
      </g>
     </g>
    </g>
    <g id="ytick_13">
     <g id="line2d_53">
      <path clip-path="url(#p0dc4c4a912)" d="M 252.631778 36.355386 
L 424.990666 36.355386 
" style="fill:none;stroke:#cccccc;stroke-dasharray:1,1.65;stroke-dashoffset:0;"/>
     </g>
     <g id="text_59">
      <!-- 25 -->
      <g style="fill:#262626;" transform="translate(235.833528 39.280784)scale(0.077 -0.077)">
       <use xlink:href="#DejaVuSans-50"/>
       <use x="63.623047" xlink:href="#DejaVuSans-53"/>
      </g>
     </g>
    </g>
   </g>
   <g id="patch_51">
    <path clip-path="url(#p0dc4c4a912)" d="M 260.466273 133.751434 
L 263.250103 133.751434 
L 263.250103 131.037577 
L 260.466273 131.037577 
z
" style="fill:#0173b2;stroke:#ffffff;stroke-linejoin:miter;"/>
   </g>
   <g id="patch_52">
    <path clip-path="url(#p0dc4c4a912)" d="M 268.420075 133.751434 
L 271.203905 133.751434 
L 271.203905 128.583312 
L 268.420075 128.583312 
z
" style="fill:#0173b2;stroke:#ffffff;stroke-linejoin:miter;"/>
   </g>
   <g id="patch_53">
    <path clip-path="url(#p0dc4c4a912)" d="M 276.373877 133.751434 
L 279.157707 133.751434 
L 279.157707 129.223719 
L 276.373877 129.223719 
z
" style="fill:#0173b2;stroke:#ffffff;stroke-linejoin:miter;"/>
   </g>
   <g id="patch_54">
    <path clip-path="url(#p0dc4c4a912)" d="M 284.327679 133.751434 
L 287.111509 133.751434 
L 287.111509 130.662121 
L 284.327679 130.662121 
z
" style="fill:#0173b2;stroke:#ffffff;stroke-linejoin:miter;"/>
   </g>
   <g id="patch_55">
    <path clip-path="url(#p0dc4c4a912)" d="M 292.281481 133.751434 
L 295.065311 133.751434 
L 295.065311 128.211168 
L 292.281481 128.211168 
z
" style="fill:#0173b2;stroke:#ffffff;stroke-linejoin:miter;"/>
   </g>
   <g id="patch_56">
    <path clip-path="url(#p0dc4c4a912)" d="M 300.235283 133.751434 
L 303.019113 133.751434 
L 303.019113 123.617013 
L 300.235283 123.617013 
z
" style="fill:#0173b2;stroke:#ffffff;stroke-linejoin:miter;"/>
   </g>
   <g id="patch_57">
    <path clip-path="url(#p0dc4c4a912)" d="M 308.189085 133.751434 
L 310.972915 133.751434 
L 310.972915 126.987891 
L 308.189085 126.987891 
z
" style="fill:#0173b2;stroke:#ffffff;stroke-linejoin:miter;"/>
   </g>
   <g id="patch_58">
    <path clip-path="url(#p0dc4c4a912)" d="M 316.142886 133.751434 
L 318.926717 133.751434 
L 318.926717 128.703952 
L 316.142886 128.703952 
z
" style="fill:#0173b2;stroke:#ffffff;stroke-linejoin:miter;"/>
   </g>
   <g id="patch_59">
    <path clip-path="url(#p0dc4c4a912)" d="M 324.096688 133.751434 
L 326.880519 133.751434 
L 326.880519 128.566346 
L 324.096688 128.566346 
z
" style="fill:#0173b2;stroke:#ffffff;stroke-linejoin:miter;"/>
   </g>
   <g id="patch_60">
    <path clip-path="url(#p0dc4c4a912)" d="M 332.05049 133.751434 
L 334.834321 133.751434 
L 334.834321 125.671449 
L 332.05049 125.671449 
z
" style="fill:#0173b2;stroke:#ffffff;stroke-linejoin:miter;"/>
   </g>
   <g id="patch_61">
    <path clip-path="url(#p0dc4c4a912)" d="M 340.004292 133.751434 
L 342.788123 133.751434 
L 342.788123 62.895175 
L 340.004292 62.895175 
z
" style="fill:#0173b2;stroke:#ffffff;stroke-linejoin:miter;"/>
   </g>
   <g id="patch_62">
    <path clip-path="url(#p0dc4c4a912)" d="M 347.958094 133.751434 
L 350.741925 133.751434 
L 350.741925 51.698036 
L 347.958094 51.698036 
z
" style="fill:#0173b2;stroke:#ffffff;stroke-linejoin:miter;"/>
   </g>
   <g id="patch_63">
    <path clip-path="url(#p0dc4c4a912)" d="M 355.911896 133.751434 
L 358.695727 133.751434 
L 358.695727 34.512354 
L 355.911896 34.512354 
z
" style="fill:#0173b2;stroke:#ffffff;stroke-linejoin:miter;"/>
   </g>
   <g id="patch_64">
    <path clip-path="url(#p0dc4c4a912)" d="M 363.865698 133.751434 
L 366.649529 133.751434 
L 366.649529 37.685517 
L 363.865698 37.685517 
z
" style="fill:#0173b2;stroke:#ffffff;stroke-linejoin:miter;"/>
   </g>
   <g id="patch_65">
    <path clip-path="url(#p0dc4c4a912)" d="M 371.8195 133.751434 
L 374.603331 133.751434 
L 374.603331 45.862085 
L 371.8195 45.862085 
z
" style="fill:#0173b2;stroke:#ffffff;stroke-linejoin:miter;"/>
   </g>
   <g id="patch_66">
    <path clip-path="url(#p0dc4c4a912)" d="M 379.773302 133.751434 
L 382.557133 133.751434 
L 382.557133 57.18244 
L 379.773302 57.18244 
z
" style="fill:#0173b2;stroke:#ffffff;stroke-linejoin:miter;"/>
   </g>
   <g id="patch_67">
    <path clip-path="url(#p0dc4c4a912)" d="M 387.727104 133.751434 
L 390.510935 133.751434 
L 390.510935 40.248006 
L 387.727104 40.248006 
z
" style="fill:#0173b2;stroke:#ffffff;stroke-linejoin:miter;"/>
   </g>
   <g id="patch_68">
    <path clip-path="url(#p0dc4c4a912)" d="M 395.680906 133.751434 
L 398.464737 133.751434 
L 398.464737 27.599502 
L 395.680906 27.599502 
z
" style="fill:#0173b2;stroke:#ffffff;stroke-linejoin:miter;"/>
   </g>
   <g id="patch_69">
    <path clip-path="url(#p0dc4c4a912)" d="M 403.634708 133.751434 
L 406.418539 133.751434 
L 406.418539 39.088438 
L 403.634708 39.088438 
z
" style="fill:#0173b2;stroke:#ffffff;stroke-linejoin:miter;"/>
   </g>
   <g id="patch_70">
    <path clip-path="url(#p0dc4c4a912)" d="M 411.58851 133.751434 
L 414.372341 133.751434 
L 414.372341 56.794622 
L 411.58851 56.794622 
z
" style="fill:#0173b2;stroke:#ffffff;stroke-linejoin:miter;"/>
   </g>
   <g id="patch_71">
    <path clip-path="url(#p0dc4c4a912)" d="M 263.250103 133.751434 
L 266.033934 133.751434 
L 266.033934 130.677792 
L 263.250103 130.677792 
z
" style="fill:#de8f05;stroke:#ffffff;stroke-linejoin:miter;"/>
   </g>
   <g id="patch_72">
    <path clip-path="url(#p0dc4c4a912)" d="M 271.203905 133.751434 
L 273.987736 133.751434 
L 273.987736 132.214613 
L 271.203905 132.214613 
z
" style="fill:#de8f05;stroke:#ffffff;stroke-linejoin:miter;"/>
   </g>
   <g id="patch_73">
    <path clip-path="url(#p0dc4c4a912)" d="M 279.157707 133.751434 
L 281.941538 133.751434 
L 281.941538 132.7525 
L 279.157707 132.7525 
z
" style="fill:#de8f05;stroke:#ffffff;stroke-linejoin:miter;"/>
   </g>
   <g id="patch_74">
    <path clip-path="url(#p0dc4c4a912)" d="M 287.111509 133.751434 
L 289.89534 133.751434 
L 289.89534 132.521977 
L 287.111509 132.521977 
z
" style="fill:#de8f05;stroke:#ffffff;stroke-linejoin:miter;"/>
   </g>
   <g id="patch_75">
    <path clip-path="url(#p0dc4c4a912)" d="M 295.065311 133.751434 
L 297.849142 133.751434 
L 297.849142 132.521977 
L 295.065311 132.521977 
z
" style="fill:#de8f05;stroke:#ffffff;stroke-linejoin:miter;"/>
   </g>
   <g id="patch_76">
    <path clip-path="url(#p0dc4c4a912)" d="M 303.019113 133.751434 
L 305.802944 133.751434 
L 305.802944 130.139904 
L 303.019113 130.139904 
z
" style="fill:#de8f05;stroke:#ffffff;stroke-linejoin:miter;"/>
   </g>
   <g id="patch_77">
    <path clip-path="url(#p0dc4c4a912)" d="M 310.972915 133.751434 
L 313.756746 133.751434 
L 313.756746 119.458996 
L 310.972915 119.458996 
z
" style="fill:#de8f05;stroke:#ffffff;stroke-linejoin:miter;"/>
   </g>
   <g id="patch_78">
    <path clip-path="url(#p0dc4c4a912)" d="M 318.926717 133.751434 
L 321.710548 133.751434 
L 321.710548 126.22101 
L 318.926717 126.22101 
z
" style="fill:#de8f05;stroke:#ffffff;stroke-linejoin:miter;"/>
   </g>
   <g id="patch_79">
    <path clip-path="url(#p0dc4c4a912)" d="M 326.880519 133.751434 
L 329.66435 133.751434 
L 329.66435 129.14097 
L 326.880519 129.14097 
z
" style="fill:#de8f05;stroke:#ffffff;stroke-linejoin:miter;"/>
   </g>
   <g id="patch_80">
    <path clip-path="url(#p0dc4c4a912)" d="M 334.834321 133.751434 
L 337.618152 133.751434 
L 337.618152 130.831474 
L 334.834321 130.831474 
z
" style="fill:#de8f05;stroke:#ffffff;stroke-linejoin:miter;"/>
   </g>
   <g id="patch_81">
    <path clip-path="url(#p0dc4c4a912)" d="M 342.788123 133.751434 
L 345.571954 133.751434 
L 345.571954 63.595543 
L 342.788123 63.595543 
z
" style="fill:#de8f05;stroke:#ffffff;stroke-linejoin:miter;"/>
   </g>
   <g id="patch_82">
    <path clip-path="url(#p0dc4c4a912)" d="M 350.741925 133.751434 
L 353.525756 133.751434 
L 353.525756 50.839926 
L 350.741925 50.839926 
z
" style="fill:#de8f05;stroke:#ffffff;stroke-linejoin:miter;"/>
   </g>
   <g id="patch_83">
    <path clip-path="url(#p0dc4c4a912)" d="M 358.695727 133.751434 
L 361.479558 133.751434 
L 361.479558 35.010667 
L 358.695727 35.010667 
z
" style="fill:#de8f05;stroke:#ffffff;stroke-linejoin:miter;"/>
   </g>
   <g id="patch_84">
    <path clip-path="url(#p0dc4c4a912)" d="M 366.649529 133.751434 
L 369.43336 133.751434 
L 369.43336 36.778012 
L 366.649529 36.778012 
z
" style="fill:#de8f05;stroke:#ffffff;stroke-linejoin:miter;"/>
   </g>
   <g id="patch_85">
    <path clip-path="url(#p0dc4c4a912)" d="M 374.603331 133.751434 
L 377.387162 133.751434 
L 377.387162 47.45892 
L 374.603331 47.45892 
z
" style="fill:#de8f05;stroke:#ffffff;stroke-linejoin:miter;"/>
   </g>
   <g id="patch_86">
    <path clip-path="url(#p0dc4c4a912)" d="M 382.557133 133.751434 
L 385.340964 133.751434 
L 385.340964 54.912503 
L 382.557133 54.912503 
z
" style="fill:#de8f05;stroke:#ffffff;stroke-linejoin:miter;"/>
   </g>
   <g id="patch_87">
    <path clip-path="url(#p0dc4c4a912)" d="M 390.510935 133.751434 
L 393.294766 133.751434 
L 393.294766 41.311634 
L 390.510935 41.311634 
z
" style="fill:#de8f05;stroke:#ffffff;stroke-linejoin:miter;"/>
   </g>
   <g id="patch_88">
    <path clip-path="url(#p0dc4c4a912)" d="M 398.464737 133.751434 
L 401.248568 133.751434 
L 401.248568 28.402336 
L 398.464737 28.402336 
z
" style="fill:#de8f05;stroke:#ffffff;stroke-linejoin:miter;"/>
   </g>
   <g id="patch_89">
    <path clip-path="url(#p0dc4c4a912)" d="M 406.418539 133.751434 
L 409.20237 133.751434 
L 409.20237 36.470647 
L 406.418539 36.470647 
z
" style="fill:#de8f05;stroke:#ffffff;stroke-linejoin:miter;"/>
   </g>
   <g id="patch_90">
    <path clip-path="url(#p0dc4c4a912)" d="M 414.372341 133.751434 
L 417.156172 133.751434 
L 417.156172 57.371417 
L 414.372341 57.371417 
z
" style="fill:#de8f05;stroke:#ffffff;stroke-linejoin:miter;"/>
   </g>
   <g id="patch_91">
    <path d="M 252.631778 133.751434 
L 252.631778 22.291906 
" style="fill:none;stroke:#cccccc;stroke-linecap:square;stroke-linejoin:miter;stroke-width:0.6;"/>
   </g>
   <g id="patch_92">
    <path d="M 424.990666 133.751434 
L 424.990666 22.291906 
" style="fill:none;stroke:#cccccc;stroke-linecap:square;stroke-linejoin:miter;stroke-width:0.6;"/>
   </g>
   <g id="patch_93">
    <path d="M 252.631778 133.751434 
L 424.990666 133.751434 
" style="fill:none;stroke:#cccccc;stroke-linecap:square;stroke-linejoin:miter;stroke-width:0.6;"/>
   </g>
   <g id="patch_94">
    <path d="M 252.631778 22.291906 
L 424.990666 22.291906 
" style="fill:none;stroke:#cccccc;stroke-linecap:square;stroke-linejoin:miter;stroke-width:0.6;"/>
   </g>
   <g id="text_60">
    <!-- b -->
    <g style="fill:#262626;" transform="translate(218.16 12.1575)scale(0.16 -0.16)">
     <defs>
      <path d="M 37.5 11.28125 
Q 43.109375 11.28125 46.0625 15.375 
Q 49.03125 19.484375 49.03125 27.296875 
Q 49.03125 35.109375 46.0625 39.203125 
Q 43.109375 43.3125 37.5 43.3125 
Q 31.890625 43.3125 28.875 39.1875 
Q 25.875 35.0625 25.875 27.296875 
Q 25.875 19.53125 28.875 15.40625 
Q 31.890625 11.28125 37.5 11.28125 
z
M 25.875 46.6875 
Q 29.5 51.46875 33.890625 53.734375 
Q 38.28125 56 44 56 
Q 54.109375 56 60.59375 47.96875 
Q 67.09375 39.9375 67.09375 27.296875 
Q 67.09375 14.65625 60.59375 6.609375 
Q 54.109375 -1.421875 44 -1.421875 
Q 38.28125 -1.421875 33.890625 0.84375 
Q 29.5 3.125 25.875 7.90625 
L 25.875 0 
L 8.40625 0 
L 8.40625 75.984375 
L 25.875 75.984375 
z
" id="DejaVuSans-Bold-98"/>
     </defs>
     <use xlink:href="#DejaVuSans-Bold-98"/>
    </g>
   </g>
   <g id="text_61">
    <!-- Original and Inferred ADCC (Fig. 3B) -->
    <g style="fill:#262626;" transform="translate(263.217785 16.291906)scale(0.084 -0.084)">
     <use xlink:href="#DejaVuSans-79"/>
     <use x="78.710938" xlink:href="#DejaVuSans-114"/>
     <use x="119.824219" xlink:href="#DejaVuSans-105"/>
     <use x="147.607422" xlink:href="#DejaVuSans-103"/>
     <use x="211.083984" xlink:href="#DejaVuSans-105"/>
     <use x="238.867188" xlink:href="#DejaVuSans-110"/>
     <use x="302.246094" xlink:href="#DejaVuSans-97"/>
     <use x="363.525391" xlink:href="#DejaVuSans-108"/>
     <use x="391.308594" xlink:href="#DejaVuSans-32"/>
     <use x="423.095703" xlink:href="#DejaVuSans-97"/>
     <use x="484.375" xlink:href="#DejaVuSans-110"/>
     <use x="547.753906" xlink:href="#DejaVuSans-100"/>
     <use x="611.230469" xlink:href="#DejaVuSans-32"/>
     <use x="643.017578" xlink:href="#DejaVuSans-73"/>
     <use x="672.509766" xlink:href="#DejaVuSans-110"/>
     <use x="735.888672" xlink:href="#DejaVuSans-102"/>
     <use x="771.09375" xlink:href="#DejaVuSans-101"/>
     <use x="832.617188" xlink:href="#DejaVuSans-114"/>
     <use x="871.980469" xlink:href="#DejaVuSans-114"/>
     <use x="910.84375" xlink:href="#DejaVuSans-101"/>
     <use x="972.367188" xlink:href="#DejaVuSans-100"/>
     <use x="1035.84375" xlink:href="#DejaVuSans-32"/>
     <use x="1067.630859" xlink:href="#DejaVuSans-65"/>
     <use x="1136.039062" xlink:href="#DejaVuSans-68"/>
     <use x="1213.041016" xlink:href="#DejaVuSans-67"/>
     <use x="1282.865234" xlink:href="#DejaVuSans-67"/>
     <use x="1352.689453" xlink:href="#DejaVuSans-32"/>
     <use x="1384.476562" xlink:href="#DejaVuSans-40"/>
     <use x="1423.490234" xlink:href="#DejaVuSans-70"/>
     <use x="1473.759766" xlink:href="#DejaVuSans-105"/>
     <use x="1501.542969" xlink:href="#DejaVuSans-103"/>
     <use x="1565.019531" xlink:href="#DejaVuSans-46"/>
     <use x="1596.806641" xlink:href="#DejaVuSans-32"/>
     <use x="1628.59375" xlink:href="#DejaVuSans-51"/>
     <use x="1692.216797" xlink:href="#DejaVuSans-66"/>
     <use x="1760.820312" xlink:href="#DejaVuSans-41"/>
    </g>
   </g>
   <g id="legend_2">
    <g id="patch_95">
     <path d="M 258.021778 47.976218 
L 322.677715 47.976218 
Q 324.217715 47.976218 324.217715 46.436218 
L 324.217715 27.681906 
Q 324.217715 26.141906 322.677715 26.141906 
L 258.021778 26.141906 
Q 256.481778 26.141906 256.481778 27.681906 
L 256.481778 46.436218 
Q 256.481778 47.976218 258.021778 47.976218 
z
" style="fill:#ffffff;opacity:0.5;stroke:#cccccc;stroke-linejoin:miter;"/>
    </g>
    <g id="patch_96">
     <path d="M 259.176778 34.687703 
L 263.026778 34.687703 
L 263.026778 29.297703 
L 259.176778 29.297703 
z
" style="fill:#0173b2;stroke:#ffffff;stroke-linejoin:miter;"/>
    </g>
    <g id="text_62">
     <!-- Inferred ADCC -->
     <g style="fill:#262626;" transform="translate(266.876778 34.687703)scale(0.077 -0.077)">
      <use xlink:href="#DejaVuSans-73"/>
      <use x="29.492188" xlink:href="#DejaVuSans-110"/>
      <use x="92.871094" xlink:href="#DejaVuSans-102"/>
      <use x="128.076172" xlink:href="#DejaVuSans-101"/>
      <use x="189.599609" xlink:href="#DejaVuSans-114"/>
      <use x="228.962891" xlink:href="#DejaVuSans-114"/>
      <use x="267.826172" xlink:href="#DejaVuSans-101"/>
      <use x="329.349609" xlink:href="#DejaVuSans-100"/>
      <use x="392.826172" xlink:href="#DejaVuSans-32"/>
      <use x="424.613281" xlink:href="#DejaVuSans-65"/>
      <use x="493.021484" xlink:href="#DejaVuSans-68"/>
      <use x="570.023438" xlink:href="#DejaVuSans-67"/>
      <use x="639.847656" xlink:href="#DejaVuSans-67"/>
     </g>
    </g>
    <g id="patch_97">
     <path d="M 259.176778 43.679859 
L 263.026778 43.679859 
L 263.026778 38.289859 
L 259.176778 38.289859 
z
" style="fill:#de8f05;stroke:#ffffff;stroke-linejoin:miter;"/>
    </g>
    <g id="text_63">
     <!-- Original ADCC -->
     <g style="fill:#262626;" transform="translate(266.876778 43.679859)scale(0.077 -0.077)">
      <use xlink:href="#DejaVuSans-79"/>
      <use x="78.710938" xlink:href="#DejaVuSans-114"/>
      <use x="119.824219" xlink:href="#DejaVuSans-105"/>
      <use x="147.607422" xlink:href="#DejaVuSans-103"/>
      <use x="211.083984" xlink:href="#DejaVuSans-105"/>
      <use x="238.867188" xlink:href="#DejaVuSans-110"/>
      <use x="302.246094" xlink:href="#DejaVuSans-97"/>
      <use x="363.525391" xlink:href="#DejaVuSans-108"/>
      <use x="391.308594" xlink:href="#DejaVuSans-32"/>
      <use x="423.095703" xlink:href="#DejaVuSans-65"/>
      <use x="491.503906" xlink:href="#DejaVuSans-68"/>
      <use x="568.505859" xlink:href="#DejaVuSans-67"/>
      <use x="638.330078" xlink:href="#DejaVuSans-67"/>
     </g>
    </g>
   </g>
  </g>
 </g>
 <defs>
  <clipPath id="pfab5671d4e">
   <rect height="111.459529" width="172.358889" x="34.471778" y="22.291906"/>
  </clipPath>
  <clipPath id="p0dc4c4a912">
   <rect height="111.459529" width="172.358889" x="252.631778" y="22.291906"/>
  </clipPath>
 </defs>
</svg>
