<?xml version="1.0" encoding="utf-8" standalone="no"?>
<!DOCTYPE svg PUBLIC "-//W3C//DTD SVG 1.1//EN"
  "http://www.w3.org/Graphics/SVG/1.1/DTD/svg11.dtd">
<!-- Created with matplotlib (https://matplotlib.org/) -->
<svg height="211.581769pt" version="1.1" viewBox="0 0 424.990666 211.581769" width="424.990666pt" xmlns="http://www.w3.org/2000/svg" xmlns:xlink="http://www.w3.org/1999/xlink">
 <metadata>
  <rdf:RDF xmlns:cc="http://creativecommons.org/ns#" xmlns:dc="http://purl.org/dc/elements/1.1/" xmlns:rdf="http://www.w3.org/1999/02/22-rdf-syntax-ns#">
   <cc:Work>
    <dc:type rdf:resource="http://purl.org/dc/dcmitype/StillImage"/>
    <dc:date>2021-04-30T10:14:06.482964</dc:date>
    <dc:format>image/svg+xml</dc:format>
    <dc:creator>
     <cc:Agent>
      <dc:title>Matplotlib v3.3.4, https://matplotlib.org/</dc:title>
     </cc:Agent>
    </dc:creator>
   </cc:Work>
  </rdf:RDF>
 </metadata>
 <defs>
  <style type="text/css">*{stroke-linecap:butt;stroke-linejoin:round;}</style>
 </defs>
 <g id="figure_1">
  <g id="patch_1">
   <path d="M 0 211.581769 
L 424.990666 211.581769 
L 424.990666 0 
L 0 0 
z
" style="fill:#ffffff;"/>
  </g>
  <g id="axes_1">
   <g id="patch_2">
    <path d="M 34.471778 161.610034 
L 206.830666 161.610034 
L 206.830666 26.935006 
L 34.471778 26.935006 
z
" style="fill:#ffffff;"/>
   </g>
   <g id="matplotlib.axis_1">
    <g id="xtick_1">
     <g id="line2d_1">
      <path clip-path="url(#p74e3c262e8)" d="M 44.620259 161.610034 
L 44.620259 26.935006 
" style="fill:none;stroke:#cccccc;stroke-dasharray:1,1.65;stroke-dashoffset:0;"/>
     </g>
     <g id="text_1">
      <!-- G0F -->
      <g style="fill:#262626;" transform="translate(46.744977 183.904159)rotate(-90)scale(0.077 -0.077)">
       <defs>
        <path d="M 59.515625 10.40625 
L 59.515625 29.984375 
L 43.40625 29.984375 
L 43.40625 38.09375 
L 69.28125 38.09375 
L 69.28125 6.78125 
Q 63.578125 2.734375 56.6875 0.65625 
Q 49.8125 -1.421875 42 -1.421875 
Q 24.90625 -1.421875 15.25 8.5625 
Q 5.609375 18.5625 5.609375 36.375 
Q 5.609375 54.25 15.25 64.234375 
Q 24.90625 74.21875 42 74.21875 
Q 49.125 74.21875 55.546875 72.453125 
Q 61.96875 70.703125 67.390625 67.28125 
L 67.390625 56.78125 
Q 61.921875 61.421875 55.765625 63.765625 
Q 49.609375 66.109375 42.828125 66.109375 
Q 29.4375 66.109375 22.71875 58.640625 
Q 16.015625 51.171875 16.015625 36.375 
Q 16.015625 21.625 22.71875 14.15625 
Q 29.4375 6.6875 42.828125 6.6875 
Q 48.046875 6.6875 52.140625 7.59375 
Q 56.25 8.5 59.515625 10.40625 
z
" id="DejaVuSans-71"/>
        <path d="M 31.78125 66.40625 
Q 24.171875 66.40625 20.328125 58.90625 
Q 16.5 51.421875 16.5 36.375 
Q 16.5 21.390625 20.328125 13.890625 
Q 24.171875 6.390625 31.78125 6.390625 
Q 39.453125 6.390625 43.28125 13.890625 
Q 47.125 21.390625 47.125 36.375 
Q 47.125 51.421875 43.28125 58.90625 
Q 39.453125 66.40625 31.78125 66.40625 
z
M 31.78125 74.21875 
Q 44.046875 74.21875 50.515625 64.515625 
Q 56.984375 54.828125 56.984375 36.375 
Q 56.984375 17.96875 50.515625 8.265625 
Q 44.046875 -1.421875 31.78125 -1.421875 
Q 19.53125 -1.421875 13.0625 8.265625 
Q 6.59375 17.96875 6.59375 36.375 
Q 6.59375 54.828125 13.0625 64.515625 
Q 19.53125 74.21875 31.78125 74.21875 
z
" id="DejaVuSans-48"/>
        <path d="M 9.8125 72.90625 
L 51.703125 72.90625 
L 51.703125 64.59375 
L 19.671875 64.59375 
L 19.671875 43.109375 
L 48.578125 43.109375 
L 48.578125 34.8125 
L 19.671875 34.8125 
L 19.671875 0 
L 9.8125 0 
z
" id="DejaVuSans-70"/>
       </defs>
       <use xlink:href="#DejaVuSans-71"/>
       <use x="77.490234" xlink:href="#DejaVuSans-48"/>
       <use x="141.113281" xlink:href="#DejaVuSans-70"/>
      </g>
     </g>
    </g>
    <g id="xtick_2">
     <g id="line2d_2">
      <path clip-path="url(#p74e3c262e8)" d="M 51.231647 161.610034 
L 51.231647 26.935006 
" style="fill:none;stroke:#cccccc;stroke-dasharray:1,1.65;stroke-dashoffset:0;"/>
     </g>
     <g id="text_2">
      <!-- G1F -->
      <g style="fill:#262626;" transform="translate(53.356365 183.904159)rotate(-90)scale(0.077 -0.077)">
       <defs>
        <path d="M 12.40625 8.296875 
L 28.515625 8.296875 
L 28.515625 63.921875 
L 10.984375 60.40625 
L 10.984375 69.390625 
L 28.421875 72.90625 
L 38.28125 72.90625 
L 38.28125 8.296875 
L 54.390625 8.296875 
L 54.390625 0 
L 12.40625 0 
z
" id="DejaVuSans-49"/>
       </defs>
       <use xlink:href="#DejaVuSans-71"/>
       <use x="77.490234" xlink:href="#DejaVuSans-49"/>
       <use x="141.113281" xlink:href="#DejaVuSans-70"/>
      </g>
     </g>
    </g>
    <g id="xtick_3">
     <g id="line2d_3">
      <path clip-path="url(#p74e3c262e8)" d="M 57.843035 161.610034 
L 57.843035 26.935006 
" style="fill:none;stroke:#cccccc;stroke-dasharray:1,1.65;stroke-dashoffset:0;"/>
     </g>
     <g id="text_3">
      <!-- G2F -->
      <g style="fill:#262626;" transform="translate(59.967754 183.904159)rotate(-90)scale(0.077 -0.077)">
       <defs>
        <path d="M 19.1875 8.296875 
L 53.609375 8.296875 
L 53.609375 0 
L 7.328125 0 
L 7.328125 8.296875 
Q 12.9375 14.109375 22.625 23.890625 
Q 32.328125 33.6875 34.8125 36.53125 
Q 39.546875 41.84375 41.421875 45.53125 
Q 43.3125 49.21875 43.3125 52.78125 
Q 43.3125 58.59375 39.234375 62.25 
Q 35.15625 65.921875 28.609375 65.921875 
Q 23.96875 65.921875 18.8125 64.3125 
Q 13.671875 62.703125 7.8125 59.421875 
L 7.8125 69.390625 
Q 13.765625 71.78125 18.9375 73 
Q 24.125 74.21875 28.421875 74.21875 
Q 39.75 74.21875 46.484375 68.546875 
Q 53.21875 62.890625 53.21875 53.421875 
Q 53.21875 48.921875 51.53125 44.890625 
Q 49.859375 40.875 45.40625 35.40625 
Q 44.1875 33.984375 37.640625 27.21875 
Q 31.109375 20.453125 19.1875 8.296875 
z
" id="DejaVuSans-50"/>
       </defs>
       <use xlink:href="#DejaVuSans-71"/>
       <use x="77.490234" xlink:href="#DejaVuSans-50"/>
       <use x="141.113281" xlink:href="#DejaVuSans-70"/>
      </g>
     </g>
    </g>
    <g id="xtick_4">
     <g id="line2d_4">
      <path clip-path="url(#p74e3c262e8)" d="M 64.454423 161.610034 
L 64.454423 26.935006 
" style="fill:none;stroke:#cccccc;stroke-dasharray:1,1.65;stroke-dashoffset:0;"/>
     </g>
     <g id="text_4">
      <!-- G0FN -->
      <g style="fill:#262626;" transform="translate(66.579142 189.664722)rotate(-90)scale(0.077 -0.077)">
       <defs>
        <path d="M 9.8125 72.90625 
L 23.09375 72.90625 
L 55.421875 11.921875 
L 55.421875 72.90625 
L 64.984375 72.90625 
L 64.984375 0 
L 51.703125 0 
L 19.390625 60.984375 
L 19.390625 0 
L 9.8125 0 
z
" id="DejaVuSans-78"/>
       </defs>
       <use xlink:href="#DejaVuSans-71"/>
       <use x="77.490234" xlink:href="#DejaVuSans-48"/>
       <use x="141.113281" xlink:href="#DejaVuSans-70"/>
       <use x="198.632812" xlink:href="#DejaVuSans-78"/>
      </g>
     </g>
    </g>
    <g id="xtick_5">
     <g id="line2d_5">
      <path clip-path="url(#p74e3c262e8)" d="M 71.065811 161.610034 
L 71.065811 26.935006 
" style="fill:none;stroke:#cccccc;stroke-dasharray:1,1.65;stroke-dashoffset:0;"/>
     </g>
     <g id="text_5">
      <!-- G1FN -->
      <g style="fill:#262626;" transform="translate(73.19053 189.664722)rotate(-90)scale(0.077 -0.077)">
       <use xlink:href="#DejaVuSans-71"/>
       <use x="77.490234" xlink:href="#DejaVuSans-49"/>
       <use x="141.113281" xlink:href="#DejaVuSans-70"/>
       <use x="198.632812" xlink:href="#DejaVuSans-78"/>
      </g>
     </g>
    </g>
    <g id="xtick_6">
     <g id="line2d_6">
      <path clip-path="url(#p74e3c262e8)" d="M 77.677199 161.610034 
L 77.677199 26.935006 
" style="fill:none;stroke:#cccccc;stroke-dasharray:1,1.65;stroke-dashoffset:0;"/>
     </g>
     <g id="text_6">
      <!-- G2FN -->
      <g style="fill:#262626;" transform="translate(79.801918 189.664722)rotate(-90)scale(0.077 -0.077)">
       <use xlink:href="#DejaVuSans-71"/>
       <use x="77.490234" xlink:href="#DejaVuSans-50"/>
       <use x="141.113281" xlink:href="#DejaVuSans-70"/>
       <use x="198.632812" xlink:href="#DejaVuSans-78"/>
      </g>
     </g>
    </g>
    <g id="xtick_7">
     <g id="line2d_7">
      <path clip-path="url(#p74e3c262e8)" d="M 84.288587 161.610034 
L 84.288587 26.935006 
" style="fill:none;stroke:#cccccc;stroke-dasharray:1,1.65;stroke-dashoffset:0;"/>
     </g>
     <g id="text_7">
      <!-- G1FS -->
      <g style="fill:#262626;" transform="translate(86.413306 188.657706)rotate(-90)scale(0.077 -0.077)">
       <defs>
        <path d="M 53.515625 70.515625 
L 53.515625 60.890625 
Q 47.90625 63.578125 42.921875 64.890625 
Q 37.9375 66.21875 33.296875 66.21875 
Q 25.25 66.21875 20.875 63.09375 
Q 16.5 59.96875 16.5 54.203125 
Q 16.5 49.359375 19.40625 46.890625 
Q 22.3125 44.4375 30.421875 42.921875 
L 36.375 41.703125 
Q 47.40625 39.59375 52.65625 34.296875 
Q 57.90625 29 57.90625 20.125 
Q 57.90625 9.515625 50.796875 4.046875 
Q 43.703125 -1.421875 29.984375 -1.421875 
Q 24.8125 -1.421875 18.96875 -0.25 
Q 13.140625 0.921875 6.890625 3.21875 
L 6.890625 13.375 
Q 12.890625 10.015625 18.65625 8.296875 
Q 24.421875 6.59375 29.984375 6.59375 
Q 38.421875 6.59375 43.015625 9.90625 
Q 47.609375 13.234375 47.609375 19.390625 
Q 47.609375 24.75 44.3125 27.78125 
Q 41.015625 30.8125 33.5 32.328125 
L 27.484375 33.5 
Q 16.453125 35.6875 11.515625 40.375 
Q 6.59375 45.0625 6.59375 53.421875 
Q 6.59375 63.09375 13.40625 68.65625 
Q 20.21875 74.21875 32.171875 74.21875 
Q 37.3125 74.21875 42.625 73.28125 
Q 47.953125 72.359375 53.515625 70.515625 
z
" id="DejaVuSans-83"/>
       </defs>
       <use xlink:href="#DejaVuSans-71"/>
       <use x="77.490234" xlink:href="#DejaVuSans-49"/>
       <use x="141.113281" xlink:href="#DejaVuSans-70"/>
       <use x="196.882812" xlink:href="#DejaVuSans-83"/>
      </g>
     </g>
    </g>
    <g id="xtick_8">
     <g id="line2d_8">
      <path clip-path="url(#p74e3c262e8)" d="M 90.899975 161.610034 
L 90.899975 26.935006 
" style="fill:none;stroke:#cccccc;stroke-dasharray:1,1.65;stroke-dashoffset:0;"/>
     </g>
     <g id="text_8">
      <!-- G2FS -->
      <g style="fill:#262626;" transform="translate(93.024694 188.657706)rotate(-90)scale(0.077 -0.077)">
       <use xlink:href="#DejaVuSans-71"/>
       <use x="77.490234" xlink:href="#DejaVuSans-50"/>
       <use x="141.113281" xlink:href="#DejaVuSans-70"/>
       <use x="196.882812" xlink:href="#DejaVuSans-83"/>
      </g>
     </g>
    </g>
    <g id="xtick_9">
     <g id="line2d_9">
      <path clip-path="url(#p74e3c262e8)" d="M 97.511364 161.610034 
L 97.511364 26.935006 
" style="fill:none;stroke:#cccccc;stroke-dasharray:1,1.65;stroke-dashoffset:0;"/>
     </g>
     <g id="text_9">
      <!-- G2FS2 -->
      <g style="fill:#262626;" transform="translate(99.636082 193.556831)rotate(-90)scale(0.077 -0.077)">
       <use xlink:href="#DejaVuSans-71"/>
       <use x="77.490234" xlink:href="#DejaVuSans-50"/>
       <use x="141.113281" xlink:href="#DejaVuSans-70"/>
       <use x="196.882812" xlink:href="#DejaVuSans-83"/>
       <use x="260.359375" xlink:href="#DejaVuSans-50"/>
      </g>
     </g>
    </g>
    <g id="xtick_10">
     <g id="line2d_10">
      <path clip-path="url(#p74e3c262e8)" d="M 104.122752 161.610034 
L 104.122752 26.935006 
" style="fill:none;stroke:#cccccc;stroke-dasharray:1,1.65;stroke-dashoffset:0;"/>
     </g>
     <g id="text_10">
      <!-- G1FNS -->
      <g style="fill:#262626;" transform="translate(106.247471 194.553019)rotate(-90)scale(0.077 -0.077)">
       <use xlink:href="#DejaVuSans-71"/>
       <use x="77.490234" xlink:href="#DejaVuSans-49"/>
       <use x="141.113281" xlink:href="#DejaVuSans-70"/>
       <use x="198.632812" xlink:href="#DejaVuSans-78"/>
       <use x="273.4375" xlink:href="#DejaVuSans-83"/>
      </g>
     </g>
    </g>
    <g id="xtick_11">
     <g id="line2d_11">
      <path clip-path="url(#p74e3c262e8)" d="M 110.73414 161.610034 
L 110.73414 26.935006 
" style="fill:none;stroke:#cccccc;stroke-dasharray:1,1.65;stroke-dashoffset:0;"/>
     </g>
     <g id="text_11">
      <!-- G2FNS -->
      <g style="fill:#262626;" transform="translate(112.858859 194.553019)rotate(-90)scale(0.077 -0.077)">
       <use xlink:href="#DejaVuSans-71"/>
       <use x="77.490234" xlink:href="#DejaVuSans-50"/>
       <use x="141.113281" xlink:href="#DejaVuSans-70"/>
       <use x="198.632812" xlink:href="#DejaVuSans-78"/>
       <use x="273.4375" xlink:href="#DejaVuSans-83"/>
      </g>
     </g>
    </g>
    <g id="xtick_12">
     <g id="line2d_12">
      <path clip-path="url(#p74e3c262e8)" d="M 117.345528 161.610034 
L 117.345528 26.935006 
" style="fill:none;stroke:#cccccc;stroke-dasharray:1,1.65;stroke-dashoffset:0;"/>
     </g>
     <g id="text_12">
      <!-- G2FNS2 -->
      <g style="fill:#262626;" transform="translate(119.470247 199.452144)rotate(-90)scale(0.077 -0.077)">
       <use xlink:href="#DejaVuSans-71"/>
       <use x="77.490234" xlink:href="#DejaVuSans-50"/>
       <use x="141.113281" xlink:href="#DejaVuSans-70"/>
       <use x="198.632812" xlink:href="#DejaVuSans-78"/>
       <use x="273.4375" xlink:href="#DejaVuSans-83"/>
       <use x="336.914062" xlink:href="#DejaVuSans-50"/>
      </g>
     </g>
    </g>
    <g id="xtick_13">
     <g id="line2d_13">
      <path clip-path="url(#p74e3c262e8)" d="M 123.956916 161.610034 
L 123.956916 26.935006 
" style="fill:none;stroke:#cccccc;stroke-dasharray:1,1.65;stroke-dashoffset:0;"/>
     </g>
     <g id="text_13">
      <!-- G0 -->
      <g style="fill:#262626;" transform="translate(126.081635 179.475456)rotate(-90)scale(0.077 -0.077)">
       <use xlink:href="#DejaVuSans-71"/>
       <use x="77.490234" xlink:href="#DejaVuSans-48"/>
      </g>
     </g>
    </g>
    <g id="xtick_14">
     <g id="line2d_14">
      <path clip-path="url(#p74e3c262e8)" d="M 130.568304 161.610034 
L 130.568304 26.935006 
" style="fill:none;stroke:#cccccc;stroke-dasharray:1,1.65;stroke-dashoffset:0;"/>
     </g>
     <g id="text_14">
      <!-- G1 -->
      <g style="fill:#262626;" transform="translate(132.693023 179.475456)rotate(-90)scale(0.077 -0.077)">
       <use xlink:href="#DejaVuSans-71"/>
       <use x="77.490234" xlink:href="#DejaVuSans-49"/>
      </g>
     </g>
    </g>
    <g id="xtick_15">
     <g id="line2d_15">
      <path clip-path="url(#p74e3c262e8)" d="M 137.179692 161.610034 
L 137.179692 26.935006 
" style="fill:none;stroke:#cccccc;stroke-dasharray:1,1.65;stroke-dashoffset:0;"/>
     </g>
     <g id="text_15">
      <!-- G2 -->
      <g style="fill:#262626;" transform="translate(139.304411 179.475456)rotate(-90)scale(0.077 -0.077)">
       <use xlink:href="#DejaVuSans-71"/>
       <use x="77.490234" xlink:href="#DejaVuSans-50"/>
      </g>
     </g>
    </g>
    <g id="xtick_16">
     <g id="line2d_16">
      <path clip-path="url(#p74e3c262e8)" d="M 143.791081 161.610034 
L 143.791081 26.935006 
" style="fill:none;stroke:#cccccc;stroke-dasharray:1,1.65;stroke-dashoffset:0;"/>
     </g>
     <g id="text_16">
      <!-- G0N -->
      <g style="fill:#262626;" transform="translate(145.915799 185.236019)rotate(-90)scale(0.077 -0.077)">
       <use xlink:href="#DejaVuSans-71"/>
       <use x="77.490234" xlink:href="#DejaVuSans-48"/>
       <use x="141.113281" xlink:href="#DejaVuSans-78"/>
      </g>
     </g>
    </g>
    <g id="xtick_17">
     <g id="line2d_17">
      <path clip-path="url(#p74e3c262e8)" d="M 150.402469 161.610034 
L 150.402469 26.935006 
" style="fill:none;stroke:#cccccc;stroke-dasharray:1,1.65;stroke-dashoffset:0;"/>
     </g>
     <g id="text_17">
      <!-- G1N -->
      <g style="fill:#262626;" transform="translate(152.527187 185.236019)rotate(-90)scale(0.077 -0.077)">
       <use xlink:href="#DejaVuSans-71"/>
       <use x="77.490234" xlink:href="#DejaVuSans-49"/>
       <use x="141.113281" xlink:href="#DejaVuSans-78"/>
      </g>
     </g>
    </g>
    <g id="xtick_18">
     <g id="line2d_18">
      <path clip-path="url(#p74e3c262e8)" d="M 157.013857 161.610034 
L 157.013857 26.935006 
" style="fill:none;stroke:#cccccc;stroke-dasharray:1,1.65;stroke-dashoffset:0;"/>
     </g>
     <g id="text_18">
      <!-- G2N -->
      <g style="fill:#262626;" transform="translate(159.138576 185.236019)rotate(-90)scale(0.077 -0.077)">
       <use xlink:href="#DejaVuSans-71"/>
       <use x="77.490234" xlink:href="#DejaVuSans-50"/>
       <use x="141.113281" xlink:href="#DejaVuSans-78"/>
      </g>
     </g>
    </g>
    <g id="xtick_19">
     <g id="line2d_19">
      <path clip-path="url(#p74e3c262e8)" d="M 163.625245 161.610034 
L 163.625245 26.935006 
" style="fill:none;stroke:#cccccc;stroke-dasharray:1,1.65;stroke-dashoffset:0;"/>
     </g>
     <g id="text_19">
      <!-- G1S -->
      <g style="fill:#262626;" transform="translate(165.749964 184.363753)rotate(-90)scale(0.077 -0.077)">
       <use xlink:href="#DejaVuSans-71"/>
       <use x="77.490234" xlink:href="#DejaVuSans-49"/>
       <use x="141.113281" xlink:href="#DejaVuSans-83"/>
      </g>
     </g>
    </g>
    <g id="xtick_20">
     <g id="line2d_20">
      <path clip-path="url(#p74e3c262e8)" d="M 170.236633 161.610034 
L 170.236633 26.935006 
" style="fill:none;stroke:#cccccc;stroke-dasharray:1,1.65;stroke-dashoffset:0;"/>
     </g>
     <g id="text_20">
      <!-- G2S -->
      <g style="fill:#262626;" transform="translate(172.361352 184.363753)rotate(-90)scale(0.077 -0.077)">
       <use xlink:href="#DejaVuSans-71"/>
       <use x="77.490234" xlink:href="#DejaVuSans-50"/>
       <use x="141.113281" xlink:href="#DejaVuSans-83"/>
      </g>
     </g>
    </g>
    <g id="xtick_21">
     <g id="line2d_21">
      <path clip-path="url(#p74e3c262e8)" d="M 176.848021 161.610034 
L 176.848021 26.935006 
" style="fill:none;stroke:#cccccc;stroke-dasharray:1,1.65;stroke-dashoffset:0;"/>
     </g>
     <g id="text_21">
      <!-- G2S2 -->
      <g style="fill:#262626;" transform="translate(178.97274 189.262878)rotate(-90)scale(0.077 -0.077)">
       <use xlink:href="#DejaVuSans-71"/>
       <use x="77.490234" xlink:href="#DejaVuSans-50"/>
       <use x="141.113281" xlink:href="#DejaVuSans-83"/>
       <use x="204.589844" xlink:href="#DejaVuSans-50"/>
      </g>
     </g>
    </g>
    <g id="xtick_22">
     <g id="line2d_22">
      <path clip-path="url(#p74e3c262e8)" d="M 183.459409 161.610034 
L 183.459409 26.935006 
" style="fill:none;stroke:#cccccc;stroke-dasharray:1,1.65;stroke-dashoffset:0;"/>
     </g>
     <g id="text_22">
      <!-- G1NS -->
      <g style="fill:#262626;" transform="translate(185.584128 190.124315)rotate(-90)scale(0.077 -0.077)">
       <use xlink:href="#DejaVuSans-71"/>
       <use x="77.490234" xlink:href="#DejaVuSans-49"/>
       <use x="141.113281" xlink:href="#DejaVuSans-78"/>
       <use x="215.917969" xlink:href="#DejaVuSans-83"/>
      </g>
     </g>
    </g>
    <g id="xtick_23">
     <g id="line2d_23">
      <path clip-path="url(#p74e3c262e8)" d="M 190.070798 161.610034 
L 190.070798 26.935006 
" style="fill:none;stroke:#cccccc;stroke-dasharray:1,1.65;stroke-dashoffset:0;"/>
     </g>
     <g id="text_23">
      <!-- G2NS -->
      <g style="fill:#262626;" transform="translate(192.195516 190.124315)rotate(-90)scale(0.077 -0.077)">
       <use xlink:href="#DejaVuSans-71"/>
       <use x="77.490234" xlink:href="#DejaVuSans-50"/>
       <use x="141.113281" xlink:href="#DejaVuSans-78"/>
       <use x="215.917969" xlink:href="#DejaVuSans-83"/>
      </g>
     </g>
    </g>
    <g id="xtick_24">
     <g id="line2d_24">
      <path clip-path="url(#p74e3c262e8)" d="M 196.682186 161.610034 
L 196.682186 26.935006 
" style="fill:none;stroke:#cccccc;stroke-dasharray:1,1.65;stroke-dashoffset:0;"/>
     </g>
     <g id="text_24">
      <!-- G2NS2 -->
      <g style="fill:#262626;" transform="translate(198.806904 195.02344)rotate(-90)scale(0.077 -0.077)">
       <use xlink:href="#DejaVuSans-71"/>
       <use x="77.490234" xlink:href="#DejaVuSans-50"/>
       <use x="141.113281" xlink:href="#DejaVuSans-78"/>
       <use x="215.917969" xlink:href="#DejaVuSans-83"/>
       <use x="279.394531" xlink:href="#DejaVuSans-50"/>
      </g>
     </g>
    </g>
    <g id="text_25">
     <!-- Glycans -->
     <g style="fill:#262626;" transform="translate(104.011347 209.834831)scale(0.084 -0.084)">
      <defs>
       <path d="M 9.421875 75.984375 
L 18.40625 75.984375 
L 18.40625 0 
L 9.421875 0 
z
" id="DejaVuSans-108"/>
       <path d="M 32.171875 -5.078125 
Q 28.375 -14.84375 24.75 -17.8125 
Q 21.140625 -20.796875 15.09375 -20.796875 
L 7.90625 -20.796875 
L 7.90625 -13.28125 
L 13.1875 -13.28125 
Q 16.890625 -13.28125 18.9375 -11.515625 
Q 21 -9.765625 23.484375 -3.21875 
L 25.09375 0.875 
L 2.984375 54.6875 
L 12.5 54.6875 
L 29.59375 11.921875 
L 46.6875 54.6875 
L 56.203125 54.6875 
z
" id="DejaVuSans-121"/>
       <path d="M 48.78125 52.59375 
L 48.78125 44.1875 
Q 44.96875 46.296875 41.140625 47.34375 
Q 37.3125 48.390625 33.40625 48.390625 
Q 24.65625 48.390625 19.8125 42.84375 
Q 14.984375 37.3125 14.984375 27.296875 
Q 14.984375 17.28125 19.8125 11.734375 
Q 24.65625 6.203125 33.40625 6.203125 
Q 37.3125 6.203125 41.140625 7.25 
Q 44.96875 8.296875 48.78125 10.40625 
L 48.78125 2.09375 
Q 45.015625 0.34375 40.984375 -0.53125 
Q 36.96875 -1.421875 32.421875 -1.421875 
Q 20.0625 -1.421875 12.78125 6.34375 
Q 5.515625 14.109375 5.515625 27.296875 
Q 5.515625 40.671875 12.859375 48.328125 
Q 20.21875 56 33.015625 56 
Q 37.15625 56 41.109375 55.140625 
Q 45.0625 54.296875 48.78125 52.59375 
z
" id="DejaVuSans-99"/>
       <path d="M 34.28125 27.484375 
Q 23.390625 27.484375 19.1875 25 
Q 14.984375 22.515625 14.984375 16.5 
Q 14.984375 11.71875 18.140625 8.90625 
Q 21.296875 6.109375 26.703125 6.109375 
Q 34.1875 6.109375 38.703125 11.40625 
Q 43.21875 16.703125 43.21875 25.484375 
L 43.21875 27.484375 
z
M 52.203125 31.203125 
L 52.203125 0 
L 43.21875 0 
L 43.21875 8.296875 
Q 40.140625 3.328125 35.546875 0.953125 
Q 30.953125 -1.421875 24.3125 -1.421875 
Q 15.921875 -1.421875 10.953125 3.296875 
Q 6 8.015625 6 15.921875 
Q 6 25.140625 12.171875 29.828125 
Q 18.359375 34.515625 30.609375 34.515625 
L 43.21875 34.515625 
L 43.21875 35.40625 
Q 43.21875 41.609375 39.140625 45 
Q 35.0625 48.390625 27.6875 48.390625 
Q 23 48.390625 18.546875 47.265625 
Q 14.109375 46.140625 10.015625 43.890625 
L 10.015625 52.203125 
Q 14.9375 54.109375 19.578125 55.046875 
Q 24.21875 56 28.609375 56 
Q 40.484375 56 46.34375 49.84375 
Q 52.203125 43.703125 52.203125 31.203125 
z
" id="DejaVuSans-97"/>
       <path d="M 54.890625 33.015625 
L 54.890625 0 
L 45.90625 0 
L 45.90625 32.71875 
Q 45.90625 40.484375 42.875 44.328125 
Q 39.84375 48.1875 33.796875 48.1875 
Q 26.515625 48.1875 22.3125 43.546875 
Q 18.109375 38.921875 18.109375 30.90625 
L 18.109375 0 
L 9.078125 0 
L 9.078125 54.6875 
L 18.109375 54.6875 
L 18.109375 46.1875 
Q 21.34375 51.125 25.703125 53.5625 
Q 30.078125 56 35.796875 56 
Q 45.21875 56 50.046875 50.171875 
Q 54.890625 44.34375 54.890625 33.015625 
z
" id="DejaVuSans-110"/>
       <path d="M 44.28125 53.078125 
L 44.28125 44.578125 
Q 40.484375 46.53125 36.375 47.5 
Q 32.28125 48.484375 27.875 48.484375 
Q 21.1875 48.484375 17.84375 46.4375 
Q 14.5 44.390625 14.5 40.28125 
Q 14.5 37.15625 16.890625 35.375 
Q 19.28125 33.59375 26.515625 31.984375 
L 29.59375 31.296875 
Q 39.15625 29.25 43.1875 25.515625 
Q 47.21875 21.78125 47.21875 15.09375 
Q 47.21875 7.46875 41.1875 3.015625 
Q 35.15625 -1.421875 24.609375 -1.421875 
Q 20.21875 -1.421875 15.453125 -0.5625 
Q 10.6875 0.296875 5.421875 2 
L 5.421875 11.28125 
Q 10.40625 8.6875 15.234375 7.390625 
Q 20.0625 6.109375 24.8125 6.109375 
Q 31.15625 6.109375 34.5625 8.28125 
Q 37.984375 10.453125 37.984375 14.40625 
Q 37.984375 18.0625 35.515625 20.015625 
Q 33.0625 21.96875 24.703125 23.78125 
L 21.578125 24.515625 
Q 13.234375 26.265625 9.515625 29.90625 
Q 5.8125 33.546875 5.8125 39.890625 
Q 5.8125 47.609375 11.28125 51.796875 
Q 16.75 56 26.8125 56 
Q 31.78125 56 36.171875 55.265625 
Q 40.578125 54.546875 44.28125 53.078125 
z
" id="DejaVuSans-115"/>
      </defs>
      <use xlink:href="#DejaVuSans-71"/>
      <use x="77.490234" xlink:href="#DejaVuSans-108"/>
      <use x="105.273438" xlink:href="#DejaVuSans-121"/>
      <use x="164.453125" xlink:href="#DejaVuSans-99"/>
      <use x="219.433594" xlink:href="#DejaVuSans-97"/>
      <use x="280.712891" xlink:href="#DejaVuSans-110"/>
      <use x="344.091797" xlink:href="#DejaVuSans-115"/>
     </g>
    </g>
   </g>
   <g id="matplotlib.axis_2">
    <g id="ytick_1">
     <g id="line2d_25">
      <path clip-path="url(#p74e3c262e8)" d="M 34.471778 161.610034 
L 206.830666 161.610034 
" style="fill:none;stroke:#cccccc;stroke-dasharray:1,1.65;stroke-dashoffset:0;"/>
     </g>
     <g id="text_26">
      <!-- 0.0 -->
      <g style="fill:#262626;" transform="translate(15.226371 164.535433)scale(0.077 -0.077)">
       <defs>
        <path d="M 10.6875 12.40625 
L 21 12.40625 
L 21 0 
L 10.6875 0 
z
" id="DejaVuSans-46"/>
       </defs>
       <use xlink:href="#DejaVuSans-48"/>
       <use x="63.623047" xlink:href="#DejaVuSans-46"/>
       <use x="95.410156" xlink:href="#DejaVuSans-48"/>
      </g>
     </g>
    </g>
    <g id="ytick_2">
     <g id="line2d_26">
      <path clip-path="url(#p74e3c262e8)" d="M 34.471778 142.571888 
L 206.830666 142.571888 
" style="fill:none;stroke:#cccccc;stroke-dasharray:1,1.65;stroke-dashoffset:0;"/>
     </g>
     <g id="text_27">
      <!-- 0.1 -->
      <g style="fill:#262626;" transform="translate(15.226371 145.497286)scale(0.077 -0.077)">
       <use xlink:href="#DejaVuSans-48"/>
       <use x="63.623047" xlink:href="#DejaVuSans-46"/>
       <use x="95.410156" xlink:href="#DejaVuSans-49"/>
      </g>
     </g>
    </g>
    <g id="ytick_3">
     <g id="line2d_27">
      <path clip-path="url(#p74e3c262e8)" d="M 34.471778 123.533741 
L 206.830666 123.533741 
" style="fill:none;stroke:#cccccc;stroke-dasharray:1,1.65;stroke-dashoffset:0;"/>
     </g>
     <g id="text_28">
      <!-- 0.2 -->
      <g style="fill:#262626;" transform="translate(15.226371 126.459139)scale(0.077 -0.077)">
       <use xlink:href="#DejaVuSans-48"/>
       <use x="63.623047" xlink:href="#DejaVuSans-46"/>
       <use x="95.410156" xlink:href="#DejaVuSans-50"/>
      </g>
     </g>
    </g>
    <g id="ytick_4">
     <g id="line2d_28">
      <path clip-path="url(#p74e3c262e8)" d="M 34.471778 104.495594 
L 206.830666 104.495594 
" style="fill:none;stroke:#cccccc;stroke-dasharray:1,1.65;stroke-dashoffset:0;"/>
     </g>
     <g id="text_29">
      <!-- 0.3 -->
      <g style="fill:#262626;" transform="translate(15.226371 107.420993)scale(0.077 -0.077)">
       <defs>
        <path d="M 40.578125 39.3125 
Q 47.65625 37.796875 51.625 33 
Q 55.609375 28.21875 55.609375 21.1875 
Q 55.609375 10.40625 48.1875 4.484375 
Q 40.765625 -1.421875 27.09375 -1.421875 
Q 22.515625 -1.421875 17.65625 -0.515625 
Q 12.796875 0.390625 7.625 2.203125 
L 7.625 11.71875 
Q 11.71875 9.328125 16.59375 8.109375 
Q 21.484375 6.890625 26.8125 6.890625 
Q 36.078125 6.890625 40.9375 10.546875 
Q 45.796875 14.203125 45.796875 21.1875 
Q 45.796875 27.640625 41.28125 31.265625 
Q 36.765625 34.90625 28.71875 34.90625 
L 20.21875 34.90625 
L 20.21875 43.015625 
L 29.109375 43.015625 
Q 36.375 43.015625 40.234375 45.921875 
Q 44.09375 48.828125 44.09375 54.296875 
Q 44.09375 59.90625 40.109375 62.90625 
Q 36.140625 65.921875 28.71875 65.921875 
Q 24.65625 65.921875 20.015625 65.03125 
Q 15.375 64.15625 9.8125 62.3125 
L 9.8125 71.09375 
Q 15.4375 72.65625 20.34375 73.4375 
Q 25.25 74.21875 29.59375 74.21875 
Q 40.828125 74.21875 47.359375 69.109375 
Q 53.90625 64.015625 53.90625 55.328125 
Q 53.90625 49.265625 50.4375 45.09375 
Q 46.96875 40.921875 40.578125 39.3125 
z
" id="DejaVuSans-51"/>
       </defs>
       <use xlink:href="#DejaVuSans-48"/>
       <use x="63.623047" xlink:href="#DejaVuSans-46"/>
       <use x="95.410156" xlink:href="#DejaVuSans-51"/>
      </g>
     </g>
    </g>
    <g id="ytick_5">
     <g id="line2d_29">
      <path clip-path="url(#p74e3c262e8)" d="M 34.471778 85.457448 
L 206.830666 85.457448 
" style="fill:none;stroke:#cccccc;stroke-dasharray:1,1.65;stroke-dashoffset:0;"/>
     </g>
     <g id="text_30">
      <!-- 0.4 -->
      <g style="fill:#262626;" transform="translate(15.226371 88.382846)scale(0.077 -0.077)">
       <defs>
        <path d="M 37.796875 64.3125 
L 12.890625 25.390625 
L 37.796875 25.390625 
z
M 35.203125 72.90625 
L 47.609375 72.90625 
L 47.609375 25.390625 
L 58.015625 25.390625 
L 58.015625 17.1875 
L 47.609375 17.1875 
L 47.609375 0 
L 37.796875 0 
L 37.796875 17.1875 
L 4.890625 17.1875 
L 4.890625 26.703125 
z
" id="DejaVuSans-52"/>
       </defs>
       <use xlink:href="#DejaVuSans-48"/>
       <use x="63.623047" xlink:href="#DejaVuSans-46"/>
       <use x="95.410156" xlink:href="#DejaVuSans-52"/>
      </g>
     </g>
    </g>
    <g id="ytick_6">
     <g id="line2d_30">
      <path clip-path="url(#p74e3c262e8)" d="M 34.471778 66.419301 
L 206.830666 66.419301 
" style="fill:none;stroke:#cccccc;stroke-dasharray:1,1.65;stroke-dashoffset:0;"/>
     </g>
     <g id="text_31">
      <!-- 0.5 -->
      <g style="fill:#262626;" transform="translate(15.226371 69.344699)scale(0.077 -0.077)">
       <defs>
        <path d="M 10.796875 72.90625 
L 49.515625 72.90625 
L 49.515625 64.59375 
L 19.828125 64.59375 
L 19.828125 46.734375 
Q 21.96875 47.46875 24.109375 47.828125 
Q 26.265625 48.1875 28.421875 48.1875 
Q 40.625 48.1875 47.75 41.5 
Q 54.890625 34.8125 54.890625 23.390625 
Q 54.890625 11.625 47.5625 5.09375 
Q 40.234375 -1.421875 26.90625 -1.421875 
Q 22.3125 -1.421875 17.546875 -0.640625 
Q 12.796875 0.140625 7.71875 1.703125 
L 7.71875 11.625 
Q 12.109375 9.234375 16.796875 8.0625 
Q 21.484375 6.890625 26.703125 6.890625 
Q 35.15625 6.890625 40.078125 11.328125 
Q 45.015625 15.765625 45.015625 23.390625 
Q 45.015625 31 40.078125 35.4375 
Q 35.15625 39.890625 26.703125 39.890625 
Q 22.75 39.890625 18.8125 39.015625 
Q 14.890625 38.140625 10.796875 36.28125 
z
" id="DejaVuSans-53"/>
       </defs>
       <use xlink:href="#DejaVuSans-48"/>
       <use x="63.623047" xlink:href="#DejaVuSans-46"/>
       <use x="95.410156" xlink:href="#DejaVuSans-53"/>
      </g>
     </g>
    </g>
    <g id="ytick_7">
     <g id="line2d_31">
      <path clip-path="url(#p74e3c262e8)" d="M 34.471778 47.381154 
L 206.830666 47.381154 
" style="fill:none;stroke:#cccccc;stroke-dasharray:1,1.65;stroke-dashoffset:0;"/>
     </g>
     <g id="text_32">
      <!-- 0.6 -->
      <g style="fill:#262626;" transform="translate(15.226371 50.306553)scale(0.077 -0.077)">
       <defs>
        <path d="M 33.015625 40.375 
Q 26.375 40.375 22.484375 35.828125 
Q 18.609375 31.296875 18.609375 23.390625 
Q 18.609375 15.53125 22.484375 10.953125 
Q 26.375 6.390625 33.015625 6.390625 
Q 39.65625 6.390625 43.53125 10.953125 
Q 47.40625 15.53125 47.40625 23.390625 
Q 47.40625 31.296875 43.53125 35.828125 
Q 39.65625 40.375 33.015625 40.375 
z
M 52.59375 71.296875 
L 52.59375 62.3125 
Q 48.875 64.0625 45.09375 64.984375 
Q 41.3125 65.921875 37.59375 65.921875 
Q 27.828125 65.921875 22.671875 59.328125 
Q 17.53125 52.734375 16.796875 39.40625 
Q 19.671875 43.65625 24.015625 45.921875 
Q 28.375 48.1875 33.59375 48.1875 
Q 44.578125 48.1875 50.953125 41.515625 
Q 57.328125 34.859375 57.328125 23.390625 
Q 57.328125 12.15625 50.6875 5.359375 
Q 44.046875 -1.421875 33.015625 -1.421875 
Q 20.359375 -1.421875 13.671875 8.265625 
Q 6.984375 17.96875 6.984375 36.375 
Q 6.984375 53.65625 15.1875 63.9375 
Q 23.390625 74.21875 37.203125 74.21875 
Q 40.921875 74.21875 44.703125 73.484375 
Q 48.484375 72.75 52.59375 71.296875 
z
" id="DejaVuSans-54"/>
       </defs>
       <use xlink:href="#DejaVuSans-48"/>
       <use x="63.623047" xlink:href="#DejaVuSans-46"/>
       <use x="95.410156" xlink:href="#DejaVuSans-54"/>
      </g>
     </g>
    </g>
    <g id="ytick_8">
     <g id="line2d_32">
      <path clip-path="url(#p74e3c262e8)" d="M 34.471778 28.343008 
L 206.830666 28.343008 
" style="fill:none;stroke:#cccccc;stroke-dasharray:1,1.65;stroke-dashoffset:0;"/>
     </g>
     <g id="text_33">
      <!-- 0.7 -->
      <g style="fill:#262626;" transform="translate(15.226371 31.268406)scale(0.077 -0.077)">
       <defs>
        <path d="M 8.203125 72.90625 
L 55.078125 72.90625 
L 55.078125 68.703125 
L 28.609375 0 
L 18.3125 0 
L 43.21875 64.59375 
L 8.203125 64.59375 
z
" id="DejaVuSans-55"/>
       </defs>
       <use xlink:href="#DejaVuSans-48"/>
       <use x="63.623047" xlink:href="#DejaVuSans-46"/>
       <use x="95.410156" xlink:href="#DejaVuSans-55"/>
      </g>
     </g>
    </g>
   </g>
   <g id="patch_3">
    <path clip-path="url(#p74e3c262e8)" d="M 42.306273 161.610034 
L 44.620259 161.610034 
L 44.620259 161.610034 
L 42.306273 161.610034 
z
" style="fill:#0173b2;stroke:#ffffff;stroke-linejoin:miter;"/>
   </g>
   <g id="patch_4">
    <path clip-path="url(#p74e3c262e8)" d="M 48.917661 161.610034 
L 51.231647 161.610034 
L 51.231647 161.610034 
L 48.917661 161.610034 
z
" style="fill:#0173b2;stroke:#ffffff;stroke-linejoin:miter;"/>
   </g>
   <g id="patch_5">
    <path clip-path="url(#p74e3c262e8)" d="M 55.529049 161.610034 
L 57.843035 161.610034 
L 57.843035 161.610034 
L 55.529049 161.610034 
z
" style="fill:#0173b2;stroke:#ffffff;stroke-linejoin:miter;"/>
   </g>
   <g id="patch_6">
    <path clip-path="url(#p74e3c262e8)" d="M 62.140437 161.610034 
L 64.454423 161.610034 
L 64.454423 161.610034 
L 62.140437 161.610034 
z
" style="fill:#0173b2;stroke:#ffffff;stroke-linejoin:miter;"/>
   </g>
   <g id="patch_7">
    <path clip-path="url(#p74e3c262e8)" d="M 68.751825 161.610034 
L 71.065811 161.610034 
L 71.065811 161.610034 
L 68.751825 161.610034 
z
" style="fill:#0173b2;stroke:#ffffff;stroke-linejoin:miter;"/>
   </g>
   <g id="patch_8">
    <path clip-path="url(#p74e3c262e8)" d="M 75.363213 161.610034 
L 77.677199 161.610034 
L 77.677199 161.610034 
L 75.363213 161.610034 
z
" style="fill:#0173b2;stroke:#ffffff;stroke-linejoin:miter;"/>
   </g>
   <g id="patch_9">
    <path clip-path="url(#p74e3c262e8)" d="M 81.974602 161.610034 
L 84.288587 161.610034 
L 84.288587 161.610034 
L 81.974602 161.610034 
z
" style="fill:#0173b2;stroke:#ffffff;stroke-linejoin:miter;"/>
   </g>
   <g id="patch_10">
    <path clip-path="url(#p74e3c262e8)" d="M 88.58599 161.610034 
L 90.899975 161.610034 
L 90.899975 161.610034 
L 88.58599 161.610034 
z
" style="fill:#0173b2;stroke:#ffffff;stroke-linejoin:miter;"/>
   </g>
   <g id="patch_11">
    <path clip-path="url(#p74e3c262e8)" d="M 95.197378 161.610034 
L 97.511364 161.610034 
L 97.511364 161.610034 
L 95.197378 161.610034 
z
" style="fill:#0173b2;stroke:#ffffff;stroke-linejoin:miter;"/>
   </g>
   <g id="patch_12">
    <path clip-path="url(#p74e3c262e8)" d="M 101.808766 161.610034 
L 104.122752 161.610034 
L 104.122752 161.610034 
L 101.808766 161.610034 
z
" style="fill:#0173b2;stroke:#ffffff;stroke-linejoin:miter;"/>
   </g>
   <g id="patch_13">
    <path clip-path="url(#p74e3c262e8)" d="M 108.420154 161.610034 
L 110.73414 161.610034 
L 110.73414 161.610034 
L 108.420154 161.610034 
z
" style="fill:#0173b2;stroke:#ffffff;stroke-linejoin:miter;"/>
   </g>
   <g id="patch_14">
    <path clip-path="url(#p74e3c262e8)" d="M 115.031542 161.610034 
L 117.345528 161.610034 
L 117.345528 161.610034 
L 115.031542 161.610034 
z
" style="fill:#0173b2;stroke:#ffffff;stroke-linejoin:miter;"/>
   </g>
   <g id="patch_15">
    <path clip-path="url(#p74e3c262e8)" d="M 121.64293 161.610034 
L 123.956916 161.610034 
L 123.956916 107.009941 
L 121.64293 107.009941 
z
" style="fill:#0173b2;stroke:#ffffff;stroke-linejoin:miter;"/>
   </g>
   <g id="patch_16">
    <path clip-path="url(#p74e3c262e8)" d="M 128.254318 161.610034 
L 130.568304 161.610034 
L 130.568304 81.709685 
L 128.254318 81.709685 
z
" style="fill:#0173b2;stroke:#ffffff;stroke-linejoin:miter;"/>
   </g>
   <g id="patch_17">
    <path clip-path="url(#p74e3c262e8)" d="M 134.865707 161.610034 
L 137.179692 161.610034 
L 137.179692 71.469675 
L 134.865707 71.469675 
z
" style="fill:#0173b2;stroke:#ffffff;stroke-linejoin:miter;"/>
   </g>
   <g id="patch_18">
    <path clip-path="url(#p74e3c262e8)" d="M 141.477095 161.610034 
L 143.791081 161.610034 
L 143.791081 104.987563 
L 141.477095 104.987563 
z
" style="fill:#0173b2;stroke:#ffffff;stroke-linejoin:miter;"/>
   </g>
   <g id="patch_19">
    <path clip-path="url(#p74e3c262e8)" d="M 148.088483 161.610034 
L 150.402469 161.610034 
L 150.402469 33.348102 
L 148.088483 33.348102 
z
" style="fill:#0173b2;stroke:#ffffff;stroke-linejoin:miter;"/>
   </g>
   <g id="patch_20">
    <path clip-path="url(#p74e3c262e8)" d="M 154.699871 161.610034 
L 157.013857 161.610034 
L 157.013857 33.583893 
L 154.699871 33.583893 
z
" style="fill:#0173b2;stroke:#ffffff;stroke-linejoin:miter;"/>
   </g>
   <g id="patch_21">
    <path clip-path="url(#p74e3c262e8)" d="M 161.311259 161.610034 
L 163.625245 161.610034 
L 163.625245 161.610034 
L 161.311259 161.610034 
z
" style="fill:#0173b2;stroke:#ffffff;stroke-linejoin:miter;"/>
   </g>
   <g id="patch_22">
    <path clip-path="url(#p74e3c262e8)" d="M 167.922647 161.610034 
L 170.236633 161.610034 
L 170.236633 54.762705 
L 167.922647 54.762705 
z
" style="fill:#0173b2;stroke:#ffffff;stroke-linejoin:miter;"/>
   </g>
   <g id="patch_23">
    <path clip-path="url(#p74e3c262e8)" d="M 174.534035 161.610034 
L 176.848021 161.610034 
L 176.848021 77.710394 
L 174.534035 77.710394 
z
" style="fill:#0173b2;stroke:#ffffff;stroke-linejoin:miter;"/>
   </g>
   <g id="patch_24">
    <path clip-path="url(#p74e3c262e8)" d="M 181.145424 161.610034 
L 183.459409 161.610034 
L 183.459409 50.342934 
L 181.145424 50.342934 
z
" style="fill:#0173b2;stroke:#ffffff;stroke-linejoin:miter;"/>
   </g>
   <g id="patch_25">
    <path clip-path="url(#p74e3c262e8)" d="M 187.756812 161.610034 
L 190.070798 161.610034 
L 190.070798 118.394182 
L 187.756812 118.394182 
z
" style="fill:#0173b2;stroke:#ffffff;stroke-linejoin:miter;"/>
   </g>
   <g id="patch_26">
    <path clip-path="url(#p74e3c262e8)" d="M 194.3682 161.610034 
L 196.682186 161.610034 
L 196.682186 161.610034 
L 194.3682 161.610034 
z
" style="fill:#0173b2;stroke:#ffffff;stroke-linejoin:miter;"/>
   </g>
   <g id="patch_27">
    <path clip-path="url(#p74e3c262e8)" d="M 44.620259 161.610034 
L 46.934244 161.610034 
L 46.934244 161.610034 
L 44.620259 161.610034 
z
" style="fill:#de8f05;stroke:#ffffff;stroke-linejoin:miter;"/>
   </g>
   <g id="patch_28">
    <path clip-path="url(#p74e3c262e8)" d="M 51.231647 161.610034 
L 53.545633 161.610034 
L 53.545633 161.610034 
L 51.231647 161.610034 
z
" style="fill:#de8f05;stroke:#ffffff;stroke-linejoin:miter;"/>
   </g>
   <g id="patch_29">
    <path clip-path="url(#p74e3c262e8)" d="M 57.843035 161.610034 
L 60.157021 161.610034 
L 60.157021 161.610034 
L 57.843035 161.610034 
z
" style="fill:#de8f05;stroke:#ffffff;stroke-linejoin:miter;"/>
   </g>
   <g id="patch_30">
    <path clip-path="url(#p74e3c262e8)" d="M 64.454423 161.610034 
L 66.768409 161.610034 
L 66.768409 161.610034 
L 64.454423 161.610034 
z
" style="fill:#de8f05;stroke:#ffffff;stroke-linejoin:miter;"/>
   </g>
   <g id="patch_31">
    <path clip-path="url(#p74e3c262e8)" d="M 71.065811 161.610034 
L 73.379797 161.610034 
L 73.379797 161.610034 
L 71.065811 161.610034 
z
" style="fill:#de8f05;stroke:#ffffff;stroke-linejoin:miter;"/>
   </g>
   <g id="patch_32">
    <path clip-path="url(#p74e3c262e8)" d="M 77.677199 161.610034 
L 79.991185 161.610034 
L 79.991185 161.610034 
L 77.677199 161.610034 
z
" style="fill:#de8f05;stroke:#ffffff;stroke-linejoin:miter;"/>
   </g>
   <g id="patch_33">
    <path clip-path="url(#p74e3c262e8)" d="M 84.288587 161.610034 
L 86.602573 161.610034 
L 86.602573 161.610034 
L 84.288587 161.610034 
z
" style="fill:#de8f05;stroke:#ffffff;stroke-linejoin:miter;"/>
   </g>
   <g id="patch_34">
    <path clip-path="url(#p74e3c262e8)" d="M 90.899975 161.610034 
L 93.213961 161.610034 
L 93.213961 161.610034 
L 90.899975 161.610034 
z
" style="fill:#de8f05;stroke:#ffffff;stroke-linejoin:miter;"/>
   </g>
   <g id="patch_35">
    <path clip-path="url(#p74e3c262e8)" d="M 97.511364 161.610034 
L 99.825349 161.610034 
L 99.825349 161.610034 
L 97.511364 161.610034 
z
" style="fill:#de8f05;stroke:#ffffff;stroke-linejoin:miter;"/>
   </g>
   <g id="patch_36">
    <path clip-path="url(#p74e3c262e8)" d="M 104.122752 161.610034 
L 106.436738 161.610034 
L 106.436738 161.610034 
L 104.122752 161.610034 
z
" style="fill:#de8f05;stroke:#ffffff;stroke-linejoin:miter;"/>
   </g>
   <g id="patch_37">
    <path clip-path="url(#p74e3c262e8)" d="M 110.73414 161.610034 
L 113.048126 161.610034 
L 113.048126 161.610034 
L 110.73414 161.610034 
z
" style="fill:#de8f05;stroke:#ffffff;stroke-linejoin:miter;"/>
   </g>
   <g id="patch_38">
    <path clip-path="url(#p74e3c262e8)" d="M 117.345528 161.610034 
L 119.659514 161.610034 
L 119.659514 161.610034 
L 117.345528 161.610034 
z
" style="fill:#de8f05;stroke:#ffffff;stroke-linejoin:miter;"/>
   </g>
   <g id="patch_39">
    <path clip-path="url(#p74e3c262e8)" d="M 123.956916 161.610034 
L 126.270902 161.610034 
L 126.270902 107.527656 
L 123.956916 107.527656 
z
" style="fill:#de8f05;stroke:#ffffff;stroke-linejoin:miter;"/>
   </g>
   <g id="patch_40">
    <path clip-path="url(#p74e3c262e8)" d="M 130.568304 161.610034 
L 132.88229 161.610034 
L 132.88229 87.081036 
L 130.568304 87.081036 
z
" style="fill:#de8f05;stroke:#ffffff;stroke-linejoin:miter;"/>
   </g>
   <g id="patch_41">
    <path clip-path="url(#p74e3c262e8)" d="M 137.179692 161.610034 
L 139.493678 161.610034 
L 139.493678 84.95477 
L 137.179692 84.95477 
z
" style="fill:#de8f05;stroke:#ffffff;stroke-linejoin:miter;"/>
   </g>
   <g id="patch_42">
    <path clip-path="url(#p74e3c262e8)" d="M 143.791081 161.610034 
L 146.105066 161.610034 
L 146.105066 103.511651 
L 143.791081 103.511651 
z
" style="fill:#de8f05;stroke:#ffffff;stroke-linejoin:miter;"/>
   </g>
   <g id="patch_43">
    <path clip-path="url(#p74e3c262e8)" d="M 150.402469 161.610034 
L 152.716455 161.610034 
L 152.716455 38.19474 
L 150.402469 38.19474 
z
" style="fill:#de8f05;stroke:#ffffff;stroke-linejoin:miter;"/>
   </g>
   <g id="patch_44">
    <path clip-path="url(#p74e3c262e8)" d="M 157.013857 161.610034 
L 159.327843 161.610034 
L 159.327843 35.722054 
L 157.013857 35.722054 
z
" style="fill:#de8f05;stroke:#ffffff;stroke-linejoin:miter;"/>
   </g>
   <g id="patch_45">
    <path clip-path="url(#p74e3c262e8)" d="M 163.625245 161.610034 
L 165.939231 161.610034 
L 165.939231 161.610034 
L 163.625245 161.610034 
z
" style="fill:#de8f05;stroke:#ffffff;stroke-linejoin:miter;"/>
   </g>
   <g id="patch_46">
    <path clip-path="url(#p74e3c262e8)" d="M 170.236633 161.610034 
L 172.550619 161.610034 
L 172.550619 41.249344 
L 170.236633 41.249344 
z
" style="fill:#de8f05;stroke:#ffffff;stroke-linejoin:miter;"/>
   </g>
   <g id="patch_47">
    <path clip-path="url(#p74e3c262e8)" d="M 176.848021 161.610034 
L 179.162007 161.610034 
L 179.162007 82.514277 
L 176.848021 82.514277 
z
" style="fill:#de8f05;stroke:#ffffff;stroke-linejoin:miter;"/>
   </g>
   <g id="patch_48">
    <path clip-path="url(#p74e3c262e8)" d="M 183.459409 161.610034 
L 185.773395 161.610034 
L 185.773395 52.476742 
L 183.459409 52.476742 
z
" style="fill:#de8f05;stroke:#ffffff;stroke-linejoin:miter;"/>
   </g>
   <g id="patch_49">
    <path clip-path="url(#p74e3c262e8)" d="M 190.070798 161.610034 
L 192.384783 161.610034 
L 192.384783 102.499042 
L 190.070798 102.499042 
z
" style="fill:#de8f05;stroke:#ffffff;stroke-linejoin:miter;"/>
   </g>
   <g id="patch_50">
    <path clip-path="url(#p74e3c262e8)" d="M 196.682186 161.610034 
L 198.996172 161.610034 
L 198.996172 161.610034 
L 196.682186 161.610034 
z
" style="fill:#de8f05;stroke:#ffffff;stroke-linejoin:miter;"/>
   </g>
   <g id="patch_51">
    <path d="M 34.471778 161.610034 
L 34.471778 26.935006 
" style="fill:none;stroke:#cccccc;stroke-linecap:square;stroke-linejoin:miter;stroke-width:0.6;"/>
   </g>
   <g id="patch_52">
    <path d="M 206.830666 161.610034 
L 206.830666 26.935006 
" style="fill:none;stroke:#cccccc;stroke-linecap:square;stroke-linejoin:miter;stroke-width:0.6;"/>
   </g>
   <g id="patch_53">
    <path d="M 34.471778 161.610034 
L 206.830666 161.610034 
" style="fill:none;stroke:#cccccc;stroke-linecap:square;stroke-linejoin:miter;stroke-width:0.6;"/>
   </g>
   <g id="patch_54">
    <path d="M 34.471778 26.935006 
L 206.830666 26.935006 
" style="fill:none;stroke:#cccccc;stroke-linecap:square;stroke-linejoin:miter;stroke-width:0.6;"/>
   </g>
   <g id="text_34">
    <!-- a -->
    <g style="fill:#262626;" transform="translate(0 12.1575)scale(0.16 -0.16)">
     <defs>
      <path d="M 32.90625 24.609375 
Q 27.4375 24.609375 24.671875 22.75 
Q 21.921875 20.90625 21.921875 17.28125 
Q 21.921875 13.96875 24.140625 12.078125 
Q 26.375 10.203125 30.328125 10.203125 
Q 35.25 10.203125 38.625 13.734375 
Q 42 17.28125 42 22.609375 
L 42 24.609375 
z
M 59.625 31.203125 
L 59.625 0 
L 42 0 
L 42 8.109375 
Q 38.484375 3.125 34.078125 0.84375 
Q 29.6875 -1.421875 23.390625 -1.421875 
Q 14.890625 -1.421875 9.59375 3.53125 
Q 4.296875 8.5 4.296875 16.40625 
Q 4.296875 26.03125 10.90625 30.515625 
Q 17.53125 35.015625 31.6875 35.015625 
L 42 35.015625 
L 42 36.375 
Q 42 40.53125 38.71875 42.453125 
Q 35.453125 44.390625 28.515625 44.390625 
Q 22.90625 44.390625 18.0625 43.265625 
Q 13.234375 42.140625 9.078125 39.890625 
L 9.078125 53.21875 
Q 14.703125 54.59375 20.359375 55.296875 
Q 26.03125 56 31.6875 56 
Q 46.484375 56 53.046875 50.171875 
Q 59.625 44.34375 59.625 31.203125 
z
" id="DejaVuSans-Bold-97"/>
     </defs>
     <use xlink:href="#DejaVuSans-Bold-97"/>
    </g>
   </g>
   <g id="text_35">
    <!-- Anti-D and Anti-TNP (Fig. 3A) -->
    <g style="fill:#262626;" transform="translate(60.490816 20.935006)scale(0.084 -0.084)">
     <defs>
      <path d="M 34.1875 63.1875 
L 20.796875 26.90625 
L 47.609375 26.90625 
z
M 28.609375 72.90625 
L 39.796875 72.90625 
L 67.578125 0 
L 57.328125 0 
L 50.6875 18.703125 
L 17.828125 18.703125 
L 11.1875 0 
L 0.78125 0 
z
" id="DejaVuSans-65"/>
      <path d="M 18.3125 70.21875 
L 18.3125 54.6875 
L 36.8125 54.6875 
L 36.8125 47.703125 
L 18.3125 47.703125 
L 18.3125 18.015625 
Q 18.3125 11.328125 20.140625 9.421875 
Q 21.96875 7.515625 27.59375 7.515625 
L 36.8125 7.515625 
L 36.8125 0 
L 27.59375 0 
Q 17.1875 0 13.234375 3.875 
Q 9.28125 7.765625 9.28125 18.015625 
L 9.28125 47.703125 
L 2.6875 47.703125 
L 2.6875 54.6875 
L 9.28125 54.6875 
L 9.28125 70.21875 
z
" id="DejaVuSans-116"/>
      <path d="M 9.421875 54.6875 
L 18.40625 54.6875 
L 18.40625 0 
L 9.421875 0 
z
M 9.421875 75.984375 
L 18.40625 75.984375 
L 18.40625 64.59375 
L 9.421875 64.59375 
z
" id="DejaVuSans-105"/>
      <path d="M 4.890625 31.390625 
L 31.203125 31.390625 
L 31.203125 23.390625 
L 4.890625 23.390625 
z
" id="DejaVuSans-45"/>
      <path d="M 19.671875 64.796875 
L 19.671875 8.109375 
L 31.59375 8.109375 
Q 46.6875 8.109375 53.6875 14.9375 
Q 60.6875 21.78125 60.6875 36.53125 
Q 60.6875 51.171875 53.6875 57.984375 
Q 46.6875 64.796875 31.59375 64.796875 
z
M 9.8125 72.90625 
L 30.078125 72.90625 
Q 51.265625 72.90625 61.171875 64.09375 
Q 71.09375 55.28125 71.09375 36.53125 
Q 71.09375 17.671875 61.125 8.828125 
Q 51.171875 0 30.078125 0 
L 9.8125 0 
z
" id="DejaVuSans-68"/>
      <path id="DejaVuSans-32"/>
      <path d="M 45.40625 46.390625 
L 45.40625 75.984375 
L 54.390625 75.984375 
L 54.390625 0 
L 45.40625 0 
L 45.40625 8.203125 
Q 42.578125 3.328125 38.25 0.953125 
Q 33.9375 -1.421875 27.875 -1.421875 
Q 17.96875 -1.421875 11.734375 6.484375 
Q 5.515625 14.40625 5.515625 27.296875 
Q 5.515625 40.1875 11.734375 48.09375 
Q 17.96875 56 27.875 56 
Q 33.9375 56 38.25 53.625 
Q 42.578125 51.265625 45.40625 46.390625 
z
M 14.796875 27.296875 
Q 14.796875 17.390625 18.875 11.75 
Q 22.953125 6.109375 30.078125 6.109375 
Q 37.203125 6.109375 41.296875 11.75 
Q 45.40625 17.390625 45.40625 27.296875 
Q 45.40625 37.203125 41.296875 42.84375 
Q 37.203125 48.484375 30.078125 48.484375 
Q 22.953125 48.484375 18.875 42.84375 
Q 14.796875 37.203125 14.796875 27.296875 
z
" id="DejaVuSans-100"/>
      <path d="M -0.296875 72.90625 
L 61.375 72.90625 
L 61.375 64.59375 
L 35.5 64.59375 
L 35.5 0 
L 25.59375 0 
L 25.59375 64.59375 
L -0.296875 64.59375 
z
" id="DejaVuSans-84"/>
      <path d="M 19.671875 64.796875 
L 19.671875 37.40625 
L 32.078125 37.40625 
Q 38.96875 37.40625 42.71875 40.96875 
Q 46.484375 44.53125 46.484375 51.125 
Q 46.484375 57.671875 42.71875 61.234375 
Q 38.96875 64.796875 32.078125 64.796875 
z
M 9.8125 72.90625 
L 32.078125 72.90625 
Q 44.34375 72.90625 50.609375 67.359375 
Q 56.890625 61.8125 56.890625 51.125 
Q 56.890625 40.328125 50.609375 34.8125 
Q 44.34375 29.296875 32.078125 29.296875 
L 19.671875 29.296875 
L 19.671875 0 
L 9.8125 0 
z
" id="DejaVuSans-80"/>
      <path d="M 31 75.875 
Q 24.46875 64.65625 21.28125 53.65625 
Q 18.109375 42.671875 18.109375 31.390625 
Q 18.109375 20.125 21.3125 9.0625 
Q 24.515625 -2 31 -13.1875 
L 23.1875 -13.1875 
Q 15.875 -1.703125 12.234375 9.375 
Q 8.59375 20.453125 8.59375 31.390625 
Q 8.59375 42.28125 12.203125 53.3125 
Q 15.828125 64.359375 23.1875 75.875 
z
" id="DejaVuSans-40"/>
      <path d="M 45.40625 27.984375 
Q 45.40625 37.75 41.375 43.109375 
Q 37.359375 48.484375 30.078125 48.484375 
Q 22.859375 48.484375 18.828125 43.109375 
Q 14.796875 37.75 14.796875 27.984375 
Q 14.796875 18.265625 18.828125 12.890625 
Q 22.859375 7.515625 30.078125 7.515625 
Q 37.359375 7.515625 41.375 12.890625 
Q 45.40625 18.265625 45.40625 27.984375 
z
M 54.390625 6.78125 
Q 54.390625 -7.171875 48.1875 -13.984375 
Q 42 -20.796875 29.203125 -20.796875 
Q 24.46875 -20.796875 20.265625 -20.09375 
Q 16.0625 -19.390625 12.109375 -17.921875 
L 12.109375 -9.1875 
Q 16.0625 -11.328125 19.921875 -12.34375 
Q 23.78125 -13.375 27.78125 -13.375 
Q 36.625 -13.375 41.015625 -8.765625 
Q 45.40625 -4.15625 45.40625 5.171875 
L 45.40625 9.625 
Q 42.625 4.78125 38.28125 2.390625 
Q 33.9375 0 27.875 0 
Q 17.828125 0 11.671875 7.65625 
Q 5.515625 15.328125 5.515625 27.984375 
Q 5.515625 40.671875 11.671875 48.328125 
Q 17.828125 56 27.875 56 
Q 33.9375 56 38.28125 53.609375 
Q 42.625 51.21875 45.40625 46.390625 
L 45.40625 54.6875 
L 54.390625 54.6875 
z
" id="DejaVuSans-103"/>
      <path d="M 8.015625 75.875 
L 15.828125 75.875 
Q 23.140625 64.359375 26.78125 53.3125 
Q 30.421875 42.28125 30.421875 31.390625 
Q 30.421875 20.453125 26.78125 9.375 
Q 23.140625 -1.703125 15.828125 -13.1875 
L 8.015625 -13.1875 
Q 14.5 -2 17.703125 9.0625 
Q 20.90625 20.125 20.90625 31.390625 
Q 20.90625 42.671875 17.703125 53.65625 
Q 14.5 64.65625 8.015625 75.875 
z
" id="DejaVuSans-41"/>
     </defs>
     <use xlink:href="#DejaVuSans-65"/>
     <use x="68.408203" xlink:href="#DejaVuSans-110"/>
     <use x="131.787109" xlink:href="#DejaVuSans-116"/>
     <use x="170.996094" xlink:href="#DejaVuSans-105"/>
     <use x="198.779297" xlink:href="#DejaVuSans-45"/>
     <use x="234.863281" xlink:href="#DejaVuSans-68"/>
     <use x="311.865234" xlink:href="#DejaVuSans-32"/>
     <use x="343.652344" xlink:href="#DejaVuSans-97"/>
     <use x="404.931641" xlink:href="#DejaVuSans-110"/>
     <use x="468.310547" xlink:href="#DejaVuSans-100"/>
     <use x="531.787109" xlink:href="#DejaVuSans-32"/>
     <use x="563.574219" xlink:href="#DejaVuSans-65"/>
     <use x="631.982422" xlink:href="#DejaVuSans-110"/>
     <use x="695.361328" xlink:href="#DejaVuSans-116"/>
     <use x="734.570312" xlink:href="#DejaVuSans-105"/>
     <use x="762.353516" xlink:href="#DejaVuSans-45"/>
     <use x="789.3125" xlink:href="#DejaVuSans-84"/>
     <use x="850.396484" xlink:href="#DejaVuSans-78"/>
     <use x="925.201172" xlink:href="#DejaVuSans-80"/>
     <use x="985.503906" xlink:href="#DejaVuSans-32"/>
     <use x="1017.291016" xlink:href="#DejaVuSans-40"/>
     <use x="1056.304688" xlink:href="#DejaVuSans-70"/>
     <use x="1106.574219" xlink:href="#DejaVuSans-105"/>
     <use x="1134.357422" xlink:href="#DejaVuSans-103"/>
     <use x="1197.833984" xlink:href="#DejaVuSans-46"/>
     <use x="1229.621094" xlink:href="#DejaVuSans-32"/>
     <use x="1261.408203" xlink:href="#DejaVuSans-51"/>
     <use x="1325.03125" xlink:href="#DejaVuSans-65"/>
     <use x="1393.439453" xlink:href="#DejaVuSans-41"/>
    </g>
   </g>
   <g id="legend_1">
    <g id="patch_55">
     <path d="M 39.861778 52.619318 
L 125.751668 52.619318 
Q 127.291668 52.619318 127.291668 51.079318 
L 127.291668 32.325006 
Q 127.291668 30.785006 125.751668 30.785006 
L 39.861778 30.785006 
Q 38.321778 30.785006 38.321778 32.325006 
L 38.321778 51.079318 
Q 38.321778 52.619318 39.861778 52.619318 
z
" style="fill:#ffffff;opacity:0.5;stroke:#cccccc;stroke-linejoin:miter;"/>
    </g>
    <g id="patch_56">
     <path d="M 41.016778 39.330803 
L 44.866778 39.330803 
L 44.866778 33.940803 
L 41.016778 33.940803 
z
" style="fill:#0173b2;stroke:#ffffff;stroke-linejoin:miter;"/>
    </g>
    <g id="text_36">
     <!-- Anti-D and Anti-TNP -->
     <g style="fill:#262626;" transform="translate(48.716778 39.330803)scale(0.077 -0.077)">
      <use xlink:href="#DejaVuSans-65"/>
      <use x="68.408203" xlink:href="#DejaVuSans-110"/>
      <use x="131.787109" xlink:href="#DejaVuSans-116"/>
      <use x="170.996094" xlink:href="#DejaVuSans-105"/>
      <use x="198.779297" xlink:href="#DejaVuSans-45"/>
      <use x="234.863281" xlink:href="#DejaVuSans-68"/>
      <use x="311.865234" xlink:href="#DejaVuSans-32"/>
      <use x="343.652344" xlink:href="#DejaVuSans-97"/>
      <use x="404.931641" xlink:href="#DejaVuSans-110"/>
      <use x="468.310547" xlink:href="#DejaVuSans-100"/>
      <use x="531.787109" xlink:href="#DejaVuSans-32"/>
      <use x="563.574219" xlink:href="#DejaVuSans-65"/>
      <use x="631.982422" xlink:href="#DejaVuSans-110"/>
      <use x="695.361328" xlink:href="#DejaVuSans-116"/>
      <use x="734.570312" xlink:href="#DejaVuSans-105"/>
      <use x="762.353516" xlink:href="#DejaVuSans-45"/>
      <use x="789.3125" xlink:href="#DejaVuSans-84"/>
      <use x="850.396484" xlink:href="#DejaVuSans-78"/>
      <use x="925.201172" xlink:href="#DejaVuSans-80"/>
     </g>
    </g>
    <g id="patch_57">
     <path d="M 41.016778 48.322959 
L 44.866778 48.322959 
L 44.866778 42.932959 
L 41.016778 42.932959 
z
" style="fill:#de8f05;stroke:#ffffff;stroke-linejoin:miter;"/>
    </g>
    <g id="text_37">
     <!-- Double Anti-D -->
     <g style="fill:#262626;" transform="translate(48.716778 48.322959)scale(0.077 -0.077)">
      <defs>
       <path d="M 30.609375 48.390625 
Q 23.390625 48.390625 19.1875 42.75 
Q 14.984375 37.109375 14.984375 27.296875 
Q 14.984375 17.484375 19.15625 11.84375 
Q 23.34375 6.203125 30.609375 6.203125 
Q 37.796875 6.203125 41.984375 11.859375 
Q 46.1875 17.53125 46.1875 27.296875 
Q 46.1875 37.015625 41.984375 42.703125 
Q 37.796875 48.390625 30.609375 48.390625 
z
M 30.609375 56 
Q 42.328125 56 49.015625 48.375 
Q 55.71875 40.765625 55.71875 27.296875 
Q 55.71875 13.875 49.015625 6.21875 
Q 42.328125 -1.421875 30.609375 -1.421875 
Q 18.84375 -1.421875 12.171875 6.21875 
Q 5.515625 13.875 5.515625 27.296875 
Q 5.515625 40.765625 12.171875 48.375 
Q 18.84375 56 30.609375 56 
z
" id="DejaVuSans-111"/>
       <path d="M 8.5 21.578125 
L 8.5 54.6875 
L 17.484375 54.6875 
L 17.484375 21.921875 
Q 17.484375 14.15625 20.5 10.265625 
Q 23.53125 6.390625 29.59375 6.390625 
Q 36.859375 6.390625 41.078125 11.03125 
Q 45.3125 15.671875 45.3125 23.6875 
L 45.3125 54.6875 
L 54.296875 54.6875 
L 54.296875 0 
L 45.3125 0 
L 45.3125 8.40625 
Q 42.046875 3.421875 37.71875 1 
Q 33.40625 -1.421875 27.6875 -1.421875 
Q 18.265625 -1.421875 13.375 4.4375 
Q 8.5 10.296875 8.5 21.578125 
z
M 31.109375 56 
z
" id="DejaVuSans-117"/>
       <path d="M 48.6875 27.296875 
Q 48.6875 37.203125 44.609375 42.84375 
Q 40.53125 48.484375 33.40625 48.484375 
Q 26.265625 48.484375 22.1875 42.84375 
Q 18.109375 37.203125 18.109375 27.296875 
Q 18.109375 17.390625 22.1875 11.75 
Q 26.265625 6.109375 33.40625 6.109375 
Q 40.53125 6.109375 44.609375 11.75 
Q 48.6875 17.390625 48.6875 27.296875 
z
M 18.109375 46.390625 
Q 20.953125 51.265625 25.265625 53.625 
Q 29.59375 56 35.59375 56 
Q 45.5625 56 51.78125 48.09375 
Q 58.015625 40.1875 58.015625 27.296875 
Q 58.015625 14.40625 51.78125 6.484375 
Q 45.5625 -1.421875 35.59375 -1.421875 
Q 29.59375 -1.421875 25.265625 0.953125 
Q 20.953125 3.328125 18.109375 8.203125 
L 18.109375 0 
L 9.078125 0 
L 9.078125 75.984375 
L 18.109375 75.984375 
z
" id="DejaVuSans-98"/>
       <path d="M 56.203125 29.59375 
L 56.203125 25.203125 
L 14.890625 25.203125 
Q 15.484375 15.921875 20.484375 11.0625 
Q 25.484375 6.203125 34.421875 6.203125 
Q 39.59375 6.203125 44.453125 7.46875 
Q 49.3125 8.734375 54.109375 11.28125 
L 54.109375 2.78125 
Q 49.265625 0.734375 44.1875 -0.34375 
Q 39.109375 -1.421875 33.890625 -1.421875 
Q 20.796875 -1.421875 13.15625 6.1875 
Q 5.515625 13.8125 5.515625 26.8125 
Q 5.515625 40.234375 12.765625 48.109375 
Q 20.015625 56 32.328125 56 
Q 43.359375 56 49.78125 48.890625 
Q 56.203125 41.796875 56.203125 29.59375 
z
M 47.21875 32.234375 
Q 47.125 39.59375 43.09375 43.984375 
Q 39.0625 48.390625 32.421875 48.390625 
Q 24.90625 48.390625 20.390625 44.140625 
Q 15.875 39.890625 15.1875 32.171875 
z
" id="DejaVuSans-101"/>
      </defs>
      <use xlink:href="#DejaVuSans-68"/>
      <use x="77.001953" xlink:href="#DejaVuSans-111"/>
      <use x="138.183594" xlink:href="#DejaVuSans-117"/>
      <use x="201.5625" xlink:href="#DejaVuSans-98"/>
      <use x="265.039062" xlink:href="#DejaVuSans-108"/>
      <use x="292.822266" xlink:href="#DejaVuSans-101"/>
      <use x="354.345703" xlink:href="#DejaVuSans-32"/>
      <use x="386.132812" xlink:href="#DejaVuSans-65"/>
      <use x="454.541016" xlink:href="#DejaVuSans-110"/>
      <use x="517.919922" xlink:href="#DejaVuSans-116"/>
      <use x="557.128906" xlink:href="#DejaVuSans-105"/>
      <use x="584.912109" xlink:href="#DejaVuSans-45"/>
      <use x="620.996094" xlink:href="#DejaVuSans-68"/>
     </g>
    </g>
   </g>
  </g>
  <g id="axes_2">
   <g id="patch_58">
    <path d="M 252.631778 161.610034 
L 424.990666 161.610034 
L 424.990666 26.935006 
L 252.631778 26.935006 
z
" style="fill:#ffffff;"/>
   </g>
   <g id="matplotlib.axis_3">
    <g id="xtick_25">
     <g id="line2d_33">
      <path clip-path="url(#p3a7f7a5279)" d="M 262.780259 161.610034 
L 262.780259 26.935006 
" style="fill:none;stroke:#cccccc;stroke-dasharray:1,1.65;stroke-dashoffset:0;"/>
     </g>
     <g id="text_38">
      <!-- G0F -->
      <g style="fill:#262626;" transform="translate(264.904977 183.904159)rotate(-90)scale(0.077 -0.077)">
       <use xlink:href="#DejaVuSans-71"/>
       <use x="77.490234" xlink:href="#DejaVuSans-48"/>
       <use x="141.113281" xlink:href="#DejaVuSans-70"/>
      </g>
     </g>
    </g>
    <g id="xtick_26">
     <g id="line2d_34">
      <path clip-path="url(#p3a7f7a5279)" d="M 269.391647 161.610034 
L 269.391647 26.935006 
" style="fill:none;stroke:#cccccc;stroke-dasharray:1,1.65;stroke-dashoffset:0;"/>
     </g>
     <g id="text_39">
      <!-- G1F -->
      <g style="fill:#262626;" transform="translate(271.516365 183.904159)rotate(-90)scale(0.077 -0.077)">
       <use xlink:href="#DejaVuSans-71"/>
       <use x="77.490234" xlink:href="#DejaVuSans-49"/>
       <use x="141.113281" xlink:href="#DejaVuSans-70"/>
      </g>
     </g>
    </g>
    <g id="xtick_27">
     <g id="line2d_35">
      <path clip-path="url(#p3a7f7a5279)" d="M 276.003035 161.610034 
L 276.003035 26.935006 
" style="fill:none;stroke:#cccccc;stroke-dasharray:1,1.65;stroke-dashoffset:0;"/>
     </g>
     <g id="text_40">
      <!-- G2F -->
      <g style="fill:#262626;" transform="translate(278.127754 183.904159)rotate(-90)scale(0.077 -0.077)">
       <use xlink:href="#DejaVuSans-71"/>
       <use x="77.490234" xlink:href="#DejaVuSans-50"/>
       <use x="141.113281" xlink:href="#DejaVuSans-70"/>
      </g>
     </g>
    </g>
    <g id="xtick_28">
     <g id="line2d_36">
      <path clip-path="url(#p3a7f7a5279)" d="M 282.614423 161.610034 
L 282.614423 26.935006 
" style="fill:none;stroke:#cccccc;stroke-dasharray:1,1.65;stroke-dashoffset:0;"/>
     </g>
     <g id="text_41">
      <!-- G0FN -->
      <g style="fill:#262626;" transform="translate(284.739142 189.664722)rotate(-90)scale(0.077 -0.077)">
       <use xlink:href="#DejaVuSans-71"/>
       <use x="77.490234" xlink:href="#DejaVuSans-48"/>
       <use x="141.113281" xlink:href="#DejaVuSans-70"/>
       <use x="198.632812" xlink:href="#DejaVuSans-78"/>
      </g>
     </g>
    </g>
    <g id="xtick_29">
     <g id="line2d_37">
      <path clip-path="url(#p3a7f7a5279)" d="M 289.225811 161.610034 
L 289.225811 26.935006 
" style="fill:none;stroke:#cccccc;stroke-dasharray:1,1.65;stroke-dashoffset:0;"/>
     </g>
     <g id="text_42">
      <!-- G1FN -->
      <g style="fill:#262626;" transform="translate(291.35053 189.664722)rotate(-90)scale(0.077 -0.077)">
       <use xlink:href="#DejaVuSans-71"/>
       <use x="77.490234" xlink:href="#DejaVuSans-49"/>
       <use x="141.113281" xlink:href="#DejaVuSans-70"/>
       <use x="198.632812" xlink:href="#DejaVuSans-78"/>
      </g>
     </g>
    </g>
    <g id="xtick_30">
     <g id="line2d_38">
      <path clip-path="url(#p3a7f7a5279)" d="M 295.837199 161.610034 
L 295.837199 26.935006 
" style="fill:none;stroke:#cccccc;stroke-dasharray:1,1.65;stroke-dashoffset:0;"/>
     </g>
     <g id="text_43">
      <!-- G2FN -->
      <g style="fill:#262626;" transform="translate(297.961918 189.664722)rotate(-90)scale(0.077 -0.077)">
       <use xlink:href="#DejaVuSans-71"/>
       <use x="77.490234" xlink:href="#DejaVuSans-50"/>
       <use x="141.113281" xlink:href="#DejaVuSans-70"/>
       <use x="198.632812" xlink:href="#DejaVuSans-78"/>
      </g>
     </g>
    </g>
    <g id="xtick_31">
     <g id="line2d_39">
      <path clip-path="url(#p3a7f7a5279)" d="M 302.448587 161.610034 
L 302.448587 26.935006 
" style="fill:none;stroke:#cccccc;stroke-dasharray:1,1.65;stroke-dashoffset:0;"/>
     </g>
     <g id="text_44">
      <!-- G1FS -->
      <g style="fill:#262626;" transform="translate(304.573306 188.657706)rotate(-90)scale(0.077 -0.077)">
       <use xlink:href="#DejaVuSans-71"/>
       <use x="77.490234" xlink:href="#DejaVuSans-49"/>
       <use x="141.113281" xlink:href="#DejaVuSans-70"/>
       <use x="196.882812" xlink:href="#DejaVuSans-83"/>
      </g>
     </g>
    </g>
    <g id="xtick_32">
     <g id="line2d_40">
      <path clip-path="url(#p3a7f7a5279)" d="M 309.059975 161.610034 
L 309.059975 26.935006 
" style="fill:none;stroke:#cccccc;stroke-dasharray:1,1.65;stroke-dashoffset:0;"/>
     </g>
     <g id="text_45">
      <!-- G2FS -->
      <g style="fill:#262626;" transform="translate(311.184694 188.657706)rotate(-90)scale(0.077 -0.077)">
       <use xlink:href="#DejaVuSans-71"/>
       <use x="77.490234" xlink:href="#DejaVuSans-50"/>
       <use x="141.113281" xlink:href="#DejaVuSans-70"/>
       <use x="196.882812" xlink:href="#DejaVuSans-83"/>
      </g>
     </g>
    </g>
    <g id="xtick_33">
     <g id="line2d_41">
      <path clip-path="url(#p3a7f7a5279)" d="M 315.671364 161.610034 
L 315.671364 26.935006 
" style="fill:none;stroke:#cccccc;stroke-dasharray:1,1.65;stroke-dashoffset:0;"/>
     </g>
     <g id="text_46">
      <!-- G2FS2 -->
      <g style="fill:#262626;" transform="translate(317.796082 193.556831)rotate(-90)scale(0.077 -0.077)">
       <use xlink:href="#DejaVuSans-71"/>
       <use x="77.490234" xlink:href="#DejaVuSans-50"/>
       <use x="141.113281" xlink:href="#DejaVuSans-70"/>
       <use x="196.882812" xlink:href="#DejaVuSans-83"/>
       <use x="260.359375" xlink:href="#DejaVuSans-50"/>
      </g>
     </g>
    </g>
    <g id="xtick_34">
     <g id="line2d_42">
      <path clip-path="url(#p3a7f7a5279)" d="M 322.282752 161.610034 
L 322.282752 26.935006 
" style="fill:none;stroke:#cccccc;stroke-dasharray:1,1.65;stroke-dashoffset:0;"/>
     </g>
     <g id="text_47">
      <!-- G1FNS -->
      <g style="fill:#262626;" transform="translate(324.407471 194.553019)rotate(-90)scale(0.077 -0.077)">
       <use xlink:href="#DejaVuSans-71"/>
       <use x="77.490234" xlink:href="#DejaVuSans-49"/>
       <use x="141.113281" xlink:href="#DejaVuSans-70"/>
       <use x="198.632812" xlink:href="#DejaVuSans-78"/>
       <use x="273.4375" xlink:href="#DejaVuSans-83"/>
      </g>
     </g>
    </g>
    <g id="xtick_35">
     <g id="line2d_43">
      <path clip-path="url(#p3a7f7a5279)" d="M 328.89414 161.610034 
L 328.89414 26.935006 
" style="fill:none;stroke:#cccccc;stroke-dasharray:1,1.65;stroke-dashoffset:0;"/>
     </g>
     <g id="text_48">
      <!-- G2FNS -->
      <g style="fill:#262626;" transform="translate(331.018859 194.553019)rotate(-90)scale(0.077 -0.077)">
       <use xlink:href="#DejaVuSans-71"/>
       <use x="77.490234" xlink:href="#DejaVuSans-50"/>
       <use x="141.113281" xlink:href="#DejaVuSans-70"/>
       <use x="198.632812" xlink:href="#DejaVuSans-78"/>
       <use x="273.4375" xlink:href="#DejaVuSans-83"/>
      </g>
     </g>
    </g>
    <g id="xtick_36">
     <g id="line2d_44">
      <path clip-path="url(#p3a7f7a5279)" d="M 335.505528 161.610034 
L 335.505528 26.935006 
" style="fill:none;stroke:#cccccc;stroke-dasharray:1,1.65;stroke-dashoffset:0;"/>
     </g>
     <g id="text_49">
      <!-- G2FNS2 -->
      <g style="fill:#262626;" transform="translate(337.630247 199.452144)rotate(-90)scale(0.077 -0.077)">
       <use xlink:href="#DejaVuSans-71"/>
       <use x="77.490234" xlink:href="#DejaVuSans-50"/>
       <use x="141.113281" xlink:href="#DejaVuSans-70"/>
       <use x="198.632812" xlink:href="#DejaVuSans-78"/>
       <use x="273.4375" xlink:href="#DejaVuSans-83"/>
       <use x="336.914062" xlink:href="#DejaVuSans-50"/>
      </g>
     </g>
    </g>
    <g id="xtick_37">
     <g id="line2d_45">
      <path clip-path="url(#p3a7f7a5279)" d="M 342.116916 161.610034 
L 342.116916 26.935006 
" style="fill:none;stroke:#cccccc;stroke-dasharray:1,1.65;stroke-dashoffset:0;"/>
     </g>
     <g id="text_50">
      <!-- G0 -->
      <g style="fill:#262626;" transform="translate(344.241635 179.475456)rotate(-90)scale(0.077 -0.077)">
       <use xlink:href="#DejaVuSans-71"/>
       <use x="77.490234" xlink:href="#DejaVuSans-48"/>
      </g>
     </g>
    </g>
    <g id="xtick_38">
     <g id="line2d_46">
      <path clip-path="url(#p3a7f7a5279)" d="M 348.728304 161.610034 
L 348.728304 26.935006 
" style="fill:none;stroke:#cccccc;stroke-dasharray:1,1.65;stroke-dashoffset:0;"/>
     </g>
     <g id="text_51">
      <!-- G1 -->
      <g style="fill:#262626;" transform="translate(350.853023 179.475456)rotate(-90)scale(0.077 -0.077)">
       <use xlink:href="#DejaVuSans-71"/>
       <use x="77.490234" xlink:href="#DejaVuSans-49"/>
      </g>
     </g>
    </g>
    <g id="xtick_39">
     <g id="line2d_47">
      <path clip-path="url(#p3a7f7a5279)" d="M 355.339692 161.610034 
L 355.339692 26.935006 
" style="fill:none;stroke:#cccccc;stroke-dasharray:1,1.65;stroke-dashoffset:0;"/>
     </g>
     <g id="text_52">
      <!-- G2 -->
      <g style="fill:#262626;" transform="translate(357.464411 179.475456)rotate(-90)scale(0.077 -0.077)">
       <use xlink:href="#DejaVuSans-71"/>
       <use x="77.490234" xlink:href="#DejaVuSans-50"/>
      </g>
     </g>
    </g>
    <g id="xtick_40">
     <g id="line2d_48">
      <path clip-path="url(#p3a7f7a5279)" d="M 361.951081 161.610034 
L 361.951081 26.935006 
" style="fill:none;stroke:#cccccc;stroke-dasharray:1,1.65;stroke-dashoffset:0;"/>
     </g>
     <g id="text_53">
      <!-- G0N -->
      <g style="fill:#262626;" transform="translate(364.075799 185.236019)rotate(-90)scale(0.077 -0.077)">
       <use xlink:href="#DejaVuSans-71"/>
       <use x="77.490234" xlink:href="#DejaVuSans-48"/>
       <use x="141.113281" xlink:href="#DejaVuSans-78"/>
      </g>
     </g>
    </g>
    <g id="xtick_41">
     <g id="line2d_49">
      <path clip-path="url(#p3a7f7a5279)" d="M 368.562469 161.610034 
L 368.562469 26.935006 
" style="fill:none;stroke:#cccccc;stroke-dasharray:1,1.65;stroke-dashoffset:0;"/>
     </g>
     <g id="text_54">
      <!-- G1N -->
      <g style="fill:#262626;" transform="translate(370.687187 185.236019)rotate(-90)scale(0.077 -0.077)">
       <use xlink:href="#DejaVuSans-71"/>
       <use x="77.490234" xlink:href="#DejaVuSans-49"/>
       <use x="141.113281" xlink:href="#DejaVuSans-78"/>
      </g>
     </g>
    </g>
    <g id="xtick_42">
     <g id="line2d_50">
      <path clip-path="url(#p3a7f7a5279)" d="M 375.173857 161.610034 
L 375.173857 26.935006 
" style="fill:none;stroke:#cccccc;stroke-dasharray:1,1.65;stroke-dashoffset:0;"/>
     </g>
     <g id="text_55">
      <!-- G2N -->
      <g style="fill:#262626;" transform="translate(377.298576 185.236019)rotate(-90)scale(0.077 -0.077)">
       <use xlink:href="#DejaVuSans-71"/>
       <use x="77.490234" xlink:href="#DejaVuSans-50"/>
       <use x="141.113281" xlink:href="#DejaVuSans-78"/>
      </g>
     </g>
    </g>
    <g id="xtick_43">
     <g id="line2d_51">
      <path clip-path="url(#p3a7f7a5279)" d="M 381.785245 161.610034 
L 381.785245 26.935006 
" style="fill:none;stroke:#cccccc;stroke-dasharray:1,1.65;stroke-dashoffset:0;"/>
     </g>
     <g id="text_56">
      <!-- G1S -->
      <g style="fill:#262626;" transform="translate(383.909964 184.363753)rotate(-90)scale(0.077 -0.077)">
       <use xlink:href="#DejaVuSans-71"/>
       <use x="77.490234" xlink:href="#DejaVuSans-49"/>
       <use x="141.113281" xlink:href="#DejaVuSans-83"/>
      </g>
     </g>
    </g>
    <g id="xtick_44">
     <g id="line2d_52">
      <path clip-path="url(#p3a7f7a5279)" d="M 388.396633 161.610034 
L 388.396633 26.935006 
" style="fill:none;stroke:#cccccc;stroke-dasharray:1,1.65;stroke-dashoffset:0;"/>
     </g>
     <g id="text_57">
      <!-- G2S -->
      <g style="fill:#262626;" transform="translate(390.521352 184.363753)rotate(-90)scale(0.077 -0.077)">
       <use xlink:href="#DejaVuSans-71"/>
       <use x="77.490234" xlink:href="#DejaVuSans-50"/>
       <use x="141.113281" xlink:href="#DejaVuSans-83"/>
      </g>
     </g>
    </g>
    <g id="xtick_45">
     <g id="line2d_53">
      <path clip-path="url(#p3a7f7a5279)" d="M 395.008021 161.610034 
L 395.008021 26.935006 
" style="fill:none;stroke:#cccccc;stroke-dasharray:1,1.65;stroke-dashoffset:0;"/>
     </g>
     <g id="text_58">
      <!-- G2S2 -->
      <g style="fill:#262626;" transform="translate(397.13274 189.262878)rotate(-90)scale(0.077 -0.077)">
       <use xlink:href="#DejaVuSans-71"/>
       <use x="77.490234" xlink:href="#DejaVuSans-50"/>
       <use x="141.113281" xlink:href="#DejaVuSans-83"/>
       <use x="204.589844" xlink:href="#DejaVuSans-50"/>
      </g>
     </g>
    </g>
    <g id="xtick_46">
     <g id="line2d_54">
      <path clip-path="url(#p3a7f7a5279)" d="M 401.619409 161.610034 
L 401.619409 26.935006 
" style="fill:none;stroke:#cccccc;stroke-dasharray:1,1.65;stroke-dashoffset:0;"/>
     </g>
     <g id="text_59">
      <!-- G1NS -->
      <g style="fill:#262626;" transform="translate(403.744128 190.124315)rotate(-90)scale(0.077 -0.077)">
       <use xlink:href="#DejaVuSans-71"/>
       <use x="77.490234" xlink:href="#DejaVuSans-49"/>
       <use x="141.113281" xlink:href="#DejaVuSans-78"/>
       <use x="215.917969" xlink:href="#DejaVuSans-83"/>
      </g>
     </g>
    </g>
    <g id="xtick_47">
     <g id="line2d_55">
      <path clip-path="url(#p3a7f7a5279)" d="M 408.230798 161.610034 
L 408.230798 26.935006 
" style="fill:none;stroke:#cccccc;stroke-dasharray:1,1.65;stroke-dashoffset:0;"/>
     </g>
     <g id="text_60">
      <!-- G2NS -->
      <g style="fill:#262626;" transform="translate(410.355516 190.124315)rotate(-90)scale(0.077 -0.077)">
       <use xlink:href="#DejaVuSans-71"/>
       <use x="77.490234" xlink:href="#DejaVuSans-50"/>
       <use x="141.113281" xlink:href="#DejaVuSans-78"/>
       <use x="215.917969" xlink:href="#DejaVuSans-83"/>
      </g>
     </g>
    </g>
    <g id="xtick_48">
     <g id="line2d_56">
      <path clip-path="url(#p3a7f7a5279)" d="M 414.842186 161.610034 
L 414.842186 26.935006 
" style="fill:none;stroke:#cccccc;stroke-dasharray:1,1.65;stroke-dashoffset:0;"/>
     </g>
     <g id="text_61">
      <!-- G2NS2 -->
      <g style="fill:#262626;" transform="translate(416.966904 195.02344)rotate(-90)scale(0.077 -0.077)">
       <use xlink:href="#DejaVuSans-71"/>
       <use x="77.490234" xlink:href="#DejaVuSans-50"/>
       <use x="141.113281" xlink:href="#DejaVuSans-78"/>
       <use x="215.917969" xlink:href="#DejaVuSans-83"/>
       <use x="279.394531" xlink:href="#DejaVuSans-50"/>
      </g>
     </g>
    </g>
    <g id="text_62">
     <!-- Glycans -->
     <g style="fill:#262626;" transform="translate(322.171347 209.834831)scale(0.084 -0.084)">
      <use xlink:href="#DejaVuSans-71"/>
      <use x="77.490234" xlink:href="#DejaVuSans-108"/>
      <use x="105.273438" xlink:href="#DejaVuSans-121"/>
      <use x="164.453125" xlink:href="#DejaVuSans-99"/>
      <use x="219.433594" xlink:href="#DejaVuSans-97"/>
      <use x="280.712891" xlink:href="#DejaVuSans-110"/>
      <use x="344.091797" xlink:href="#DejaVuSans-115"/>
     </g>
    </g>
   </g>
   <g id="matplotlib.axis_4">
    <g id="ytick_9">
     <g id="line2d_57">
      <path clip-path="url(#p3a7f7a5279)" d="M 252.631778 161.610034 
L 424.990666 161.610034 
" style="fill:none;stroke:#cccccc;stroke-dasharray:1,1.65;stroke-dashoffset:0;"/>
     </g>
     <g id="text_63">
      <!-- 0.0 -->
      <g style="fill:#262626;" transform="translate(233.386371 164.535433)scale(0.077 -0.077)">
       <use xlink:href="#DejaVuSans-48"/>
       <use x="63.623047" xlink:href="#DejaVuSans-46"/>
       <use x="95.410156" xlink:href="#DejaVuSans-48"/>
      </g>
     </g>
    </g>
    <g id="ytick_10">
     <g id="line2d_58">
      <path clip-path="url(#p3a7f7a5279)" d="M 252.631778 144.389505 
L 424.990666 144.389505 
" style="fill:none;stroke:#cccccc;stroke-dasharray:1,1.65;stroke-dashoffset:0;"/>
     </g>
     <g id="text_64">
      <!-- 0.1 -->
      <g style="fill:#262626;" transform="translate(233.386371 147.314903)scale(0.077 -0.077)">
       <use xlink:href="#DejaVuSans-48"/>
       <use x="63.623047" xlink:href="#DejaVuSans-46"/>
       <use x="95.410156" xlink:href="#DejaVuSans-49"/>
      </g>
     </g>
    </g>
    <g id="ytick_11">
     <g id="line2d_59">
      <path clip-path="url(#p3a7f7a5279)" d="M 252.631778 127.168975 
L 424.990666 127.168975 
" style="fill:none;stroke:#cccccc;stroke-dasharray:1,1.65;stroke-dashoffset:0;"/>
     </g>
     <g id="text_65">
      <!-- 0.2 -->
      <g style="fill:#262626;" transform="translate(233.386371 130.094374)scale(0.077 -0.077)">
       <use xlink:href="#DejaVuSans-48"/>
       <use x="63.623047" xlink:href="#DejaVuSans-46"/>
       <use x="95.410156" xlink:href="#DejaVuSans-50"/>
      </g>
     </g>
    </g>
    <g id="ytick_12">
     <g id="line2d_60">
      <path clip-path="url(#p3a7f7a5279)" d="M 252.631778 109.948446 
L 424.990666 109.948446 
" style="fill:none;stroke:#cccccc;stroke-dasharray:1,1.65;stroke-dashoffset:0;"/>
     </g>
     <g id="text_66">
      <!-- 0.3 -->
      <g style="fill:#262626;" transform="translate(233.386371 112.873844)scale(0.077 -0.077)">
       <use xlink:href="#DejaVuSans-48"/>
       <use x="63.623047" xlink:href="#DejaVuSans-46"/>
       <use x="95.410156" xlink:href="#DejaVuSans-51"/>
      </g>
     </g>
    </g>
    <g id="ytick_13">
     <g id="line2d_61">
      <path clip-path="url(#p3a7f7a5279)" d="M 252.631778 92.727916 
L 424.990666 92.727916 
" style="fill:none;stroke:#cccccc;stroke-dasharray:1,1.65;stroke-dashoffset:0;"/>
     </g>
     <g id="text_67">
      <!-- 0.4 -->
      <g style="fill:#262626;" transform="translate(233.386371 95.653315)scale(0.077 -0.077)">
       <use xlink:href="#DejaVuSans-48"/>
       <use x="63.623047" xlink:href="#DejaVuSans-46"/>
       <use x="95.410156" xlink:href="#DejaVuSans-52"/>
      </g>
     </g>
    </g>
    <g id="ytick_14">
     <g id="line2d_62">
      <path clip-path="url(#p3a7f7a5279)" d="M 252.631778 75.507387 
L 424.990666 75.507387 
" style="fill:none;stroke:#cccccc;stroke-dasharray:1,1.65;stroke-dashoffset:0;"/>
     </g>
     <g id="text_68">
      <!-- 0.5 -->
      <g style="fill:#262626;" transform="translate(233.386371 78.432785)scale(0.077 -0.077)">
       <use xlink:href="#DejaVuSans-48"/>
       <use x="63.623047" xlink:href="#DejaVuSans-46"/>
       <use x="95.410156" xlink:href="#DejaVuSans-53"/>
      </g>
     </g>
    </g>
    <g id="ytick_15">
     <g id="line2d_63">
      <path clip-path="url(#p3a7f7a5279)" d="M 252.631778 58.286857 
L 424.990666 58.286857 
" style="fill:none;stroke:#cccccc;stroke-dasharray:1,1.65;stroke-dashoffset:0;"/>
     </g>
     <g id="text_69">
      <!-- 0.6 -->
      <g style="fill:#262626;" transform="translate(233.386371 61.212255)scale(0.077 -0.077)">
       <use xlink:href="#DejaVuSans-48"/>
       <use x="63.623047" xlink:href="#DejaVuSans-46"/>
       <use x="95.410156" xlink:href="#DejaVuSans-54"/>
      </g>
     </g>
    </g>
    <g id="ytick_16">
     <g id="line2d_64">
      <path clip-path="url(#p3a7f7a5279)" d="M 252.631778 41.066327 
L 424.990666 41.066327 
" style="fill:none;stroke:#cccccc;stroke-dasharray:1,1.65;stroke-dashoffset:0;"/>
     </g>
     <g id="text_70">
      <!-- 0.7 -->
      <g style="fill:#262626;" transform="translate(233.386371 43.991726)scale(0.077 -0.077)">
       <use xlink:href="#DejaVuSans-48"/>
       <use x="63.623047" xlink:href="#DejaVuSans-46"/>
       <use x="95.410156" xlink:href="#DejaVuSans-55"/>
      </g>
     </g>
    </g>
   </g>
   <g id="patch_59">
    <path clip-path="url(#p3a7f7a5279)" d="M 260.466273 161.610034 
L 262.780259 161.610034 
L 262.780259 161.610034 
L 260.466273 161.610034 
z
" style="fill:#0173b2;stroke:#ffffff;stroke-linejoin:miter;"/>
   </g>
   <g id="patch_60">
    <path clip-path="url(#p3a7f7a5279)" d="M 267.077661 161.610034 
L 269.391647 161.610034 
L 269.391647 161.610034 
L 267.077661 161.610034 
z
" style="fill:#0173b2;stroke:#ffffff;stroke-linejoin:miter;"/>
   </g>
   <g id="patch_61">
    <path clip-path="url(#p3a7f7a5279)" d="M 273.689049 161.610034 
L 276.003035 161.610034 
L 276.003035 161.610034 
L 273.689049 161.610034 
z
" style="fill:#0173b2;stroke:#ffffff;stroke-linejoin:miter;"/>
   </g>
   <g id="patch_62">
    <path clip-path="url(#p3a7f7a5279)" d="M 280.300437 161.610034 
L 282.614423 161.610034 
L 282.614423 161.610034 
L 280.300437 161.610034 
z
" style="fill:#0173b2;stroke:#ffffff;stroke-linejoin:miter;"/>
   </g>
   <g id="patch_63">
    <path clip-path="url(#p3a7f7a5279)" d="M 286.911825 161.610034 
L 289.225811 161.610034 
L 289.225811 157.350222 
L 286.911825 157.350222 
z
" style="fill:#0173b2;stroke:#ffffff;stroke-linejoin:miter;"/>
   </g>
   <g id="patch_64">
    <path clip-path="url(#p3a7f7a5279)" d="M 293.523213 161.610034 
L 295.837199 161.610034 
L 295.837199 159.263968 
L 293.523213 159.263968 
z
" style="fill:#0173b2;stroke:#ffffff;stroke-linejoin:miter;"/>
   </g>
   <g id="patch_65">
    <path clip-path="url(#p3a7f7a5279)" d="M 300.134602 161.610034 
L 302.448587 161.610034 
L 302.448587 161.610034 
L 300.134602 161.610034 
z
" style="fill:#0173b2;stroke:#ffffff;stroke-linejoin:miter;"/>
   </g>
   <g id="patch_66">
    <path clip-path="url(#p3a7f7a5279)" d="M 306.74599 161.610034 
L 309.059975 161.610034 
L 309.059975 161.610034 
L 306.74599 161.610034 
z
" style="fill:#0173b2;stroke:#ffffff;stroke-linejoin:miter;"/>
   </g>
   <g id="patch_67">
    <path clip-path="url(#p3a7f7a5279)" d="M 313.357378 161.610034 
L 315.671364 161.610034 
L 315.671364 161.610034 
L 313.357378 161.610034 
z
" style="fill:#0173b2;stroke:#ffffff;stroke-linejoin:miter;"/>
   </g>
   <g id="patch_68">
    <path clip-path="url(#p3a7f7a5279)" d="M 319.968766 161.610034 
L 322.282752 161.610034 
L 322.282752 161.610034 
L 319.968766 161.610034 
z
" style="fill:#0173b2;stroke:#ffffff;stroke-linejoin:miter;"/>
   </g>
   <g id="patch_69">
    <path clip-path="url(#p3a7f7a5279)" d="M 326.580154 161.610034 
L 328.89414 161.610034 
L 328.89414 161.610034 
L 326.580154 161.610034 
z
" style="fill:#0173b2;stroke:#ffffff;stroke-linejoin:miter;"/>
   </g>
   <g id="patch_70">
    <path clip-path="url(#p3a7f7a5279)" d="M 333.191542 161.610034 
L 335.505528 161.610034 
L 335.505528 161.610034 
L 333.191542 161.610034 
z
" style="fill:#0173b2;stroke:#ffffff;stroke-linejoin:miter;"/>
   </g>
   <g id="patch_71">
    <path clip-path="url(#p3a7f7a5279)" d="M 339.80293 161.610034 
L 342.116916 161.610034 
L 342.116916 111.44761 
L 339.80293 111.44761 
z
" style="fill:#0173b2;stroke:#ffffff;stroke-linejoin:miter;"/>
   </g>
   <g id="patch_72">
    <path clip-path="url(#p3a7f7a5279)" d="M 346.414318 161.610034 
L 348.728304 161.610034 
L 348.728304 94.641275 
L 346.414318 94.641275 
z
" style="fill:#0173b2;stroke:#ffffff;stroke-linejoin:miter;"/>
   </g>
   <g id="patch_73">
    <path clip-path="url(#p3a7f7a5279)" d="M 353.025707 161.610034 
L 355.339692 161.610034 
L 355.339692 80.571844 
L 353.025707 80.571844 
z
" style="fill:#0173b2;stroke:#ffffff;stroke-linejoin:miter;"/>
   </g>
   <g id="patch_74">
    <path clip-path="url(#p3a7f7a5279)" d="M 359.637095 161.610034 
L 361.951081 161.610034 
L 361.951081 109.85252 
L 359.637095 109.85252 
z
" style="fill:#0173b2;stroke:#ffffff;stroke-linejoin:miter;"/>
   </g>
   <g id="patch_75">
    <path clip-path="url(#p3a7f7a5279)" d="M 366.248483 161.610034 
L 368.562469 161.610034 
L 368.562469 91.714049 
L 366.248483 91.714049 
z
" style="fill:#0173b2;stroke:#ffffff;stroke-linejoin:miter;"/>
   </g>
   <g id="patch_76">
    <path clip-path="url(#p3a7f7a5279)" d="M 372.859871 161.610034 
L 375.173857 161.610034 
L 375.173857 33.348102 
L 372.859871 33.348102 
z
" style="fill:#0173b2;stroke:#ffffff;stroke-linejoin:miter;"/>
   </g>
   <g id="patch_77">
    <path clip-path="url(#p3a7f7a5279)" d="M 379.471259 161.610034 
L 381.785245 161.610034 
L 381.785245 161.610034 
L 379.471259 161.610034 
z
" style="fill:#0173b2;stroke:#ffffff;stroke-linejoin:miter;"/>
   </g>
   <g id="patch_78">
    <path clip-path="url(#p3a7f7a5279)" d="M 386.082647 161.610034 
L 388.396633 161.610034 
L 388.396633 91.542304 
L 386.082647 91.542304 
z
" style="fill:#0173b2;stroke:#ffffff;stroke-linejoin:miter;"/>
   </g>
   <g id="patch_79">
    <path clip-path="url(#p3a7f7a5279)" d="M 392.694035 161.610034 
L 395.008021 161.610034 
L 395.008021 86.748999 
L 392.694035 86.748999 
z
" style="fill:#0173b2;stroke:#ffffff;stroke-linejoin:miter;"/>
   </g>
   <g id="patch_80">
    <path clip-path="url(#p3a7f7a5279)" d="M 399.305424 161.610034 
L 401.619409 161.610034 
L 401.619409 67.179892 
L 399.305424 67.179892 
z
" style="fill:#0173b2;stroke:#ffffff;stroke-linejoin:miter;"/>
   </g>
   <g id="patch_81">
    <path clip-path="url(#p3a7f7a5279)" d="M 405.916812 161.610034 
L 408.230798 161.610034 
L 408.230798 44.783347 
L 405.916812 44.783347 
z
" style="fill:#0173b2;stroke:#ffffff;stroke-linejoin:miter;"/>
   </g>
   <g id="patch_82">
    <path clip-path="url(#p3a7f7a5279)" d="M 412.5282 161.610034 
L 414.842186 161.610034 
L 414.842186 161.610034 
L 412.5282 161.610034 
z
" style="fill:#0173b2;stroke:#ffffff;stroke-linejoin:miter;"/>
   </g>
   <g id="patch_83">
    <path clip-path="url(#p3a7f7a5279)" d="M 262.780259 161.610034 
L 265.094244 161.610034 
L 265.094244 161.610034 
L 262.780259 161.610034 
z
" style="fill:#de8f05;stroke:#ffffff;stroke-linejoin:miter;"/>
   </g>
   <g id="patch_84">
    <path clip-path="url(#p3a7f7a5279)" d="M 269.391647 161.610034 
L 271.705633 161.610034 
L 271.705633 161.610034 
L 269.391647 161.610034 
z
" style="fill:#de8f05;stroke:#ffffff;stroke-linejoin:miter;"/>
   </g>
   <g id="patch_85">
    <path clip-path="url(#p3a7f7a5279)" d="M 276.003035 161.610034 
L 278.317021 161.610034 
L 278.317021 161.610034 
L 276.003035 161.610034 
z
" style="fill:#de8f05;stroke:#ffffff;stroke-linejoin:miter;"/>
   </g>
   <g id="patch_86">
    <path clip-path="url(#p3a7f7a5279)" d="M 282.614423 161.610034 
L 284.928409 161.610034 
L 284.928409 161.610034 
L 282.614423 161.610034 
z
" style="fill:#de8f05;stroke:#ffffff;stroke-linejoin:miter;"/>
   </g>
   <g id="patch_87">
    <path clip-path="url(#p3a7f7a5279)" d="M 289.225811 161.610034 
L 291.539797 161.610034 
L 291.539797 154.574853 
L 289.225811 154.574853 
z
" style="fill:#de8f05;stroke:#ffffff;stroke-linejoin:miter;"/>
   </g>
   <g id="patch_88">
    <path clip-path="url(#p3a7f7a5279)" d="M 295.837199 161.610034 
L 298.151185 161.610034 
L 298.151185 161.610034 
L 295.837199 161.610034 
z
" style="fill:#de8f05;stroke:#ffffff;stroke-linejoin:miter;"/>
   </g>
   <g id="patch_89">
    <path clip-path="url(#p3a7f7a5279)" d="M 302.448587 161.610034 
L 304.762573 161.610034 
L 304.762573 161.610034 
L 302.448587 161.610034 
z
" style="fill:#de8f05;stroke:#ffffff;stroke-linejoin:miter;"/>
   </g>
   <g id="patch_90">
    <path clip-path="url(#p3a7f7a5279)" d="M 309.059975 161.610034 
L 311.373961 161.610034 
L 311.373961 161.610034 
L 309.059975 161.610034 
z
" style="fill:#de8f05;stroke:#ffffff;stroke-linejoin:miter;"/>
   </g>
   <g id="patch_91">
    <path clip-path="url(#p3a7f7a5279)" d="M 315.671364 161.610034 
L 317.985349 161.610034 
L 317.985349 161.610034 
L 315.671364 161.610034 
z
" style="fill:#de8f05;stroke:#ffffff;stroke-linejoin:miter;"/>
   </g>
   <g id="patch_92">
    <path clip-path="url(#p3a7f7a5279)" d="M 322.282752 161.610034 
L 324.596738 161.610034 
L 324.596738 161.610034 
L 322.282752 161.610034 
z
" style="fill:#de8f05;stroke:#ffffff;stroke-linejoin:miter;"/>
   </g>
   <g id="patch_93">
    <path clip-path="url(#p3a7f7a5279)" d="M 328.89414 161.610034 
L 331.208126 161.610034 
L 331.208126 161.610034 
L 328.89414 161.610034 
z
" style="fill:#de8f05;stroke:#ffffff;stroke-linejoin:miter;"/>
   </g>
   <g id="patch_94">
    <path clip-path="url(#p3a7f7a5279)" d="M 335.505528 161.610034 
L 337.819514 161.610034 
L 337.819514 161.610034 
L 335.505528 161.610034 
z
" style="fill:#de8f05;stroke:#ffffff;stroke-linejoin:miter;"/>
   </g>
   <g id="patch_95">
    <path clip-path="url(#p3a7f7a5279)" d="M 342.116916 161.610034 
L 344.430902 161.610034 
L 344.430902 112.314703 
L 342.116916 112.314703 
z
" style="fill:#de8f05;stroke:#ffffff;stroke-linejoin:miter;"/>
   </g>
   <g id="patch_96">
    <path clip-path="url(#p3a7f7a5279)" d="M 348.728304 161.610034 
L 351.04229 161.610034 
L 351.04229 96.761152 
L 348.728304 96.761152 
z
" style="fill:#de8f05;stroke:#ffffff;stroke-linejoin:miter;"/>
   </g>
   <g id="patch_97">
    <path clip-path="url(#p3a7f7a5279)" d="M 355.339692 161.610034 
L 357.653678 161.610034 
L 357.653678 92.81756 
L 355.339692 92.81756 
z
" style="fill:#de8f05;stroke:#ffffff;stroke-linejoin:miter;"/>
   </g>
   <g id="patch_98">
    <path clip-path="url(#p3a7f7a5279)" d="M 361.951081 161.610034 
L 364.265066 161.610034 
L 364.265066 108.914677 
L 361.951081 108.914677 
z
" style="fill:#de8f05;stroke:#ffffff;stroke-linejoin:miter;"/>
   </g>
   <g id="patch_99">
    <path clip-path="url(#p3a7f7a5279)" d="M 368.562469 161.610034 
L 370.876455 161.610034 
L 370.876455 93.960022 
L 368.562469 93.960022 
z
" style="fill:#de8f05;stroke:#ffffff;stroke-linejoin:miter;"/>
   </g>
   <g id="patch_100">
    <path clip-path="url(#p3a7f7a5279)" d="M 375.173857 161.610034 
L 377.487843 161.610034 
L 377.487843 33.665233 
L 375.173857 33.665233 
z
" style="fill:#de8f05;stroke:#ffffff;stroke-linejoin:miter;"/>
   </g>
   <g id="patch_101">
    <path clip-path="url(#p3a7f7a5279)" d="M 381.785245 161.610034 
L 384.099231 161.610034 
L 384.099231 161.610034 
L 381.785245 161.610034 
z
" style="fill:#de8f05;stroke:#ffffff;stroke-linejoin:miter;"/>
   </g>
   <g id="patch_102">
    <path clip-path="url(#p3a7f7a5279)" d="M 388.396633 161.610034 
L 390.710619 161.610034 
L 390.710619 81.744782 
L 388.396633 81.744782 
z
" style="fill:#de8f05;stroke:#ffffff;stroke-linejoin:miter;"/>
   </g>
   <g id="patch_103">
    <path clip-path="url(#p3a7f7a5279)" d="M 395.008021 161.610034 
L 397.322007 161.610034 
L 397.322007 91.013797 
L 395.008021 91.013797 
z
" style="fill:#de8f05;stroke:#ffffff;stroke-linejoin:miter;"/>
   </g>
   <g id="patch_104">
    <path clip-path="url(#p3a7f7a5279)" d="M 401.619409 161.610034 
L 403.933395 161.610034 
L 403.933395 68.795938 
L 401.619409 68.795938 
z
" style="fill:#de8f05;stroke:#ffffff;stroke-linejoin:miter;"/>
   </g>
   <g id="patch_105">
    <path clip-path="url(#p3a7f7a5279)" d="M 408.230798 161.610034 
L 410.544783 161.610034 
L 410.544783 34.870918 
L 408.230798 34.870918 
z
" style="fill:#de8f05;stroke:#ffffff;stroke-linejoin:miter;"/>
   </g>
   <g id="patch_106">
    <path clip-path="url(#p3a7f7a5279)" d="M 414.842186 161.610034 
L 417.156172 161.610034 
L 417.156172 161.610034 
L 414.842186 161.610034 
z
" style="fill:#de8f05;stroke:#ffffff;stroke-linejoin:miter;"/>
   </g>
   <g id="patch_107">
    <path d="M 252.631778 161.610034 
L 252.631778 26.935006 
" style="fill:none;stroke:#cccccc;stroke-linecap:square;stroke-linejoin:miter;stroke-width:0.6;"/>
   </g>
   <g id="patch_108">
    <path d="M 424.990666 161.610034 
L 424.990666 26.935006 
" style="fill:none;stroke:#cccccc;stroke-linecap:square;stroke-linejoin:miter;stroke-width:0.6;"/>
   </g>
   <g id="patch_109">
    <path d="M 252.631778 161.610034 
L 424.990666 161.610034 
" style="fill:none;stroke:#cccccc;stroke-linecap:square;stroke-linejoin:miter;stroke-width:0.6;"/>
   </g>
   <g id="patch_110">
    <path d="M 252.631778 26.935006 
L 424.990666 26.935006 
" style="fill:none;stroke:#cccccc;stroke-linecap:square;stroke-linejoin:miter;stroke-width:0.6;"/>
   </g>
   <g id="text_71">
    <!-- b -->
    <g style="fill:#262626;" transform="translate(218.16 12.1575)scale(0.16 -0.16)">
     <defs>
      <path d="M 37.5 11.28125 
Q 43.109375 11.28125 46.0625 15.375 
Q 49.03125 19.484375 49.03125 27.296875 
Q 49.03125 35.109375 46.0625 39.203125 
Q 43.109375 43.3125 37.5 43.3125 
Q 31.890625 43.3125 28.875 39.1875 
Q 25.875 35.0625 25.875 27.296875 
Q 25.875 19.53125 28.875 15.40625 
Q 31.890625 11.28125 37.5 11.28125 
z
M 25.875 46.6875 
Q 29.5 51.46875 33.890625 53.734375 
Q 38.28125 56 44 56 
Q 54.109375 56 60.59375 47.96875 
Q 67.09375 39.9375 67.09375 27.296875 
Q 67.09375 14.65625 60.59375 6.609375 
Q 54.109375 -1.421875 44 -1.421875 
Q 38.28125 -1.421875 33.890625 0.84375 
Q 29.5 3.125 25.875 7.90625 
L 25.875 0 
L 8.40625 0 
L 8.40625 75.984375 
L 25.875 75.984375 
z
" id="DejaVuSans-Bold-98"/>
     </defs>
     <use xlink:href="#DejaVuSans-Bold-98"/>
    </g>
   </g>
   <g id="text_72">
    <!-- Anti-D and Anti-TNP (Fig. 3B) -->
    <g style="fill:#262626;" transform="translate(278.642285 20.935006)scale(0.084 -0.084)">
     <defs>
      <path d="M 19.671875 34.8125 
L 19.671875 8.109375 
L 35.5 8.109375 
Q 43.453125 8.109375 47.28125 11.40625 
Q 51.125 14.703125 51.125 21.484375 
Q 51.125 28.328125 47.28125 31.5625 
Q 43.453125 34.8125 35.5 34.8125 
z
M 19.671875 64.796875 
L 19.671875 42.828125 
L 34.28125 42.828125 
Q 41.5 42.828125 45.03125 45.53125 
Q 48.578125 48.25 48.578125 53.8125 
Q 48.578125 59.328125 45.03125 62.0625 
Q 41.5 64.796875 34.28125 64.796875 
z
M 9.8125 72.90625 
L 35.015625 72.90625 
Q 46.296875 72.90625 52.390625 68.21875 
Q 58.5 63.53125 58.5 54.890625 
Q 58.5 48.1875 55.375 44.234375 
Q 52.25 40.28125 46.1875 39.3125 
Q 53.46875 37.75 57.5 32.78125 
Q 61.53125 27.828125 61.53125 20.40625 
Q 61.53125 10.640625 54.890625 5.3125 
Q 48.25 0 35.984375 0 
L 9.8125 0 
z
" id="DejaVuSans-66"/>
     </defs>
     <use xlink:href="#DejaVuSans-65"/>
     <use x="68.408203" xlink:href="#DejaVuSans-110"/>
     <use x="131.787109" xlink:href="#DejaVuSans-116"/>
     <use x="170.996094" xlink:href="#DejaVuSans-105"/>
     <use x="198.779297" xlink:href="#DejaVuSans-45"/>
     <use x="234.863281" xlink:href="#DejaVuSans-68"/>
     <use x="311.865234" xlink:href="#DejaVuSans-32"/>
     <use x="343.652344" xlink:href="#DejaVuSans-97"/>
     <use x="404.931641" xlink:href="#DejaVuSans-110"/>
     <use x="468.310547" xlink:href="#DejaVuSans-100"/>
     <use x="531.787109" xlink:href="#DejaVuSans-32"/>
     <use x="563.574219" xlink:href="#DejaVuSans-65"/>
     <use x="631.982422" xlink:href="#DejaVuSans-110"/>
     <use x="695.361328" xlink:href="#DejaVuSans-116"/>
     <use x="734.570312" xlink:href="#DejaVuSans-105"/>
     <use x="762.353516" xlink:href="#DejaVuSans-45"/>
     <use x="789.3125" xlink:href="#DejaVuSans-84"/>
     <use x="850.396484" xlink:href="#DejaVuSans-78"/>
     <use x="925.201172" xlink:href="#DejaVuSans-80"/>
     <use x="985.503906" xlink:href="#DejaVuSans-32"/>
     <use x="1017.291016" xlink:href="#DejaVuSans-40"/>
     <use x="1056.304688" xlink:href="#DejaVuSans-70"/>
     <use x="1106.574219" xlink:href="#DejaVuSans-105"/>
     <use x="1134.357422" xlink:href="#DejaVuSans-103"/>
     <use x="1197.833984" xlink:href="#DejaVuSans-46"/>
     <use x="1229.621094" xlink:href="#DejaVuSans-32"/>
     <use x="1261.408203" xlink:href="#DejaVuSans-51"/>
     <use x="1325.03125" xlink:href="#DejaVuSans-66"/>
     <use x="1393.634766" xlink:href="#DejaVuSans-41"/>
    </g>
   </g>
   <g id="legend_2">
    <g id="patch_111">
     <path d="M 258.021778 52.619318 
L 343.911668 52.619318 
Q 345.451668 52.619318 345.451668 51.079318 
L 345.451668 32.325006 
Q 345.451668 30.785006 343.911668 30.785006 
L 258.021778 30.785006 
Q 256.481778 30.785006 256.481778 32.325006 
L 256.481778 51.079318 
Q 256.481778 52.619318 258.021778 52.619318 
z
" style="fill:#ffffff;opacity:0.5;stroke:#cccccc;stroke-linejoin:miter;"/>
    </g>
    <g id="patch_112">
     <path d="M 259.176778 39.330803 
L 263.026778 39.330803 
L 263.026778 33.940803 
L 259.176778 33.940803 
z
" style="fill:#0173b2;stroke:#ffffff;stroke-linejoin:miter;"/>
    </g>
    <g id="text_73">
     <!-- Anti-D and Anti-TNP -->
     <g style="fill:#262626;" transform="translate(266.876778 39.330803)scale(0.077 -0.077)">
      <use xlink:href="#DejaVuSans-65"/>
      <use x="68.408203" xlink:href="#DejaVuSans-110"/>
      <use x="131.787109" xlink:href="#DejaVuSans-116"/>
      <use x="170.996094" xlink:href="#DejaVuSans-105"/>
      <use x="198.779297" xlink:href="#DejaVuSans-45"/>
      <use x="234.863281" xlink:href="#DejaVuSans-68"/>
      <use x="311.865234" xlink:href="#DejaVuSans-32"/>
      <use x="343.652344" xlink:href="#DejaVuSans-97"/>
      <use x="404.931641" xlink:href="#DejaVuSans-110"/>
      <use x="468.310547" xlink:href="#DejaVuSans-100"/>
      <use x="531.787109" xlink:href="#DejaVuSans-32"/>
      <use x="563.574219" xlink:href="#DejaVuSans-65"/>
      <use x="631.982422" xlink:href="#DejaVuSans-110"/>
      <use x="695.361328" xlink:href="#DejaVuSans-116"/>
      <use x="734.570312" xlink:href="#DejaVuSans-105"/>
      <use x="762.353516" xlink:href="#DejaVuSans-45"/>
      <use x="789.3125" xlink:href="#DejaVuSans-84"/>
      <use x="850.396484" xlink:href="#DejaVuSans-78"/>
      <use x="925.201172" xlink:href="#DejaVuSans-80"/>
     </g>
    </g>
    <g id="patch_113">
     <path d="M 259.176778 48.322959 
L 263.026778 48.322959 
L 263.026778 42.932959 
L 259.176778 42.932959 
z
" style="fill:#de8f05;stroke:#ffffff;stroke-linejoin:miter;"/>
    </g>
    <g id="text_74">
     <!-- Double Anti-D -->
     <g style="fill:#262626;" transform="translate(266.876778 48.322959)scale(0.077 -0.077)">
      <use xlink:href="#DejaVuSans-68"/>
      <use x="77.001953" xlink:href="#DejaVuSans-111"/>
      <use x="138.183594" xlink:href="#DejaVuSans-117"/>
      <use x="201.5625" xlink:href="#DejaVuSans-98"/>
      <use x="265.039062" xlink:href="#DejaVuSans-108"/>
      <use x="292.822266" xlink:href="#DejaVuSans-101"/>
      <use x="354.345703" xlink:href="#DejaVuSans-32"/>
      <use x="386.132812" xlink:href="#DejaVuSans-65"/>
      <use x="454.541016" xlink:href="#DejaVuSans-110"/>
      <use x="517.919922" xlink:href="#DejaVuSans-116"/>
      <use x="557.128906" xlink:href="#DejaVuSans-105"/>
      <use x="584.912109" xlink:href="#DejaVuSans-45"/>
      <use x="620.996094" xlink:href="#DejaVuSans-68"/>
     </g>
    </g>
   </g>
  </g>
 </g>
 <defs>
  <clipPath id="p74e3c262e8">
   <rect height="134.675029" width="172.358889" x="34.471778" y="26.935006"/>
  </clipPath>
  <clipPath id="p3a7f7a5279">
   <rect height="134.675029" width="172.358889" x="252.631778" y="26.935006"/>
  </clipPath>
 </defs>
</svg>
